<svg width="292" height="239" viewBox="0 0 292 239" fill="none" xmlns="http://www.w3.org/2000/svg">
<path d="M110.329 89.1763C110.329 89.1763 103.428 89.9789 97.104 100.456C90.7799 110.932 86.9218 126.528 88.6719 138.913C90.4219 151.299 97.2233 160.756 99.3313 162.925C101.439 165.094 103.786 167.784 103.786 167.784L112.576 159.216C112.576 159.216 105.079 145.789 103.547 137.742C102.016 129.695 105.894 121.517 108.002 119.478C110.11 117.44 113.749 114.88 113.749 114.88C113.749 114.88 113.61 87.8532 110.349 89.1546L110.329 89.1763Z" fill="#7198B5"/>
<path d="M151.813 159.173C153.424 157.09 154.975 154.835 155.85 152.253C156.825 149.39 156.725 146.288 156.228 143.338C155.731 140.345 154.856 137.373 154.776 134.315C154.776 134.293 154.776 134.272 154.776 134.25C153.663 128.242 154.1 121.734 154.1 115.249C154.1 108.351 152.628 103.297 148.89 96.5295C145.29 90.0222 137.654 87.723 137.654 87.723C137.654 87.723 141.631 121.192 141.631 132.319C141.631 142.341 145.35 161.103 147.617 164.118C149.049 162.513 150.481 160.93 151.813 159.216V159.173Z" fill="#7198B5"/>
<path d="M129.321 216.415C129.321 216.415 126.994 224.332 126.994 228.302C126.994 232.271 126.656 232.661 131.727 233.876C136.798 235.091 142.188 236.045 145.927 235.286C149.645 234.505 149.944 232.445 148.134 230.991C146.324 229.516 141.969 228.02 140.756 226.653C139.543 225.287 140.438 219.972 140.756 219.061C141.074 218.15 133.199 213.573 129.301 216.415H129.321Z" fill="#7198B5"/>
<path d="M101.141 217.76C101.141 217.76 98.1184 225.395 97.7605 229.343C97.4025 233.29 97.0445 233.637 101.976 235.394C106.928 237.151 112.198 238.67 115.977 238.301C119.755 237.932 120.233 235.915 118.562 234.266C116.892 232.618 112.696 230.666 111.622 229.169C110.528 227.694 111.9 222.488 112.298 221.621C112.696 220.753 105.278 215.374 101.141 217.76Z" fill="#7198B5"/>
<path d="M103.647 153.902C103.647 153.902 103.07 157.09 103.17 165.138C103.289 173.185 102.931 187.111 101.42 197.587C99.8882 208.064 97.4421 223.009 97.4421 223.009C97.4421 223.009 99.9081 225.178 105.755 225.699C111.622 226.219 113.014 225.568 113.014 225.568C113.014 225.568 119.218 206.025 122.261 194.269C125.304 182.512 127.173 169.107 128.346 170.127C129.52 171.146 130.216 183.792 129.162 197.349C128.108 210.884 126.238 224.05 126.238 224.05C126.238 224.05 129.042 225.2 135.267 225.07C141.472 224.939 142.068 223.66 142.068 223.66C142.068 223.66 147.338 208.715 149.208 190.061C151.077 171.406 148.83 151.06 148.83 151.06C148.83 151.06 135.168 144.314 125.324 146.484C115.48 148.653 103.647 153.902 103.647 153.902Z" fill="#82342A"/>
<path d="M139.463 99.371C138.807 95.2714 137.037 91.584 134.631 88.4822C133.497 87.8314 132.344 87.2892 131.031 86.9855C130.037 86.7469 129.023 86.6167 128.008 86.6167C127.113 86.6167 126.278 86.7903 125.423 86.9204C125.165 86.9638 124.986 86.595 125.224 86.4215C125.304 86.3781 125.383 86.3348 125.463 86.2914C125.025 86.2914 124.608 86.2914 124.17 86.2914C119 86.2914 113.889 87.8097 110.369 89.1763C109.951 92.2998 110.249 95.51 110.965 98.5467C111.741 101.8 112.954 104.924 114.465 107.852C115.838 110.52 117.528 113.145 119.497 115.314C121.505 117.548 123.991 119.348 126.875 119.76C129.739 120.173 132.582 119.218 134.75 117.136C136.918 115.032 138.25 112.169 139.006 109.154C139.801 105.965 140 102.603 139.483 99.3493L139.463 99.371Z" fill="white"/>
<path d="M149.864 155.117C149.924 153.468 150.023 151.82 150.123 150.193C150.302 147.221 150.54 144.249 150.739 141.278C151.316 131.69 151.057 121.951 149.486 112.472C148.711 107.722 147.577 102.993 146.046 98.46C144.753 94.6207 144.455 93.7747 142.566 90.2391C133.776 85.2502 132.901 86.2914 124.15 86.2914C114.784 86.2914 105.636 91.2803 105.636 91.2803C105.636 91.2803 106.928 100.738 107.266 107.765C107.624 114.793 107.843 121.062 106.789 130.259C105.735 139.456 102.931 155.051 102.931 155.051C102.931 155.051 112.178 159.021 127.412 159.65C140.1 160.192 147.637 157.004 149.804 155.919C149.804 155.659 149.824 155.398 149.844 155.138L149.864 155.117ZM134.79 106.637C134.412 107.83 133.974 109.002 133.457 110.13C132.841 111.496 132.065 112.928 130.832 113.73C128.307 115.379 125.682 113.015 123.991 111.084C122.162 108.98 120.67 106.572 118.98 104.36C117.23 102.061 115.38 99.6963 114.187 96.9633C113.71 95.8571 113.292 94.6207 113.372 93.3843C113.451 92.2347 114.008 91.1502 114.803 90.4127C116.673 88.6557 119.417 88.7642 121.704 89.0895C124.051 89.4366 126.318 90.0873 128.625 90.6296C130.733 90.5428 132.901 91.0851 134.313 92.8854C135.645 94.599 136.063 96.9199 136.043 99.1107C136.043 101.67 135.526 104.23 134.77 106.637H134.79Z" fill="#7198B5"/>
<path d="M118.145 112.472C114.704 112.646 111.264 112.646 107.843 112.299C107.724 112.299 107.604 112.255 107.465 112.255C107.406 110.78 107.346 109.305 107.266 107.787C107.266 107.744 107.266 107.7 107.266 107.635C108.798 107.852 110.349 108.004 111.9 108.112C115.201 108.373 118.542 108.46 121.843 108.329C122.52 109.284 123.236 110.216 123.991 111.084C124.21 111.344 124.449 111.605 124.707 111.865C122.52 112.104 120.352 112.364 118.145 112.472Z" fill="#A2CB9C"/>
<path d="M150.063 116.659C147.955 117.418 145.787 118.047 143.64 118.589C140 119.478 136.301 120.086 132.583 120.455C125.025 121.17 117.389 120.932 109.852 119.977C109.076 119.891 108.301 119.782 107.545 119.674C107.505 121.821 107.386 124.12 107.167 126.593C112.238 127.547 117.329 128.372 122.48 128.675C126.437 128.914 130.395 128.871 134.352 128.502C138.032 128.155 141.571 127.157 145.091 125.986C146.981 125.357 148.85 124.706 150.759 124.12C150.6 121.626 150.381 119.153 150.083 116.68L150.063 116.659Z" fill="#A2CB9C"/>
<path d="M147.378 102.907C145.589 103.688 143.759 104.36 141.909 104.967C139.543 105.726 137.137 106.334 134.71 106.833C134.352 107.961 133.935 109.067 133.458 110.13C133.318 110.433 133.179 110.715 133.02 111.019C135.208 110.78 137.395 110.52 139.563 110.151C141.611 109.804 143.66 109.436 145.608 108.633C146.563 108.243 147.518 107.83 148.492 107.44C148.154 105.922 147.796 104.403 147.378 102.907Z" fill="#A2CB9C"/>
<path d="M116.375 83.45L116.991 97.5273C116.991 97.5273 120.869 103.601 126.755 102.278C132.642 100.954 133.139 97.3972 133.139 97.3972L131.528 80.3265C131.528 80.3265 124.588 85.8793 116.394 83.4717L116.375 83.45Z" fill="#B0683F"/>
<g style="mix-blend-mode:multiply">
<path d="M118.065 91.0417C121.466 92.0829 125.045 93.059 128.605 92.6252C129.997 92.4516 131.349 92.0178 132.582 91.2803L131.548 80.3047C131.548 80.3047 124.608 85.8576 116.414 83.4499L116.732 90.5862C117.19 90.7381 117.647 90.8899 118.105 91.02L118.065 91.0417Z" fill="#AEA7A2"/>
</g>
<path d="M152.887 51.1955C152.887 51.1955 158.395 46.8574 160.225 49.7422C162.055 52.6271 161.756 56.2278 157.898 58.9175C154.04 61.6072 151.137 60.8046 151.137 60.8046L152.887 51.1955Z" fill="#B0683F"/>
<path d="M91.8935 38.6583C89.4673 49.9375 87.9758 75.511 109.812 85.8793C131.648 96.2475 146.861 79.1117 152.787 61.5421C159.032 43.0181 149.506 20.1126 145.051 18.5292C121.963 10.3734 96.8653 15.4924 91.8935 38.6583Z" fill="#B0683F"/>
<path d="M124.628 53.2129C124.628 53.2129 124.687 53.1261 124.628 53.1261C124.568 53.1261 124.568 53.2129 124.628 53.2129Z" fill="#423227"/>
<g style="mix-blend-mode:multiply">
<path d="M123.673 50.1545C124.13 51.2173 124.011 52.5405 124.051 53.6684C124.091 54.9048 124.091 56.2496 124.548 57.3992C124.986 58.4837 125.94 58.8959 126.994 58.7657C128.068 58.6139 129.997 57.5944 129.818 59.6551C129.719 60.8047 129.222 61.7808 128.327 62.4315C127.869 62.7568 127.352 62.9521 126.835 63.0388C126.358 63.1039 125.821 62.9738 125.383 63.2124C125.204 63.2991 125.105 63.5594 125.244 63.7546C125.841 64.5355 127.054 64.2535 127.829 63.9932C128.724 63.6679 129.56 63.0171 130.097 62.1712C130.773 61.065 131.469 58.2018 129.858 57.551C129.182 57.2908 128.406 57.4426 127.75 57.6378C127.213 57.7896 126.497 58.115 126.02 57.6595C125.224 56.9003 125.284 55.2518 125.244 54.2323C125.184 52.714 125.244 51.0438 124.488 49.6773C124.23 49.1784 123.454 49.6556 123.693 50.1762L123.673 50.1545Z" fill="#AEA7A2"/>
</g>
<path d="M112.178 47.5732C111.462 47.2695 110.687 47.0526 109.931 47.096C109.155 47.1394 108.42 47.443 107.724 47.8335C105.377 49.1566 103.547 51.5643 102.792 54.319C102.573 55.1433 102.434 56.0109 102.493 56.8569C102.573 57.8547 102.891 58.7874 103.348 59.655C105.079 62.8652 108.817 64.6873 112.139 63.7546C115.261 62.8869 118.005 59.1995 118.065 55.6205C118.124 52.15 114.923 48.6794 112.158 47.5298L112.178 47.5732Z" fill="white"/>
<path d="M141.571 44.7968C140.855 44.4931 140.08 44.2762 139.324 44.3196C138.548 44.363 137.812 44.6667 137.116 45.0571C134.77 46.3802 132.94 48.7879 132.184 51.5427C131.966 52.3669 131.827 53.2346 131.886 54.0805C131.966 55.0783 132.284 56.011 132.741 56.8786C134.471 60.0889 138.21 61.9109 141.531 60.9782C144.654 60.1106 147.398 56.4231 147.458 52.8441C147.517 49.3736 144.316 45.903 141.551 44.7534L141.571 44.7968Z" fill="white"/>
<path d="M93.7431 61.8458C93.7431 61.8458 90.064 57.269 86.206 59.9587C82.3479 62.6484 83.74 68.9387 89.6663 69.8714C95.5926 70.8041 96.1295 65.5116 96.1295 65.5116L93.7431 61.8458Z" fill="#B0683F"/>
<path d="M143.739 41.0876C143.838 41.1744 143.6 40.8707 143.739 41.0876C143.699 41.0443 143.659 40.9792 143.62 40.9358C143.54 40.849 143.46 40.7623 143.401 40.6755C143.401 40.6755 143.182 40.4369 143.162 40.4369C143.162 40.4369 143.361 40.5887 143.222 40.4803C143.142 40.4369 143.083 40.3718 143.003 40.3285C142.904 40.2634 142.824 40.1983 142.725 40.1549C142.645 40.1115 142.446 40.0465 142.387 39.9814C142.387 39.9814 142.665 40.0899 142.466 40.0248C142.426 40.0248 142.367 39.9814 142.327 39.9597C142.188 39.9163 142.068 39.873 141.929 39.8296C141.69 39.7645 141.452 39.7211 141.213 39.6777C141.094 39.656 140.994 39.6343 140.875 39.6127C140.815 39.6127 140.736 39.6127 140.676 39.5693C140.815 39.6127 140.935 39.6127 140.716 39.5693C140.239 39.5259 139.761 39.5042 139.304 39.4608C139.085 39.4608 138.867 39.4174 138.668 39.3307C138.23 39.1355 139.105 39.3307 138.807 39.3524C138.767 39.3524 138.707 39.3524 138.668 39.3524C138.071 39.309 137.554 38.7667 137.733 38.0943C137.813 37.7906 138.011 37.5737 138.25 37.4219C138.29 37.4219 138.33 37.3568 138.369 37.3568C138.29 37.4436 138.21 37.552 138.131 37.6388C138.19 37.552 138.25 37.487 138.31 37.4002C138.548 37.1182 138.986 36.9664 139.324 36.8796C139.901 36.7495 140.477 36.7278 141.054 36.7712C141.75 36.8362 142.327 37.0098 142.963 37.3134C144.137 37.8774 145.111 38.8969 145.429 40.2634C145.549 40.7406 145.33 41.2612 144.892 41.4564C144.435 41.6516 144.017 41.4564 143.739 41.0443V41.0876Z" fill="#423227"/>
<path d="M109.136 42.3024C108.996 42.3457 108.877 42.3891 108.738 42.4542C108.698 42.4542 108.579 42.5193 108.539 42.541C108.758 42.3891 108.818 42.3457 108.738 42.4108C108.718 42.4108 108.698 42.4542 108.678 42.4759C108.42 42.7145 108.102 42.9097 107.823 43.0832C107.704 43.17 107.565 43.2568 107.445 43.3435C107.346 43.4303 107.246 43.5821 107.465 43.3218C107.425 43.3652 107.366 43.4086 107.326 43.452C107.087 43.6689 106.849 43.8858 106.63 44.1027C106.192 44.5582 105.815 45.1005 105.377 45.556C105.278 45.6644 105.158 45.7946 105.059 45.903C104.979 45.9681 104.88 46.0549 104.8 46.1199C104.681 46.185 104.721 46.1416 104.88 46.0332C104.88 46.0766 104.761 46.1633 104.721 46.185C104.721 46.185 104.403 46.467 104.383 46.4453C104.383 46.4453 104.582 46.2718 104.403 46.4236C104.204 46.5972 104.025 46.7273 103.786 46.7924C103.488 46.8791 103.05 46.749 102.911 46.4019C102.732 45.9464 102.732 45.4475 102.812 44.9703C102.832 44.8619 102.891 44.5148 102.851 44.9703C102.851 44.7968 102.871 44.6233 102.931 44.4498C102.991 44.2112 103.11 43.9509 103.229 43.734C103.587 42.9748 104.164 42.324 104.78 41.8035C105.477 41.2178 106.252 40.7189 107.127 40.5888C107.585 40.5237 108.121 40.502 108.539 40.7623C108.718 40.8925 108.4 40.7189 108.579 40.784C108.639 40.784 108.718 40.8274 108.778 40.8491C108.977 40.9358 109.136 41.0226 109.315 41.1527C109.712 41.4564 109.673 42.1505 109.175 42.3024H109.136Z" fill="#423227"/>
<path d="M114.286 48.853C113.173 48.788 112.039 48.9398 111.065 49.5471C108.062 51.3909 107.545 56.4665 109.434 59.3731C110.388 60.8698 111.88 61.8892 113.451 62.4098C113.769 62.5183 114.068 62.5834 114.386 62.6484C116.474 61.0867 118.025 58.3536 118.065 55.664C118.124 53.0611 116.335 50.4798 114.286 48.853Z" fill="#423227"/>
<path d="M142.367 45.2089C141.532 45.2523 140.716 45.4475 139.941 45.8162C138.27 46.6405 137.216 48.3324 136.719 50.2195C136.162 52.3452 136.321 54.3841 137.415 56.2712C138.469 58.0716 140.1 59.4598 141.87 60.3274C142.088 60.4359 142.307 60.5226 142.526 60.6094C145.211 59.3079 147.378 56.0543 147.438 52.8658C147.498 49.7423 144.893 46.5971 142.347 45.1872L142.367 45.2089Z" fill="#423227"/>
<path d="M114.108 55.4253C115.858 55.7073 116.255 52.7356 114.505 52.4537C112.755 52.1717 112.357 55.1433 114.108 55.4253Z" fill="white"/>
<path d="M143.52 52.0415C145.27 52.3235 145.668 49.3519 143.918 49.0699C142.168 48.7879 141.77 51.7595 143.52 52.0415Z" fill="white"/>
<path d="M79.6036 35.1877C79.7826 33.5826 80.4587 32.1293 81.5127 31.0014C82.2088 30.2639 83.0838 29.7216 83.8196 29.0275C83.4417 27.032 82.686 25.1015 82.9645 23.0408C83.1633 21.4791 83.919 20.0909 85.0725 19.1365C87.0015 17.5314 89.8453 17.0759 92.2716 17.6181C92.2716 15.9479 92.2318 14.2777 92.6892 12.6726C93.246 10.7204 94.6182 9.3756 96.408 8.78994C99.4309 7.79216 103.269 8.6598 105.695 10.9807C106.192 7.2499 107.823 3.56245 111.462 2.58636C115.241 1.58858 118.105 4.12641 120.292 7.11975C121.545 3.02018 126.437 0.0268348 130.136 0.482343C134.074 0.959542 136.659 4.1481 138.031 7.92231C140.577 6.14366 143.62 5.01574 146.642 5.66646C149.208 6.23042 150.679 8.46459 151.654 10.9807C152.37 12.8461 152.788 14.8417 153.145 16.8156C153.225 17.2928 153.305 17.77 153.364 18.2688C153.404 18.5725 153.364 19.2233 153.523 19.4835C153.782 19.9607 154.776 20.0475 155.214 20.156C156.526 20.503 157.819 20.9368 158.714 22.1081C159.609 23.2794 160.106 24.7544 160.285 26.2728C160.722 30.1121 159.31 33.7344 157.362 36.8145C159.43 38.7233 160.722 41.3913 160.185 44.3847C159.191 49.8508 154.418 51.9331 154.279 51.8463C152.708 50.9353 151.734 46.9876 151.256 45.1872C150.66 42.9964 150.819 40.6972 151.773 38.7016C147.915 37.3134 147.339 31.7389 148.154 27.5742C144.853 29.5698 140.477 28.8323 138.23 25.4485C137.395 27.0753 135.406 28.0731 133.815 28.3117C131.429 28.6805 129.082 27.8345 127.491 25.9474C126.875 28.5069 124.846 29.9819 122.261 30.1771C120.65 30.2856 118.9 30.2205 117.349 29.7216C116.693 29.5047 116.056 29.2227 115.48 28.854C114.903 28.5069 114.485 27.9864 114.008 27.5308C113.292 30.0904 110.826 31.9341 108.559 32.5631C106.153 33.2139 103.468 33.1488 101.241 31.9558C101.439 33.9513 100.942 35.9903 99.4905 37.3568C98.1382 38.6366 96.4677 38.7884 94.8966 38.3112C95.5927 39.9163 96.07 41.6516 96.0501 43.4519C96.0501 45.7729 94.9364 47.7034 93.8028 49.5688C93.6438 49.5471 93.4648 49.7206 93.5642 49.9158C94.2801 51.1739 96.0898 54.3625 95.7518 55.8591C95.4535 57.1823 94.6978 58.3536 93.8625 59.3297C93.0869 60.2624 92.2119 61.0649 91.2772 61.8024C88.3339 60.9565 84.3168 56.4882 82.6264 53.8419C80.5383 50.6099 81.1746 47.0743 83.1633 44.1461C82.169 43.17 81.3536 41.9119 80.7172 40.6972C79.8223 38.9619 79.3649 37.1399 79.5837 35.1443L79.6036 35.1877Z" fill="#423227"/>
<path d="M118.801 68.7652C119.894 70.4137 120.988 72.149 122.5 73.3637C124.111 74.6651 126.02 75.1207 127.969 74.6868C129.739 74.2964 131.21 73.1685 132.264 71.585C132.781 70.8259 133.159 69.9365 133.437 69.0472C133.696 68.1579 134.094 66.7914 133.676 65.9237C133.437 65.4465 132.741 65.3164 132.403 65.7502C131.886 66.4226 131.946 67.4204 131.747 68.2446C131.568 68.9821 131.369 69.7196 131.051 70.392C130.355 71.8236 129.142 72.778 127.69 73.1468C124.19 74.0578 121.664 70.9126 119.755 68.1796C119.338 67.5722 118.383 68.1579 118.801 68.7869V68.7652Z" fill="#423227"/>
<path d="M145.549 96.2042C147.975 103.536 149.367 111.106 150.083 118.849C150.819 126.918 151.395 135.096 151.057 143.187C150.958 145.551 150.759 147.915 150.421 150.236C150.103 152.34 149.506 154.379 149.248 156.483C149.248 156.635 149.407 156.678 149.446 156.548C150.083 154.856 150.421 152.904 150.719 151.125C151.037 149.26 151.236 147.351 151.375 145.464C151.674 141.169 151.634 136.853 151.495 132.536C151.196 124.576 150.66 116.485 149.267 108.633C148.492 104.338 147.418 100.109 145.847 96.074C145.787 95.9222 145.529 96.0306 145.588 96.2042H145.549Z" fill="#A2CB9C"/>
<path d="M103.209 133.686C102.255 133.968 101.32 134.315 100.405 134.771C97.7007 136.115 95.3143 138.068 93.2261 140.345C91.9733 141.712 90.8994 143.208 89.905 144.77C92.5301 154.227 97.5615 161.125 99.3314 162.947C101.439 165.116 103.786 167.806 103.786 167.806L112.576 159.238C112.576 159.238 105.079 145.833 103.547 137.764C103.289 136.397 103.19 135.031 103.209 133.686Z" fill="#7198B5"/>
<path d="M104.979 142.362C105.238 145.442 106.451 148.371 107.783 151.104C108.519 152.6 109.315 154.075 110.15 155.485C110.906 156.765 111.641 158.218 112.596 159.346C112.735 159.52 112.974 159.303 112.874 159.108C112.238 157.806 111.323 156.613 110.587 155.377C109.772 153.989 108.996 152.579 108.281 151.125C106.928 148.349 105.795 145.421 105.158 142.362C105.138 142.254 104.959 142.276 104.979 142.384V142.362Z" fill="#A2CB9C"/>
<path d="M104.005 168.001C105.516 166.244 107.266 164.769 108.957 163.229C109.673 162.578 110.349 161.884 111.045 161.212C111.383 160.886 111.721 160.561 112.079 160.257C112.357 160.019 112.835 159.758 112.974 159.411C113.033 159.281 112.974 159.064 112.815 159.086C112.477 159.129 112.178 159.476 111.92 159.693C111.582 159.997 111.264 160.322 110.925 160.648C110.21 161.364 109.494 162.101 108.778 162.839C107.147 164.509 105.357 166.005 103.846 167.827C103.746 167.936 103.905 168.109 104.005 168.001Z" fill="#B0683F"/>
<path d="M105.735 169.975C107.028 168.283 108.499 166.808 110.05 165.398C110.806 164.704 111.582 164.01 112.317 163.294C112.695 162.947 113.053 162.578 113.411 162.209C113.749 161.862 114.167 161.494 114.406 161.06C114.505 160.865 114.286 160.604 114.107 160.734C113.729 161.038 113.411 161.472 113.073 161.841C112.715 162.209 112.357 162.578 111.979 162.925C111.224 163.663 110.428 164.357 109.653 165.073C108.141 166.483 106.59 167.936 105.456 169.736C105.337 169.931 105.616 170.148 105.755 169.975H105.735Z" fill="#B0683F"/>
<path d="M49.6537 216.415C49.6537 216.415 47.3269 224.332 47.3269 228.301C47.3269 232.271 46.9889 232.661 52.06 233.876C57.1312 235.091 62.5206 236.045 66.2593 235.286C69.9782 234.505 70.2765 232.444 68.4668 230.991C66.6571 229.516 62.3018 228.02 61.0887 226.653C59.8756 225.286 60.7705 219.972 61.0887 219.061C61.4069 218.15 53.5317 213.573 49.6338 216.415H49.6537Z" fill="#423227"/>
<path d="M21.474 217.76C21.474 217.76 18.4512 225.395 18.0932 229.343C17.7353 233.29 17.3773 233.637 22.3093 235.394C27.2611 237.151 32.5311 238.67 36.3097 238.301C40.0882 237.932 40.5655 235.915 38.895 234.266C37.2245 232.618 33.0283 230.666 31.9544 229.169C30.8606 227.694 32.2328 222.488 32.6306 221.621C33.0283 220.753 25.6105 215.374 21.474 217.76Z" fill="#423227"/>
<path d="M23.9799 153.902C23.9799 153.902 23.4032 157.09 23.5026 165.138C23.6219 173.185 23.2639 187.111 21.7525 197.587C20.2411 208.064 17.7751 223.009 17.7751 223.009C17.7751 223.009 20.2411 225.178 26.0879 225.699C31.9545 226.219 33.3466 225.568 33.3466 225.568C33.3466 225.568 39.5514 206.025 42.5941 194.269C45.6368 182.512 47.5061 169.107 48.6795 170.127C49.8528 171.146 50.5488 183.792 49.4948 197.349C48.4408 210.884 46.5714 224.05 46.5714 224.05C46.5714 224.05 49.3755 225.2 55.6001 225.07C61.8048 224.939 62.4014 223.66 62.4014 223.66C62.4014 223.66 67.6715 208.715 69.5409 190.061C71.4102 171.406 70.0182 150.323 70.0182 150.323C70.0182 150.323 55.5007 144.314 45.6566 146.484C35.8126 148.653 23.9799 153.902 23.9799 153.902Z" fill="#445F8E"/>
<path d="M25.9686 91.2803C25.9686 91.2803 35.0967 86.2914 44.4833 86.2914C53.8699 86.2914 60.2934 86.812 61.944 87.5712C63.5748 88.3303 70.1375 104.186 72.0267 117.721C73.916 131.257 72.7228 142.883 72.0267 148.392C71.3307 153.902 70.8534 155.55 70.8534 155.55C70.8534 155.55 62.9981 160.279 47.7845 159.628C32.5511 158.999 23.3037 155.03 23.3037 155.03C23.3037 155.03 26.1078 139.434 27.1618 130.237C28.2158 121.04 27.9771 114.771 27.6391 107.744C27.2811 100.716 26.0083 91.2586 26.0083 91.2586L25.9686 91.2803Z" fill="#F6DEBE"/>
<path d="M23.3434 135.183C23.3434 135.183 28.2753 135.009 30.7811 139.543C33.2868 144.054 31.8152 148.241 29.0907 150.496C26.3662 152.752 21.2154 152.015 20.7779 150.214C20.3404 148.414 21.295 147.156 20.7382 145.486C20.1813 143.816 17.9739 142.124 17.9739 142.124C17.9739 142.124 19.2665 134.228 23.3434 135.183Z" fill="#E9A17A"/>
<path d="M28.6532 111.214C28.6532 111.214 16.9199 118.698 15.7068 125.27C15.2892 127.547 17.5762 130.844 19.8234 132.428C21.9115 133.903 23.6616 134.792 23.6616 134.792C23.6616 134.792 24.3974 137.872 22.5081 141.95C20.599 146.028 19.6245 146.874 19.6245 146.874C19.6245 146.874 6.93665 143.382 2.32288 134.098C-2.2909 124.814 0.194973 112.299 7.7719 104.49C15.3687 96.6813 24.7355 90.7163 34.3806 88.2002C37.4432 87.3976 34.0227 94.7074 33.5056 100.065C32.9885 105.423 28.6731 111.192 28.6731 111.192L28.6532 111.214Z" fill="#F6DEBE"/>
<path d="M119.02 109.913C118.204 110.282 117.667 110.498 117.667 110.498C117.667 110.498 118.383 110.39 119.119 110.455C119.815 110.52 120.551 110.715 120.63 111.323C120.75 112.104 120.173 112.711 119.636 113.101C119.238 113.383 118.88 113.535 118.88 113.535C118.88 113.535 119.338 113.427 119.835 113.535C120.312 113.6 120.809 113.861 120.889 114.598C120.968 115.401 120.352 115.943 119.755 116.246C119.278 116.528 118.821 116.637 118.821 116.637C118.821 116.637 119.179 116.572 119.497 116.68C119.875 116.789 120.233 117.136 120.054 118.069C119.875 118.958 118.9 119.587 117.647 119.999C117.647 119.999 117.627 119.999 117.608 119.999C117.19 120.151 116.713 120.259 116.255 120.368C115.34 120.563 114.386 120.671 113.531 120.693C110.965 120.823 106.371 120.628 106.371 120.628C106.371 120.628 100.922 116.919 105.556 111.041C105.556 111.041 108.38 110.347 109.494 108.85C110.607 107.353 111.98 105.488 113.889 105.77C114.724 105.9 115.241 106.247 115.559 106.594C115.957 107.05 116.037 107.505 116.037 107.505C116.037 107.505 116.156 107.44 116.355 107.353C117.906 106.637 124.548 103.687 125.264 105.206C125.861 106.486 121.386 108.763 119.039 109.826L119.02 109.913Z" fill="#E9A17A"/>
<g style="mix-blend-mode:multiply">
<path d="M119.735 116.247C119.258 116.528 118.801 116.637 118.801 116.637C118.801 116.637 117.687 116.767 116.454 117.223C116.096 117.353 115.738 117.526 115.44 117.808C115.142 118.069 114.963 118.437 114.982 118.849C114.982 119.24 115.221 119.522 115.539 119.695C115.937 119.934 116.414 120.021 116.872 120.042C117.11 120.042 117.349 120.042 117.588 119.999C117.17 120.151 116.693 120.259 116.235 120.368C115.997 120.303 115.758 120.238 115.519 120.129C114.963 119.891 114.525 119.413 114.585 118.719C114.625 117.938 115.122 117.44 115.698 117.071C115.758 117.027 115.818 117.006 115.877 116.984C115.778 116.984 115.698 116.984 115.619 116.984C115.221 116.919 114.803 116.81 114.525 116.485C114.187 116.095 114.167 115.574 114.326 115.097C113.61 114.706 113.193 113.991 112.954 113.145C112.795 112.646 112.715 112.104 112.656 111.561C112.616 111.149 112.576 110.672 112.735 110.282C112.775 110.195 112.914 110.216 112.934 110.303C112.994 110.737 112.974 111.193 113.034 111.648C113.093 112.147 113.232 112.624 113.392 113.101C113.67 113.926 114.207 114.793 115.082 114.902C115.977 115.032 116.534 114.143 116.653 113.297C116.812 112.104 116.534 110.889 116.315 109.739C116.116 108.676 115.877 107.635 115.559 106.616C115.957 107.071 116.036 107.527 116.036 107.527C116.036 107.527 116.792 109.175 116.931 110.086C117.11 110.043 117.289 110 117.448 109.978C117.866 109.913 118.304 109.848 118.741 109.848C118.841 109.848 118.94 109.848 119.039 109.848C118.224 110.216 117.687 110.433 117.687 110.433C117.687 110.433 117.727 110.498 117.289 110.564C117.21 110.564 117.11 110.585 117.011 110.607C117.15 111.496 117.289 112.472 117.13 113.362C117.806 113.21 118.483 113.101 119.179 113.036C119.318 113.036 119.497 113.036 119.656 113.015C119.258 113.297 118.9 113.448 118.9 113.448C118.9 113.448 117.667 113.73 116.971 113.904C116.912 114.034 116.852 114.164 116.792 114.294C116.355 115.097 115.519 115.487 114.684 115.205C114.505 115.617 114.505 116.073 114.883 116.355C115.221 116.615 115.698 116.68 116.096 116.702C116.156 116.702 116.215 116.702 116.275 116.702C116.852 116.442 117.508 116.312 118.125 116.225C118.662 116.16 119.218 116.095 119.755 116.138L119.735 116.247Z" fill="#D1B6A7"/>
</g>
<path d="M105.874 122.472C105.874 122.472 101.181 127.461 87.9361 125.422C81.9701 124.511 77.0381 121.669 73.4386 118.849C72.9215 118.459 72.4442 118.047 71.9868 117.656C68.5066 114.663 66.6173 111.995 66.6173 111.995C66.6173 111.995 61.5859 104.208 60.2933 98.3298C59.0006 92.4516 59.2393 87.0939 59.2393 87.0939C59.2393 87.0939 65.2054 86.9638 71.43 91.5623C77.6347 96.1607 83.9588 104.208 91.0982 107.288C98.2376 110.347 104.8 108.698 104.8 108.698C104.8 108.698 105.496 110.997 105.735 115.075C105.974 119.175 105.854 122.493 105.854 122.493L105.874 122.472Z" fill="#F6DEBE"/>
<path d="M72.5834 114.923C72.0862 112.602 71.43 110.347 70.714 108.091C70.2566 106.659 69.7794 105.227 69.2623 103.818C68.9839 103.08 68.7253 102.321 68.427 101.605C68.1486 100.954 67.8901 99.9783 67.2537 99.6746C67.1543 99.6312 67.035 99.6095 66.9554 99.6746C66.8957 99.7397 66.8958 99.8265 66.8958 99.9132C66.9156 100.651 67.3333 101.171 67.5918 101.822C67.91 102.538 68.1486 103.319 68.427 104.056C68.964 105.553 69.481 107.05 69.9186 108.59C70.5351 110.715 71.0322 112.906 71.4896 115.075C71.6686 115.921 71.8277 116.789 72.0067 117.656C72.4641 118.047 72.9414 118.437 73.4584 118.849C73.2198 117.526 72.8618 116.181 72.6033 114.945L72.5834 114.923Z" fill="#BA917A"/>
<path d="M37.2244 83.0594L37.8409 97.1151C37.8409 97.1151 41.7188 103.189 47.6054 101.865C53.4919 100.542 53.9891 96.985 53.9891 96.985L52.3782 79.9142C52.3782 79.9142 45.4377 85.4671 37.2443 83.0594H37.2244Z" fill="#E9A17A"/>
<g style="mix-blend-mode:multiply">
<path d="M38.895 90.6512C42.2957 91.6924 45.8753 92.6685 49.4351 92.2347C50.8272 92.0611 52.1795 91.6273 53.4125 90.8898L52.3783 79.9142C52.3783 79.9142 45.4378 85.4671 37.2444 83.0594L37.5626 90.1957C38.02 90.3476 38.4774 90.4994 38.9348 90.6295L38.895 90.6512Z" fill="#D1B6A7"/>
</g>
<path d="M75.3079 52.2368C75.3079 52.2368 80.9956 48.1806 82.7059 51.1522C84.4162 54.1239 83.9588 57.7029 80.0013 60.1973C76.0438 62.6918 73.1602 61.7374 73.1602 61.7374L75.3079 52.2151V52.2368Z" fill="#E9A17A"/>
<path d="M14.9114 36.641C12.0079 47.7901 9.44251 73.2552 30.821 84.708C52.1994 96.1824 68.109 79.8058 74.791 62.5616C81.8111 44.363 75.9047 19.1582 71.5295 17.3578C48.7988 8.05245 20.8775 13.7571 14.9313 36.641H14.9114Z" fill="#E9A17A"/>
<path d="M47.0089 52.844C47.0089 52.844 47.0685 52.7573 47.0089 52.7573C46.9492 52.7573 46.9492 52.844 47.0089 52.844Z" fill="#423227"/>
<g style="mix-blend-mode:multiply">
<path d="M46.1736 49.7206C46.5912 50.8052 46.4123 52.1283 46.3924 53.2563C46.3924 54.4926 46.3128 55.8375 46.7305 57.0088C47.1282 58.115 48.0629 58.5922 49.1169 58.4838C50.2107 58.397 52.1596 57.4643 51.9011 59.5249C51.7619 60.6745 51.2249 61.6289 50.2902 62.2146C49.8328 62.5183 49.2959 62.6918 48.7589 62.7352C48.2816 62.7785 47.7447 62.6267 47.2873 62.8436C47.1083 62.9304 46.989 63.1907 47.1282 63.3642C47.685 64.1668 48.918 63.9499 49.6936 63.7329C50.6084 63.451 51.4635 62.8436 52.0204 62.0194C52.7562 60.9565 53.5716 58.1367 51.9806 57.3992C51.3243 57.0955 50.5488 57.204 49.8726 57.3775C49.3356 57.5077 48.6197 57.7896 48.1424 57.3124C47.3867 56.5316 47.506 54.8831 47.506 53.8419C47.506 52.3235 47.6254 50.6534 46.9492 49.2651C46.7106 48.7662 45.9151 49.2001 46.1338 49.7206H46.1736Z" fill="#D1B6A7"/>
</g>
<path d="M38.9746 67.1818C38.9746 67.1818 42.3554 69.0689 49.0374 69.1773C54.4665 69.2641 57.2109 67.3336 57.2109 67.3336C57.2109 67.3336 58.2053 77.1596 49.0573 78.2007C39.8894 79.2636 38.9746 67.1818 38.9746 67.1818Z" fill="#423227"/>
<path d="M44.9208 70.3269C47.0884 71.6717 49.9919 71.8886 52.3784 71.2379C53.492 70.9342 54.6455 70.392 55.4012 69.4376C55.7592 69.0038 56.0177 68.4832 56.137 67.8975C54.8841 68.4615 52.4977 69.2424 49.0175 69.1773C46.7106 69.1339 44.8014 68.8953 43.29 68.5699C43.648 69.3074 44.2446 69.8931 44.9208 70.3052V70.3269Z" fill="white"/>
<path d="M46.9692 77.4416C46.7306 76.3136 46.1737 75.2725 45.418 74.4916C44.6822 73.7324 43.7475 73.1902 42.7134 73.0383C42.0174 72.9516 41.3412 73.06 40.7048 73.342C41.8782 75.6846 43.847 77.8754 47.0885 78.2224C47.0687 77.9622 47.0289 77.7019 46.9692 77.4416Z" fill="#CE5456"/>
<path d="M34.7982 46.5755C34.0823 46.2501 33.3266 45.9898 32.5709 45.9898C31.7953 45.9898 31.0396 46.2718 30.3435 46.6188C27.9372 47.8335 26.0281 50.1328 25.153 52.8658C24.8945 53.6684 24.7155 54.536 24.7553 55.4036C24.7951 56.4014 25.0735 57.3558 25.4911 58.2451C27.0821 61.5422 30.7611 63.5377 34.1022 62.7785C37.2642 62.0627 40.1478 58.5271 40.3665 54.9698C40.5853 51.4993 37.5227 47.8769 34.8181 46.5971L34.7982 46.5755Z" fill="white"/>
<path d="M64.2706 45.2739C63.5547 44.9486 62.799 44.6883 62.0433 44.6883C61.2677 44.6883 60.512 44.9703 59.8159 45.3173C57.4096 46.532 55.5005 48.8313 54.6254 51.5643C54.3669 52.3669 54.1879 53.2345 54.2277 54.1021C54.2476 55.0999 54.5459 56.0543 54.9635 56.9436C56.5545 60.2406 60.2336 62.2362 63.5746 61.477C66.7366 60.7612 69.6202 57.2256 69.839 53.6683C70.0577 50.1978 66.9951 46.5754 64.2905 45.2956L64.2706 45.2739Z" fill="white"/>
<path d="M15.7863 59.8937C15.7863 59.8937 12.2862 55.1434 8.32872 57.6378C4.37122 60.1323 5.48489 66.4877 11.3714 67.7024C17.258 68.9171 18.0137 63.6679 18.0137 63.6679L15.7863 59.872V59.8937Z" fill="#E9A17A"/>
<path d="M69.0635 27.5091C69.0635 27.5091 73.4585 33.4958 74.8108 40.4152C76.1631 47.3346 76.5807 53.4948 76.5807 53.4948C76.5807 53.4948 81.1746 48.0504 81.811 40.7189C82.4076 34.0381 79.5638 26.2077 74.5125 24.7978C69.4612 23.3879 69.0635 27.5091 69.0635 27.5091Z" fill="#B0683F"/>
<path d="M68.3077 40.9358C67.8304 38.3979 65.1258 37.0531 62.9382 37.205C62.62 37.2266 62.3217 37.27 62.0234 37.3568C61.8643 37.4002 61.6853 37.4652 61.5262 37.5737C61.5262 37.5737 61.5262 37.5737 61.5064 37.5737C61.1882 37.8123 61.2081 37.8123 61.5859 37.5737C61.4666 37.6171 61.3473 37.6821 61.2279 37.7255C60.7705 37.9858 60.5319 38.5932 60.7904 39.1137C60.9296 39.374 61.1484 39.5476 61.4069 39.6343C61.4865 39.656 61.6456 39.6777 61.745 39.6777C62.0433 39.6777 61.4666 39.5259 61.5262 39.6126C61.6853 39.8078 62.0234 39.7862 62.2422 39.8078C62.5007 39.8295 61.9638 39.7645 62.2024 39.8078C62.3416 39.8078 62.4609 39.8512 62.6001 39.8729C62.7195 39.8729 62.8388 39.8729 62.9581 39.8946C62.9979 39.8946 63.0575 39.8946 63.0973 39.8946C62.7592 39.8946 62.9382 39.8729 63.0575 39.8946C63.1967 39.9163 63.3558 39.938 63.5149 39.9597C63.6939 40.0031 63.1769 39.8946 63.4354 39.9597C63.5547 39.9814 63.6542 40.0031 63.7735 40.0248C64.032 40.0898 64.2905 40.1549 64.5491 40.22C64.6684 40.2634 64.7877 40.2851 64.907 40.3284C64.9667 40.3284 65.0264 40.3718 65.086 40.3935C65.1258 40.3935 65.1457 40.4152 65.1854 40.4369C65.3048 40.4803 65.2849 40.4803 65.086 40.3935C65.2849 40.5453 65.5434 40.6538 65.7622 40.7839C65.8218 40.8273 66.0008 41.0225 66.0804 41.0225C65.961 41.0225 65.9213 40.8707 66.0406 41.0225C66.1002 41.0659 66.14 41.131 66.1997 41.1744C66.2991 41.2828 66.3787 41.3696 66.4582 41.478C66.498 41.5214 66.5179 41.5648 66.5576 41.5865C66.3787 41.3696 66.5775 41.6299 66.6173 41.695C67.194 42.6711 68.5265 42.042 68.3077 40.9141V40.9358Z" fill="#B0683F"/>
<path d="M32.1333 39.9814C32.014 39.8947 31.8947 39.7862 31.7554 39.7211C31.656 39.6561 31.5367 39.6127 31.4373 39.5693C31.2583 39.4825 31.5566 39.6561 31.3776 39.5259C31.0196 39.2656 30.423 39.2439 29.9855 39.309C29.2099 39.4174 28.4542 39.7428 27.7979 40.2417C27.082 40.8057 26.4854 41.413 25.9882 42.2156C25.9087 42.3674 25.8291 42.5192 25.7496 42.6711C25.6502 42.9097 25.5308 43.1917 25.5308 43.4736C25.5706 43.235 25.5905 43.1917 25.5308 43.3435V43.4303C25.4712 43.5604 25.4712 43.8858 25.4314 43.9508C25.4314 44.0376 25.4314 43.9942 25.4513 43.8207C25.4513 43.8641 25.4513 43.9075 25.4513 43.9292C25.4314 44.2328 25.3916 44.4714 25.4712 44.7534C25.5905 45.1872 26.028 45.4692 26.4456 45.3607C26.7241 45.274 26.9627 45.1005 27.2212 44.9486C27.3008 44.9052 27.4798 44.7317 27.5792 44.645C27.1616 44.8836 27.082 44.9486 27.3604 44.7968C27.5195 44.7317 27.6587 44.6449 27.7781 44.4931C27.8775 44.4063 27.9769 44.2979 28.0764 44.1894C28.5338 43.7339 28.9514 43.2134 29.4088 42.7578C29.4684 42.7145 29.5082 42.6494 29.5679 42.606C29.6077 42.5843 29.6275 42.5409 29.6673 42.5192C29.7469 42.4542 29.7071 42.4759 29.548 42.6277C29.6077 42.606 29.6673 42.5409 29.7071 42.4976C29.8065 42.4108 29.9258 42.324 30.0253 42.2373C30.1048 42.1722 30.1048 42.1722 30.0253 42.2373C29.8264 42.3674 30.0253 42.2373 30.0849 42.1939C30.1446 42.1505 30.2242 42.0854 30.2838 42.042C30.4031 41.9553 30.5225 41.8902 30.6617 41.8034C30.9202 41.6516 31.2185 41.4998 31.4373 41.3046C31.7753 41.0226 31.3577 41.3046 31.3577 41.3046C31.3577 41.3046 31.5566 41.2395 31.5765 41.2395C31.7157 41.1961 31.8549 41.1527 31.9941 41.1093C32.531 40.9792 32.4913 40.2634 32.1333 39.9597V39.9814Z" fill="#B0683F"/>
<path d="M12.8829 60.8697C12.8829 60.8697 17.079 55.2735 20.4399 46.185C23.8008 37.0965 23.7411 28.3551 23.7411 28.3551C23.7411 28.3551 30.3834 38.8318 38.3381 36.4675C46.2929 34.1032 39.77 26.4463 39.77 26.4463C39.77 26.4463 45.5372 33.7778 50.8868 32.4547C56.2563 31.1315 50.6482 24.711 50.6482 24.711C50.6482 24.711 64.211 35.9469 75.7455 30.4808C87.2799 25.0147 85.9873 12.3472 70.5351 5.44955C55.0829 -1.44815 46.452 9.33221 46.452 9.33221C46.452 9.33221 46.8299 -1.0794 39.9092 0.091905C32.9687 1.26321 29.0112 11.9785 29.0112 11.9785C29.0112 11.9785 28.5935 4.365 24.7156 7.2282C20.8376 10.0914 23.0849 20.1776 23.0849 20.1776C23.0849 20.1776 17.3972 9.72265 7.79179 18.7244C-1.8136 27.7261 2.18368 41.4998 4.7292 47.096C7.27473 52.6922 12.8829 60.8697 12.8829 60.8697Z" fill="#B0683F"/>
<path d="M36.8664 47.9419C35.7527 47.8118 34.6192 47.9419 33.6049 48.4842C30.5225 50.1761 29.8065 55.2084 31.5566 58.2234C32.4515 59.7634 33.8833 60.848 35.4544 61.4553C35.7527 61.5638 36.0709 61.6722 36.3891 61.7373C38.5369 60.284 40.2074 57.6161 40.3665 54.9481C40.5256 52.3669 38.8551 49.6772 36.8664 47.9419Z" fill="#423227"/>
<path d="M65.0662 45.7078C64.2309 45.7078 63.4156 45.8596 62.6201 46.2067C60.9098 46.9659 59.7961 48.5927 59.2194 50.4364C58.5631 52.5187 58.6427 54.5793 59.6569 56.5098C60.6314 58.3536 62.2024 59.8285 63.9525 60.7829C64.1514 60.8914 64.3701 60.9998 64.5889 61.1083C67.3333 59.9587 69.6203 56.8135 69.8191 53.625C70.018 50.5015 67.5322 47.2261 65.0662 45.6861V45.7078Z" fill="#423227"/>
<path d="M36.3891 54.5143C38.1392 54.883 38.6562 51.933 36.9062 51.5643C35.1561 51.1955 34.6391 54.1455 36.3891 54.5143Z" fill="white"/>
<path d="M65.9214 52.5838C67.6714 52.9526 68.1885 50.0026 66.4384 49.6339C64.6884 49.2651 64.1713 52.2151 65.9214 52.5838Z" fill="white"/>
<path d="M227.045 186.178C227.045 186.178 225.832 216.046 225.793 217.586C225.773 219.126 235.955 219.777 235.955 219.777C235.955 219.777 241.742 190.494 241.424 188.564C241.105 186.633 227.045 186.156 227.045 186.156V186.178Z" fill="#A9765A"/>
<path d="M253.893 189.887L253.714 216.523C253.714 216.523 256.876 218.063 259.68 217.868C262.484 217.673 264.254 216.719 264.254 216.719C264.254 216.719 267.237 194.681 267.237 189.887C267.237 185.093 254.768 188.347 253.873 189.887H253.893Z" fill="#A9765A"/>
<path d="M252.66 213.074C252.66 213.074 255.305 214.029 259.163 214.224C263.021 214.419 265.487 213.638 265.487 213.638C265.487 213.638 264.612 220.146 264.791 223.421C264.97 226.675 264.97 227.824 265.845 228.215C266.72 228.605 273.402 229.364 273.919 231.859C274.456 234.353 273.74 235.893 265.487 236.067C257.234 236.262 251.785 234.917 251.427 233.008C251.069 231.1 252.66 213.834 252.66 213.074Z" fill="#423227"/>
<path d="M266.123 227.217C265.586 227.022 264.97 226.935 264.413 227C263.856 227.065 263.339 227.282 262.862 227.586C262.384 227.889 261.967 228.28 261.609 228.735C261.251 229.169 260.873 229.69 260.714 230.254C260.654 230.471 260.873 230.622 261.052 230.536C261.489 230.297 261.828 229.885 262.186 229.538C262.543 229.212 262.882 228.887 263.279 228.605C264.075 228.063 264.99 227.781 265.924 228.041C266.421 228.193 266.64 227.369 266.143 227.195L266.123 227.217Z" fill="#B0683F"/>
<path d="M267.853 228.974C267.177 229.212 266.541 229.646 266.044 230.189C265.805 230.449 265.566 230.709 265.367 231.013C265.149 231.316 264.93 231.598 264.791 231.945C264.731 232.097 264.831 232.336 265.01 232.271C265.328 232.162 265.586 231.924 265.845 231.685C266.083 231.447 266.302 231.186 266.541 230.926C266.998 230.449 267.436 229.993 268.052 229.755C268.251 229.69 268.37 229.473 268.311 229.256C268.251 229.039 268.052 228.909 267.853 228.974Z" fill="#B0683F"/>
<path d="M225.156 213.617C225.156 213.617 227.662 214.918 231.48 215.591C235.299 216.263 237.824 215.829 237.824 215.829C237.824 215.829 236.253 222.185 236.074 225.438C235.895 228.692 235.776 229.842 236.611 230.34C237.446 230.839 243.989 232.466 244.248 235.004C244.506 237.542 243.631 238.973 235.418 238.106C227.205 237.238 221.935 235.199 221.795 233.247C221.656 231.295 225.097 214.376 225.176 213.617H225.156Z" fill="#423227"/>
<path d="M236.989 229.408C236.472 229.147 235.875 228.974 235.298 228.974C234.742 228.974 234.205 229.104 233.688 229.364C233.19 229.603 232.733 229.95 232.315 230.34C231.918 230.731 231.48 231.186 231.261 231.729C231.182 231.946 231.381 232.119 231.56 232.054C232.017 231.859 232.395 231.512 232.793 231.23C233.19 230.948 233.568 230.666 233.986 230.449C234.841 229.993 235.776 229.863 236.671 230.232C237.148 230.449 237.446 229.646 236.969 229.408H236.989Z" fill="#B0683F"/>
<path d="M238.5 231.36C237.804 231.49 237.128 231.859 236.571 232.336C236.313 232.553 236.054 232.791 235.816 233.052C235.577 233.312 235.318 233.572 235.139 233.898C235.06 234.05 235.139 234.288 235.318 234.245C235.657 234.18 235.935 233.984 236.213 233.768C236.492 233.572 236.73 233.334 236.989 233.117C237.506 232.683 237.983 232.314 238.6 232.162C238.799 232.119 238.938 231.924 238.918 231.707C238.898 231.49 238.699 231.317 238.5 231.36Z" fill="#B0683F"/>
<path d="M225.256 153.728C225.256 153.728 221.736 161.385 220.105 171.623C218.474 181.861 218.474 188.499 218.474 188.499C218.474 188.499 234.404 196.156 251.049 195.396C267.674 194.637 274.018 189.258 274.018 189.258L270.28 153.989C270.28 153.989 259.978 154.509 246.614 155.008C233.25 155.529 225.295 153.728 225.295 153.728H225.256Z" fill="#B0683F"/>
<path d="M279.428 103.319C275.908 88.1134 275.808 72.4309 274.456 56.9002C273.82 49.7206 272.169 42.3457 270.518 35.4046C268.888 28.5503 265.427 21.761 260.157 17.4663C249.518 8.78991 234.841 11.6314 224.321 18.2254C221.179 18.2254 211.931 20.0258 207.497 26.6632C203.479 32.6716 201.809 39.1354 201.809 46.2717C201.809 61.9542 204.156 77.3114 204.156 92.9071C204.156 100.846 203.778 107.83 201.709 115.357C204.891 116.572 208.948 116.507 212.349 116.854C216.804 117.309 221.298 117.96 225.753 118.589C234.165 119.76 243.293 120.953 251.785 119.695C258.248 118.741 264.353 117.678 270.459 115.032C273.243 113.817 275.729 112.06 278.195 110.238C280.72 108.373 280.183 106.594 279.448 103.34L279.428 103.319Z" fill="#423227"/>
<path d="M274.535 148.284C274.038 149.303 273.402 150.279 272.447 150.757C271.214 151.386 269.663 150.952 268.669 149.932C267.674 148.913 267.197 147.395 267.157 145.898C267.118 144.401 267.495 142.948 267.973 141.538C268.53 139.933 269.365 138.263 270.836 137.634C273.163 136.658 275.391 138.696 276.107 140.996C276.842 143.36 275.57 146.18 274.555 148.262L274.535 148.284Z" fill="#A9765A"/>
<path d="M257.83 87.7664C257.83 87.7664 273.183 88.1568 284.896 101.822C296.093 114.902 291.917 129.933 286.766 137.59C281.615 145.247 275.291 147.807 275.291 147.807C275.291 147.807 272.706 144.748 270.836 141.169C268.967 137.59 270.359 135.551 270.359 135.551C270.359 135.551 273.402 135.291 275.987 130.693C278.572 126.094 277.976 117.656 274.933 114.858C271.89 112.038 269.066 110.52 269.066 110.52L257.83 87.7664Z" fill="#E69430"/>
<path d="M228.935 112.19C228.935 112.19 217.201 119.674 215.988 126.246C215.571 128.523 217.858 131.82 220.105 133.404C222.193 134.879 223.943 135.768 223.943 135.768C223.943 135.768 224.679 138.848 222.79 142.926C220.9 147.004 219.906 147.85 219.906 147.85C219.906 147.85 207.218 144.358 202.604 135.074C197.991 125.79 200.476 113.275 208.053 105.466C215.65 97.6574 225.017 91.6924 234.662 89.1762C237.725 88.3737 234.304 95.6835 233.787 101.041C233.27 106.399 228.955 112.169 228.955 112.169L228.935 112.19Z" fill="#E69430"/>
<path d="M272.308 118.719C270.439 105.184 263.876 89.3281 262.225 88.5689C261.032 88.005 257.234 87.5928 251.606 87.3976C251.606 87.3976 251.606 87.3976 251.586 87.3976C250.91 87.3759 250.214 87.3542 249.498 87.3325C249.458 87.3325 249.418 87.3325 249.378 87.3325C248.762 87.3325 248.106 87.3109 247.449 87.3109C247.29 87.3109 247.131 87.3109 246.952 87.3109C246.236 87.3109 245.52 87.3109 244.765 87.3109C244.128 87.3109 243.512 87.3325 242.875 87.3759C242.836 87.3759 242.776 87.3759 242.736 87.3759C242.159 87.4193 241.583 87.4844 241.006 87.5495C240.946 87.5495 240.887 87.5495 240.807 87.5711C240.25 87.6362 239.693 87.7447 239.137 87.8314C239.077 87.8314 239.017 87.8314 238.958 87.8531C238.401 87.9616 237.824 88.07 237.287 88.2002C237.267 88.2002 237.227 88.2002 237.208 88.2002C236.054 88.4822 234.94 88.7858 233.886 89.1112C233.886 89.1112 233.847 89.1112 233.827 89.1112C233.33 89.263 232.832 89.4366 232.355 89.6101C232.355 89.6101 232.315 89.6101 232.296 89.6101C228.656 90.8898 226.23 92.213 226.23 92.213C226.23 92.213 227.523 101.67 227.861 108.698C228.219 115.726 228.437 121.995 227.383 131.191C226.329 140.388 223.525 155.984 223.525 155.984C223.525 155.984 232.773 159.954 248.006 160.583C263.24 161.212 271.075 156.483 271.075 156.483C271.075 156.483 271.552 154.813 272.248 149.325C272.944 143.837 274.118 132.211 272.248 118.654L272.308 118.719Z" fill="#E69430"/>
<path d="M223.625 136.137C223.625 136.137 228.557 135.963 231.063 140.497C233.568 145.009 232.097 149.195 229.372 151.451C226.648 153.707 221.497 152.969 221.059 151.169C220.622 149.368 221.576 148.11 221.02 146.44C220.463 144.77 218.255 143.078 218.255 143.078C218.255 143.078 219.548 135.183 223.625 136.137Z" fill="#A9765A"/>
<path d="M208.332 124.901C210.857 124.858 213.562 125.14 216.068 125.942C216.048 126.029 216.028 126.138 216.008 126.224C215.591 128.502 217.878 131.799 220.125 133.382C222.213 134.857 223.963 135.747 223.963 135.747C223.963 135.747 224.699 138.827 222.81 142.905C220.92 146.982 219.926 147.828 219.926 147.828C219.926 147.828 207.238 144.336 202.624 135.053C201.272 132.319 200.536 129.304 200.357 126.203C202.962 125.335 205.687 124.901 208.352 124.858L208.332 124.901Z" fill="#E69430"/>
<path d="M236.989 82.951L237.606 97.0066C237.606 97.0066 241.483 103.08 247.37 101.757C253.257 100.412 253.754 96.8765 253.754 96.8765L252.143 79.8058C252.143 79.8058 245.202 85.3586 237.009 82.951H236.989Z" fill="#A9765A"/>
<path d="M238.779 93.4927C238.779 93.4927 235.259 92.5383 233.867 98.4816C232.455 104.425 240.191 110.932 247.39 109.783C254.589 108.633 257.572 104.034 257.93 98.6768C258.288 93.3192 254.589 92.5383 249.498 92.3431C244.407 92.1479 238.779 93.4927 238.779 93.4927Z" fill="#A9765A"/>
<g style="mix-blend-mode:multiply">
<path d="M238.659 90.5428C242.06 91.5839 245.64 92.56 249.199 92.1262C250.592 91.9527 251.944 91.5188 253.177 90.7814L252.143 79.8058C252.143 79.8058 245.202 85.3586 237.009 82.951L237.327 90.0873C237.784 90.2391 238.242 90.3909 238.699 90.5211L238.659 90.5428Z" fill="#D1B6A7"/>
</g>
<path d="M272.905 48.7012C272.905 48.7012 278.095 43.9292 280.124 46.6406C282.172 49.3736 282.093 52.9743 278.433 55.9893C274.774 58.9827 271.811 58.4187 271.811 58.4187L272.885 48.7012H272.905Z" fill="#A9765A"/>
<path d="M211.216 41.2395C209.585 52.6923 209.863 78.3092 232.375 86.8337C254.887 95.3799 268.848 77.0078 273.521 59.0043C278.473 40.0248 269.763 15.7744 265.228 14.5814C241.643 8.37785 214.557 17.7483 211.216 41.2395Z" fill="#A9765A"/>
<path d="M244.864 53.061C244.864 53.061 244.924 52.9742 244.864 52.9742C244.804 52.9742 244.804 53.061 244.864 53.061Z" fill="#423227"/>
<g style="mix-blend-mode:multiply">
<path d="M243.711 50.0677C244.248 51.0871 244.208 52.4319 244.327 53.5599C244.466 54.7746 244.546 56.1411 245.083 57.2473C245.6 58.2885 246.574 58.6355 247.609 58.3969C248.682 58.1583 250.512 56.987 250.472 59.0477C250.472 60.1973 250.035 61.2168 249.18 61.9325C248.762 62.2796 248.245 62.5399 247.728 62.6484C247.251 62.7568 246.714 62.67 246.296 62.9303C246.117 63.0388 246.037 63.2991 246.197 63.4726C246.833 64.1884 248.046 63.8197 248.782 63.4726C249.657 63.0822 250.432 62.3664 250.91 61.4554C251.506 60.3057 252.004 57.3992 250.353 56.8786C249.677 56.6617 248.901 56.8786 248.265 57.1389C247.748 57.3341 247.052 57.7245 246.555 57.3124C245.699 56.64 245.64 54.9698 245.54 53.9503C245.381 52.4319 245.302 50.7618 244.466 49.482C244.168 49.0048 243.432 49.5471 243.711 50.046V50.0677Z" fill="#D1B6A7"/>
</g>
<path d="M233.25 48.4408C232.514 48.2022 231.739 48.0504 230.963 48.1588C230.187 48.2673 229.472 48.636 228.815 49.0698C226.568 50.5882 224.917 53.126 224.361 55.9458C224.202 56.7918 224.122 57.6594 224.241 58.5054C224.38 59.4815 224.778 60.4142 225.295 61.2167C227.244 64.2751 231.102 65.7718 234.344 64.5788C237.406 63.4509 239.872 59.5682 239.693 55.9892C239.514 52.5187 236.074 49.3301 233.25 48.4191V48.4408Z" fill="white"/>
<path d="M231.003 64.9259C231.221 64.7957 231.44 64.6439 231.659 64.492C233.17 63.3858 234.563 61.8891 235.159 59.9803C235.796 57.9414 235.159 55.6639 233.827 54.1238C232.673 52.779 230.744 52.1499 229.113 51.9764C228.04 51.8679 226.826 51.9113 225.792 52.3668C225.136 53.4731 224.639 54.6878 224.38 55.9675C224.221 56.8135 224.142 57.6811 224.261 58.527C224.4 59.5031 224.798 60.4358 225.315 61.2384C226.608 63.2773 228.775 64.6222 231.023 64.9259H231.003Z" fill="#423227"/>
<path d="M261.171 43.2567C260.436 43.0181 259.66 42.8663 258.884 42.9747C258.109 43.0832 257.393 43.4519 256.737 43.8858C254.489 45.4041 252.839 47.9419 252.282 50.7618C252.123 51.6077 252.043 52.4753 252.163 53.3213C252.302 54.2974 252.7 55.2301 253.217 56.0326C255.166 59.0911 259.024 60.5877 262.265 59.3947C265.328 58.2668 267.794 54.3841 267.615 50.8051C267.436 47.3346 263.995 44.146 261.171 43.235V43.2567Z" fill="white"/>
<path d="M260.595 59.7635C261.171 59.1995 261.669 58.5271 262.046 57.7896C263.439 54.9698 262.802 51.3908 260.873 49.0699C259.899 47.8985 258.606 47.0309 257.174 46.7706C256.001 46.5537 254.828 46.7272 253.734 47.1394C253.058 48.2456 252.541 49.482 252.282 50.7834C252.123 51.6294 252.043 52.497 252.163 53.343C252.302 54.319 252.7 55.2518 253.217 56.0543C254.828 58.5921 257.771 60.0237 260.595 59.7635Z" fill="#423227"/>
<path d="M227.145 58.115C228.915 58.2452 229.094 55.2518 227.324 55.1217C225.554 54.9915 225.375 57.9849 227.145 58.115Z" fill="white"/>
<path d="M255.126 53.0177C256.896 53.1478 257.075 50.1545 255.305 50.0243C253.535 49.8942 253.356 52.8875 255.126 53.0177Z" fill="white"/>
<path d="M214.676 64.2102C214.676 64.2102 210.678 59.9587 207.019 62.9521C203.36 65.9454 205.19 72.1056 211.156 72.5394C217.122 72.9733 217.301 67.659 217.301 67.659L214.676 64.1885V64.2102Z" fill="#A9765A"/>
<path d="M264.672 38.3546C264.234 36.923 262.961 35.9903 261.689 35.5782C260.933 35.3396 260.177 35.2745 259.402 35.3613C258.705 35.4263 257.691 35.6216 257.313 36.3374C257.453 36.2072 257.572 36.0988 257.711 35.9686C257.612 36.0337 257.512 36.0988 257.393 36.1638C257.055 36.4024 256.776 36.7929 256.876 37.2701C256.876 37.3568 256.916 37.4436 256.955 37.5087C257.154 37.9425 257.532 38.0943 257.95 38.0726C258.009 38.0726 258.328 38.0726 258.049 38.0726C257.89 38.0076 257.711 37.9425 257.552 37.8774C257.91 38.0943 258.228 38.1377 258.626 38.1377C258.765 38.1377 258.924 38.1377 259.063 38.116C259.223 38.116 258.785 38.116 259.004 38.116C259.143 38.116 259.262 38.116 259.402 38.116C259.938 38.116 260.475 38.1811 261.012 38.2462C261.112 38.2462 261.311 38.3546 261.41 38.3112C261.37 38.3112 261.132 38.2462 261.311 38.3112C261.39 38.3329 261.47 38.3546 261.549 38.3763C261.788 38.4631 262.007 38.5715 262.225 38.68C262.424 38.7667 262.265 38.6583 262.206 38.6583C262.225 38.6583 262.345 38.7451 262.365 38.7667C262.464 38.8318 262.583 38.9186 262.683 39.0053C262.782 39.0921 262.862 39.1789 262.961 39.2656C263.041 39.3524 262.842 39.1138 262.961 39.2656C263.021 39.3307 263.061 39.3958 263.12 39.4608C263.419 39.8513 263.956 39.9164 264.333 39.6561C264.751 39.3524 264.831 38.8752 264.672 38.3763V38.3546Z" fill="#423227"/>
<path d="M228.795 42.3457C228.557 42.1939 228.338 42.0854 228.079 42.0204C227.582 41.8902 227.92 41.977 227.92 41.977C227.92 41.977 227.801 41.9119 227.781 41.9119C227.602 41.8251 227.423 41.8251 227.224 41.8251C226.787 41.8251 226.449 41.8902 226.031 42.0637C225.792 42.1505 225.574 42.259 225.355 42.3891C224.818 42.7145 224.361 43.1266 223.943 43.6255C223.446 44.1894 223.008 44.8402 222.75 45.556C222.71 45.6861 222.65 45.8163 222.63 45.9464C222.571 46.1416 222.511 46.5537 222.571 46.7707C222.471 46.467 222.65 46.0115 222.571 46.3585C222.511 46.6622 222.491 46.8791 222.511 47.2045C222.531 47.4214 222.511 46.9008 222.511 47.1177C222.511 47.2479 222.511 47.4431 222.511 47.5732C222.611 48.2023 223.128 48.5927 223.704 48.3541C223.844 48.289 223.963 48.2239 224.062 48.1155C224.082 48.0938 224.162 48.0287 224.182 48.007C224.023 48.1155 223.983 48.1372 224.082 48.0721C224.182 48.007 224.281 47.942 224.361 47.8769C224.46 47.7901 224.559 47.66 224.639 47.5515C224.858 47.2912 224.619 47.7034 224.361 47.7901C224.639 47.7034 224.858 47.3563 225.037 47.1394C225.196 46.9225 225.355 46.7056 225.514 46.4887C225.653 46.2935 225.812 46.0982 225.971 45.8813C226.051 45.7729 226.131 45.6644 226.21 45.556C226.25 45.5126 226.29 45.4475 226.329 45.4041C226.489 45.2089 226.051 45.7078 226.31 45.4475C226.707 45.0137 227.125 44.6233 227.562 44.2545C227.642 44.1894 227.761 44.1027 227.841 44.0376C227.622 44.2545 227.721 44.1244 227.801 44.0593C227.9 44.0159 228 43.9508 228.06 43.8641C228.278 43.6038 228.298 43.5821 228.139 43.7773C228.278 43.6472 227.94 43.8641 228.139 43.7773C228.199 43.7339 228.278 43.7122 228.338 43.6689C228.457 43.6038 228.577 43.5604 228.696 43.4953C229.094 43.3435 229.133 42.6277 228.776 42.4108L228.795 42.3457Z" fill="#423227"/>
<path d="M239.475 68.8086C239.475 68.8086 242.856 70.6957 249.538 70.8041C254.967 70.8909 257.711 68.9604 257.711 68.9604C257.711 68.9604 258.706 78.7864 249.558 79.8276C240.39 80.8904 239.475 68.8086 239.475 68.8086Z" fill="#423227"/>
<path d="M245.441 71.9537C247.609 73.2986 250.512 73.5155 252.899 72.8647C254.012 72.5611 255.166 72.0188 255.921 71.0644C256.279 70.6306 256.538 70.11 256.657 69.5244C255.404 70.0883 253.018 70.8692 249.538 70.8041C247.231 70.7607 245.322 70.5221 243.81 70.1968C244.168 70.9343 244.765 71.5199 245.441 71.932V71.9537Z" fill="white"/>
<path d="M247.489 79.0683C247.251 77.9404 246.694 76.8993 245.938 76.1184C245.202 75.3592 244.268 74.8169 243.233 74.6651C242.537 74.5783 241.861 74.6868 241.225 74.9688C242.398 77.3114 244.367 79.5021 247.609 79.8492C247.589 79.5889 247.549 79.3286 247.489 79.0683Z" fill="#CE5456"/>
<path d="M276.445 28.7022C273.839 14.7115 261.37 3.1937 248.006 4.90728C242.577 5.60139 237.327 7.20651 232.335 9.63589C227.403 12.0219 221.557 16.0347 219.469 21.8262C217.858 20.1993 215.332 21.132 213.622 22.26C206.721 26.8584 205.269 37.3568 206.105 45.4041C206.463 48.8313 207.576 52.2367 208.571 55.4687C209.684 59.1344 210.798 62.9303 212.448 66.3575C212.826 67.1601 213.86 66.5744 213.721 65.8152C214.914 63.863 215.571 61.5204 216.187 59.308C217.122 55.8808 217.818 52.3886 218.434 48.8964C219.568 42.3674 220.483 35.73 220.821 29.0926C220.861 28.2683 220.92 27.3573 220.9 26.4463C223.386 29.0709 226.389 31.1532 229.432 32.8668C233.23 35.0142 237.446 36.7712 241.742 37.0098C242.12 37.0315 242.498 36.5542 242.358 36.1421C241.145 32.8451 239.733 29.6566 238.262 26.5114C244.427 27.1404 250.612 28.225 256.478 30.4157C261.311 32.2161 265.586 35.101 268.569 39.7211C270.578 42.8446 272.01 46.4453 273.124 50.046C273.303 50.6099 273.959 50.6967 274.257 50.1978C277.916 44.0376 277.737 35.5998 276.445 28.6588V28.7022Z" fill="#423227"/>
</svg>
