<svg width="307" height="239" viewBox="0 0 307 239" fill="none" xmlns="http://www.w3.org/2000/svg">
<path d="M110.675 89.7892C110.675 89.7892 103.753 90.5885 97.4089 101.022C91.065 111.456 87.1948 126.988 88.9503 139.323C90.7059 151.658 97.5286 161.077 99.6432 163.237C101.758 165.397 104.112 168.076 104.112 168.076L112.929 159.543C112.929 159.543 105.409 146.193 103.872 138.157C102.336 130.142 106.226 121.998 108.341 119.968C110.456 117.937 114.107 115.388 114.107 115.388C114.107 115.388 113.967 88.4714 110.695 89.7676L110.675 89.7892Z" fill="#7198B5"/>
<path d="M152.29 159.5C153.906 157.426 155.462 155.179 156.339 152.608C157.317 149.757 157.217 146.668 156.718 143.73C156.22 140.749 155.342 137.789 155.262 134.743C155.262 134.722 155.262 134.7 155.262 134.679C154.145 128.695 154.584 122.214 154.584 115.755C154.584 108.886 153.108 103.852 149.357 97.1124C145.746 90.6317 138.086 88.3419 138.086 88.3419C138.086 88.3419 142.076 121.674 142.076 132.756C142.076 142.736 145.806 161.422 148.08 164.425C149.517 162.826 150.953 161.249 152.29 159.543V159.5Z" fill="#7198B5"/>
<path d="M129.727 216.508C129.727 216.508 127.393 224.393 127.393 228.346C127.393 232.299 127.054 232.688 132.141 233.898C137.228 235.107 142.634 236.058 146.385 235.302C150.115 234.524 150.414 232.472 148.599 231.025C146.784 229.556 142.415 228.065 141.198 226.704C139.981 225.343 140.879 220.051 141.198 219.143C141.517 218.236 133.617 213.678 129.707 216.508H129.727Z" fill="#7198B5"/>
<path d="M101.459 217.847C101.459 217.847 98.4263 225.451 98.0672 229.383C97.7081 233.314 97.349 233.66 102.296 235.41C107.244 237.16 112.55 238.672 116.341 238.305C120.131 237.937 120.61 235.928 118.934 234.287C117.259 232.645 113.049 230.701 111.972 229.21C110.875 227.741 112.251 222.557 112.65 221.692C113.049 220.828 105.608 215.471 101.459 217.847Z" fill="#7198B5"/>
<path d="M103.973 154.25C103.973 154.25 103.394 157.426 103.494 165.44C103.593 173.455 103.254 187.323 101.738 197.757C100.202 208.191 97.7483 223.075 97.7483 223.075C97.7483 223.075 100.222 225.235 106.087 225.754C111.972 226.272 113.369 225.624 113.369 225.624C113.369 225.624 119.593 206.16 122.645 194.452C125.697 182.744 127.573 169.393 128.75 170.409C129.927 171.424 130.625 184.018 129.568 197.52C128.51 210.999 126.635 224.112 126.635 224.112C126.635 224.112 129.448 225.257 135.692 225.127C141.936 224.998 142.515 223.723 142.515 223.723C142.515 223.723 147.801 208.839 149.677 190.261C151.552 171.683 149.298 151.42 149.298 151.42C149.298 151.42 135.592 144.702 125.717 146.862C115.842 149.023 103.973 154.25 103.973 154.25Z" fill="#82342A"/>
<path d="M139.901 99.9423C139.243 95.8595 137.467 92.1871 135.053 89.098C133.916 88.4499 132.759 87.9098 131.443 87.6074C130.445 87.3698 129.428 87.2402 128.41 87.2402C127.513 87.2402 126.675 87.413 125.817 87.5426C125.558 87.5858 125.378 87.2186 125.617 87.0458C125.697 87.0025 125.777 86.9593 125.857 86.9161C125.418 86.9161 124.999 86.9161 124.56 86.9161C119.373 86.9161 114.246 88.4283 110.715 89.7892C110.296 92.9 110.595 96.0971 111.314 99.1214C112.092 102.362 113.309 105.472 114.825 108.389C116.201 111.046 117.897 113.66 119.872 115.82C121.887 118.045 124.381 119.838 127.273 120.248C130.146 120.659 132.999 119.708 135.173 117.635C137.348 115.539 138.684 112.688 139.442 109.685C140.24 106.509 140.44 103.161 139.921 99.9207L139.901 99.9423Z" fill="white"/>
<path d="M150.335 155.46C150.395 153.818 150.494 152.176 150.594 150.556C150.774 147.597 151.013 144.637 151.212 141.678C151.791 132.13 151.532 122.43 149.956 112.99C149.178 108.259 148.041 103.55 146.504 99.0349C145.208 95.2113 144.908 94.3688 143.013 90.8476C134.196 85.8791 133.318 86.916 124.54 86.916C115.144 86.916 105.967 91.8845 105.967 91.8845C105.967 91.8845 107.264 101.303 107.603 108.302C107.962 115.301 108.182 121.544 107.124 130.704C106.067 139.863 103.254 155.395 103.254 155.395C103.254 155.395 112.531 159.348 127.812 159.975C140.54 160.515 148.1 157.339 150.275 156.259C150.275 156 150.295 155.741 150.315 155.482L150.335 155.46ZM135.213 107.179C134.834 108.367 134.395 109.534 133.876 110.657C133.258 112.018 132.48 113.444 131.243 114.243C128.71 115.885 126.076 113.53 124.381 111.607C122.545 109.512 121.049 107.114 119.353 104.911C117.598 102.621 115.742 100.266 114.546 97.5659C114.067 96.4642 113.648 95.2329 113.728 94.0016C113.807 92.8566 114.366 91.7765 115.164 91.0421C117.039 89.2923 119.792 89.4003 122.086 89.7243C124.44 90.07 126.715 90.718 129.029 91.2581C131.143 91.1717 133.318 91.7117 134.734 93.5047C136.071 95.2113 136.49 97.5227 136.47 99.7046C136.47 102.254 135.951 104.803 135.193 107.201L135.213 107.179Z" fill="#7198B5"/>
<path d="M118.515 112.99C115.064 113.163 111.613 113.163 108.182 112.817C108.062 112.817 107.942 112.774 107.803 112.774C107.743 111.305 107.683 109.836 107.603 108.324C107.603 108.281 107.603 108.238 107.603 108.173C109.139 108.389 110.695 108.54 112.251 108.648C115.563 108.907 118.914 108.994 122.226 108.864C122.904 109.814 123.622 110.743 124.38 111.607C124.6 111.867 124.839 112.126 125.099 112.385C122.904 112.623 120.73 112.882 118.515 112.99Z" fill="#A2CB9C"/>
<path d="M150.534 117.159C148.42 117.915 146.245 118.542 144.091 119.082C140.44 119.967 136.729 120.572 132.999 120.94C125.418 121.652 117.757 121.415 110.197 120.464C109.419 120.378 108.641 120.27 107.882 120.162C107.843 122.301 107.723 124.59 107.503 127.053C112.591 128.004 117.698 128.824 122.864 129.127C126.834 129.364 130.804 129.321 134.774 128.954C138.465 128.608 142.016 127.615 145.547 126.448C147.442 125.822 149.317 125.174 151.232 124.59C151.073 122.106 150.853 119.643 150.554 117.181L150.534 117.159Z" fill="#A2CB9C"/>
<path d="M147.841 103.463C146.046 104.241 144.21 104.911 142.355 105.516C139.981 106.272 137.567 106.877 135.133 107.373C134.774 108.497 134.355 109.598 133.876 110.657C133.737 110.959 133.597 111.24 133.438 111.543C135.632 111.305 137.826 111.046 140.001 110.679C142.056 110.333 144.11 109.966 146.065 109.166C147.023 108.778 147.981 108.367 148.958 107.978C148.619 106.466 148.26 104.954 147.841 103.463Z" fill="#A2CB9C"/>
<path d="M116.74 84.0863L117.358 98.1062C117.358 98.1062 121.249 104.155 127.154 102.837C133.059 101.519 133.557 97.9765 133.557 97.9765L131.941 80.9756C131.941 80.9756 124.979 86.5058 116.76 84.1079L116.74 84.0863Z" fill="#B0683F"/>
<g style="mix-blend-mode:multiply">
<path d="M118.436 91.6471C121.847 92.684 125.438 93.6561 129.009 93.224C130.405 93.0512 131.762 92.6192 132.999 91.8847L131.961 80.954C131.961 80.954 124.999 86.4841 116.78 84.0863L117.099 91.1934C117.558 91.3446 118.017 91.4959 118.475 91.6255L118.436 91.6471Z" fill="#AEA7A2"/>
</g>
<path d="M153.367 51.9853C153.367 51.9853 158.893 47.6648 160.728 50.5379C162.584 53.411 162.265 56.997 158.394 59.6757C154.524 62.3544 151.612 61.5551 151.612 61.5551L153.367 51.9853Z" fill="#B0683F"/>
<path d="M92.1824 39.4776C89.7486 50.7107 88.2523 76.1798 110.157 86.5056C132.061 96.8315 147.323 79.7657 153.267 62.2679C159.532 43.8196 149.976 21.0077 145.507 19.4307C122.346 11.3083 97.1697 16.4064 92.1824 39.4776Z" fill="#B0683F"/>
<path d="M125.019 53.9727C125.019 53.9727 125.079 53.8863 125.019 53.8863C124.959 53.8863 124.959 53.9727 125.019 53.9727Z" fill="#423227"/>
<g style="mix-blend-mode:multiply">
<path d="M124.062 50.9268C124.52 51.9853 124.401 53.303 124.441 54.4264C124.481 55.6577 124.481 56.997 124.939 58.1419C125.378 59.2221 126.336 59.6325 127.393 59.5029C128.47 59.3517 130.405 58.3364 130.226 60.3886C130.126 61.5335 129.627 62.5056 128.73 63.1537C128.271 63.4777 127.752 63.6721 127.234 63.7585C126.755 63.8233 126.216 63.6937 125.777 63.9313C125.598 64.0177 125.498 64.277 125.638 64.4714C126.236 65.2491 127.453 64.9682 128.231 64.709C129.129 64.385 129.967 63.7369 130.505 62.8944C131.184 61.7927 131.882 58.9412 130.266 58.2932C129.588 58.0339 128.81 58.1851 128.151 58.3796C127.613 58.5308 126.914 58.8548 126.416 58.4012C125.618 57.6451 125.677 56.0033 125.638 54.988C125.578 53.4759 125.638 51.8125 124.88 50.4515C124.62 49.9547 123.842 50.4299 124.082 50.9484L124.062 50.9268Z" fill="#AEA7A2"/>
</g>
<path d="M112.531 48.3561C111.813 48.0537 111.035 47.8377 110.276 47.8809C109.498 47.9241 108.76 48.2265 108.062 48.6153C105.708 49.9331 103.873 52.3309 103.115 55.0744C102.895 55.8953 102.756 56.7594 102.815 57.6019C102.895 58.5956 103.214 59.5245 103.673 60.3886C105.409 63.5857 109.159 65.4003 112.491 64.4714C115.623 63.6073 118.376 59.9349 118.436 56.3705C118.496 52.9142 115.284 49.4578 112.511 48.3129L112.531 48.3561Z" fill="white"/>
<path d="M142.016 45.591C141.298 45.2886 140.52 45.0725 139.762 45.1157C138.984 45.1589 138.246 45.4614 137.547 45.8502C135.193 47.1679 133.358 49.5658 132.6 52.3093C132.381 53.1302 132.241 53.9943 132.301 54.8367C132.381 55.8304 132.7 56.7593 133.159 57.6234C134.894 60.8206 138.645 62.6351 141.976 61.7062C145.108 60.8422 147.861 57.1698 147.921 53.6054C147.981 50.1491 144.769 46.6927 141.996 45.5478L142.016 45.591Z" fill="white"/>
<path d="M94.0375 62.5704C94.0375 62.5704 90.3469 58.0123 86.4767 60.691C82.6065 63.3696 84.0029 69.6343 89.9479 70.5632C95.8928 71.4921 96.4314 66.2211 96.4314 66.2211L94.0375 62.5704Z" fill="#B0683F"/>
<path d="M144.19 41.897C144.29 41.9834 144.051 41.681 144.19 41.897C144.15 41.8538 144.11 41.789 144.07 41.7458C143.991 41.6594 143.911 41.573 143.851 41.4866C143.851 41.4866 143.632 41.2489 143.612 41.2489C143.612 41.2489 143.811 41.4002 143.672 41.2921C143.592 41.2489 143.532 41.1841 143.452 41.1409C143.352 41.0761 143.273 41.0113 143.173 40.9681C143.093 40.9249 142.893 40.8601 142.834 40.7953C142.834 40.7953 143.113 40.9033 142.913 40.8385C142.874 40.8385 142.814 40.7953 142.774 40.7737C142.634 40.7305 142.514 40.6873 142.375 40.6441C142.135 40.5793 141.896 40.5361 141.657 40.4929C141.537 40.4713 141.437 40.4497 141.317 40.4281C141.258 40.4281 141.178 40.4281 141.118 40.3849C141.258 40.4281 141.377 40.4281 141.158 40.3849C140.679 40.3416 140.2 40.32 139.741 40.2768C139.522 40.2768 139.323 40.2336 139.103 40.1472C138.664 39.9528 139.542 40.1472 139.243 40.1688C139.203 40.1688 139.143 40.1688 139.103 40.1688C138.505 40.1256 137.986 39.5856 138.165 38.9159C138.245 38.6135 138.445 38.3974 138.684 38.2462C138.724 38.2462 138.764 38.1814 138.804 38.1814C138.724 38.2678 138.644 38.3758 138.564 38.4623L138.744 38.2246C138.983 37.9438 139.422 37.7926 139.761 37.7062C140.34 37.5766 140.918 37.555 141.497 37.5982C142.195 37.663 142.774 37.8358 143.412 38.1382C144.589 38.6999 145.567 39.7152 145.886 41.0761C146.006 41.5514 145.786 42.0698 145.347 42.2642C144.888 42.4587 144.469 42.2642 144.19 41.8538V41.897Z" fill="#423227"/>
<path d="M109.478 43.1068C109.339 43.15 109.219 43.1932 109.079 43.258C109.04 43.258 108.92 43.3228 108.88 43.3444C109.099 43.1716 109.159 43.15 109.079 43.2148C109.06 43.2148 109.04 43.258 109.02 43.2796C108.76 43.5173 108.441 43.7117 108.162 43.8845C108.042 43.9709 107.902 44.0573 107.783 44.1437C107.683 44.2301 107.583 44.3814 107.803 44.1221C107.763 44.1653 107.703 44.2085 107.663 44.2517C107.424 44.4678 107.184 44.6838 106.965 44.8998C106.526 45.3535 106.147 45.8935 105.708 46.3472C105.608 46.4552 105.489 46.5848 105.389 46.6928C105.309 46.7576 105.209 46.844 105.13 46.9088C105.01 46.9736 105.05 46.9304 105.209 46.8224C105.209 46.8656 105.09 46.952 105.05 46.9736C105.05 46.9736 104.731 47.2545 104.711 47.2329C104.711 47.2329 104.91 47.06 104.731 47.2113C104.531 47.3841 104.351 47.5137 104.112 47.5785C103.813 47.6649 103.374 47.5353 103.234 47.1896C103.055 46.736 103.055 46.2391 103.135 45.7639C103.155 45.6559 103.214 45.3103 103.174 45.7639C103.174 45.5911 103.194 45.4183 103.254 45.2454C103.314 45.0078 103.434 44.7486 103.554 44.5326C103.913 43.7765 104.491 43.1284 105.11 42.61C105.808 42.0267 106.586 41.5299 107.464 41.4002C107.922 41.3354 108.461 41.3138 108.88 41.5731C109.06 41.7027 108.74 41.5299 108.92 41.5947C108.98 41.5947 109.06 41.6379 109.119 41.6595C109.319 41.7459 109.478 41.8323 109.658 41.9619C110.057 42.2643 110.017 42.9556 109.518 43.1068H109.478Z" fill="#423227"/>
<path d="M114.645 49.6307C113.528 49.5659 112.391 49.7171 111.413 50.322C108.401 52.1582 107.882 57.2131 109.777 60.1078C110.735 61.5983 112.231 62.6136 113.827 63.1321C114.126 63.2401 114.446 63.3049 114.765 63.3697C116.859 61.8143 118.416 59.0925 118.455 56.4138C118.515 53.8215 116.72 51.2509 114.665 49.6307H114.645Z" fill="#423227"/>
<path d="M142.814 46.0014C141.976 46.0446 141.158 46.239 140.38 46.6063C138.704 47.4271 137.647 49.1121 137.148 50.9915C136.59 53.1085 136.749 55.1391 137.846 57.0185C138.904 58.8115 140.54 60.1941 142.315 61.0582C142.535 61.1662 142.754 61.2526 142.973 61.339C145.667 60.0428 147.841 56.8025 147.901 53.627C147.961 50.5163 145.347 47.3839 142.794 45.9798L142.814 46.0014Z" fill="#423227"/>
<path d="M114.466 56.176C116.221 56.4569 116.62 53.4973 114.865 53.2165C113.109 52.9357 112.71 55.8952 114.466 56.176Z" fill="white"/>
<path d="M143.971 52.8062C145.726 53.087 146.125 50.1275 144.37 49.8466C142.614 49.5658 142.215 52.5253 143.971 52.8062Z" fill="white"/>
<path d="M79.8536 36.0213C80.0331 34.4227 80.7114 32.9753 81.7687 31.852C82.4669 31.1175 83.3447 30.5775 84.0828 29.8862C83.7038 27.8988 82.9457 25.9762 83.225 23.924C83.4245 22.3686 84.1826 20.9861 85.3396 20.0356C87.2747 18.437 90.1275 17.9834 92.5613 18.5234C92.5613 16.8601 92.5214 15.1967 92.9803 13.5981C93.5388 11.6539 94.9154 10.3146 96.7108 9.73134C99.7431 8.73763 103.593 9.60172 106.027 11.9132C106.526 8.19758 108.162 4.5252 111.812 3.5531C115.603 2.55939 118.476 5.08686 120.67 8.06796C121.927 3.98514 126.834 1.00403 130.545 1.45768C134.495 1.93293 137.088 5.10846 138.465 8.86725C141.018 7.09586 144.071 5.97255 147.103 6.62061C149.676 7.18227 151.153 9.4073 152.13 11.9132C152.848 13.771 153.267 15.7584 153.626 17.7242C153.706 18.1994 153.786 18.6747 153.846 19.1715C153.886 19.4739 153.846 20.122 154.005 20.3812C154.265 20.8565 155.262 20.9429 155.701 21.0509C157.018 21.3965 158.315 21.8286 159.212 22.9951C160.11 24.1616 160.609 25.6306 160.788 27.1427C161.227 30.9663 159.811 34.5739 157.856 37.6414C159.93 39.5424 161.227 42.1995 160.689 45.1806C159.691 50.6244 154.903 52.6982 154.764 52.6118C153.188 51.7045 152.21 47.7729 151.731 45.9799C151.133 43.7981 151.292 41.5082 152.25 39.5208C148.38 38.1383 147.801 32.5865 148.619 28.4389C145.308 30.4263 140.919 29.6918 138.664 26.3219C137.827 27.942 135.832 28.9357 134.236 29.1733C131.842 29.5406 129.488 28.6981 127.892 26.8187C127.273 29.3678 125.238 30.8367 122.645 31.0311C121.029 31.1391 119.274 31.0743 117.718 30.5775C117.059 30.3615 116.421 30.0806 115.842 29.7134C115.264 29.3678 114.845 28.8493 114.366 28.3957C113.648 30.9447 111.174 32.7809 108.9 33.4074C106.486 34.0554 103.793 33.9906 101.558 32.8025C101.758 34.7899 101.259 36.8205 99.803 38.1815C98.4464 39.456 96.7706 39.6072 95.1946 39.132C95.8929 40.7305 96.3717 42.4587 96.3517 44.2517C96.3517 46.5631 95.2345 48.4857 94.0974 50.3435C93.9378 50.3219 93.7583 50.4947 93.858 50.6892C94.5762 51.9421 96.3916 55.1176 96.0525 56.6082C95.7532 57.9259 94.9951 59.0924 94.1573 60.0645C93.3792 60.9934 92.5015 61.7927 91.5639 62.5272C88.6113 61.6847 84.5816 57.2346 82.8859 54.5992C80.7912 51.3804 81.4296 47.8593 83.4245 44.943C82.427 43.9709 81.6091 42.7179 80.9707 41.5082C80.073 39.78 79.6142 37.9655 79.8336 35.978L79.8536 36.0213Z" fill="#423227"/>
<path d="M119.174 69.4615C120.271 71.1033 121.368 72.8314 122.884 74.0412C124.5 75.3373 126.415 75.7909 128.37 75.3589C130.146 74.9701 131.622 73.8467 132.679 72.2698C133.198 71.5137 133.577 70.628 133.856 69.7423C134.116 68.8566 134.515 67.4957 134.096 66.6316C133.856 66.1563 133.158 66.0267 132.819 66.4588C132.3 67.1284 132.36 68.1221 132.161 68.943C131.981 69.6775 131.782 70.412 131.462 71.0817C130.764 72.5074 129.547 73.4579 128.091 73.8251C124.58 74.7324 122.046 71.6001 120.131 68.8782C119.712 68.2734 118.755 68.8566 119.174 69.4831V69.4615Z" fill="#423227"/>
<path d="M146.006 96.7882C148.439 104.09 149.836 111.629 150.554 119.341C151.292 127.377 151.871 135.521 151.532 143.579C151.432 145.933 151.232 148.288 150.893 150.599C150.574 152.695 149.976 154.725 149.716 156.821C149.716 156.972 149.876 157.015 149.916 156.886C150.554 155.201 150.893 153.256 151.192 151.485C151.512 149.627 151.711 147.726 151.851 145.847C152.15 141.57 152.11 137.271 151.97 132.972C151.671 125.044 151.133 116.986 149.736 109.166C148.958 104.889 147.881 100.677 146.305 96.6586C146.245 96.5074 145.986 96.6154 146.046 96.7882H146.006Z" fill="#A2CB9C"/>
<path d="M103.533 134.117C102.576 134.398 101.638 134.743 100.721 135.197C98.0074 136.536 95.6135 138.481 93.5188 140.749C92.262 142.11 91.1847 143.6 90.1873 145.156C92.8206 154.574 97.8678 161.444 99.6433 163.258C101.758 165.419 104.112 168.097 104.112 168.097L112.93 159.564C112.93 159.564 105.409 146.214 103.873 138.178C103.613 136.817 103.513 135.456 103.533 134.117Z" fill="#7198B5"/>
<path d="M105.309 142.758C105.568 145.825 106.785 148.742 108.122 151.464C108.86 152.954 109.658 154.423 110.496 155.827C111.254 157.102 111.992 158.549 112.95 159.672C113.089 159.845 113.329 159.629 113.229 159.435C112.59 158.139 111.673 156.951 110.935 155.719C110.117 154.337 109.339 152.933 108.621 151.485C107.264 148.72 106.127 145.804 105.488 142.758C105.469 142.65 105.289 142.671 105.309 142.779V142.758Z" fill="#A2CB9C"/>
<path d="M104.332 168.292C105.848 166.542 107.603 165.073 109.299 163.539C110.017 162.891 110.695 162.2 111.394 161.53C111.733 161.206 112.072 160.882 112.431 160.58C112.71 160.342 113.189 160.083 113.329 159.737C113.389 159.608 113.329 159.392 113.169 159.413C112.83 159.456 112.531 159.802 112.271 160.018C111.932 160.32 111.613 160.644 111.274 160.968C110.556 161.681 109.838 162.416 109.119 163.15C107.484 164.814 105.688 166.304 104.172 168.119C104.072 168.227 104.232 168.4 104.332 168.292Z" fill="#B0683F"/>
<path d="M106.067 170.279C107.364 168.594 108.84 167.125 110.396 165.721C111.154 165.03 111.932 164.338 112.67 163.626C113.049 163.28 113.408 162.913 113.767 162.545C114.107 162.2 114.525 161.833 114.765 161.401C114.865 161.206 114.645 160.947 114.466 161.077C114.087 161.379 113.767 161.811 113.428 162.178C113.069 162.545 112.71 162.913 112.331 163.258C111.573 163.993 110.775 164.684 109.997 165.397C108.481 166.801 106.925 168.248 105.788 170.041C105.668 170.236 105.947 170.452 106.087 170.279H106.067Z" fill="#B0683F"/>
<path d="M49.8097 216.508C49.8097 216.508 47.4756 224.393 47.4756 228.346C47.4756 232.299 47.1365 232.688 52.2236 233.898C57.3107 235.107 62.717 236.058 66.4675 235.302C70.198 234.524 70.4972 232.472 68.6818 231.025C66.8665 229.556 62.4975 228.065 61.2806 226.704C60.0637 225.343 60.9614 220.051 61.2806 219.143C61.5998 218.236 53.6999 213.678 49.7898 216.508H49.8097Z" fill="#423227"/>
<path d="M21.5414 217.847C21.5414 217.847 18.509 225.451 18.15 229.383C17.7909 233.315 17.4318 233.66 22.3792 235.41C27.3267 237.16 32.6332 238.672 36.4236 238.305C40.214 237.937 40.6928 235.928 39.017 234.287C37.3413 232.645 33.132 230.701 32.0547 229.21C30.9575 227.741 32.334 222.557 32.733 221.693C33.132 220.828 25.6908 215.471 21.5414 217.847Z" fill="#423227"/>
<path d="M24.055 154.25C24.055 154.25 23.4765 157.426 23.5762 165.44C23.676 173.455 23.3368 187.323 21.8207 197.757C20.2846 208.191 17.8308 223.075 17.8308 223.075C17.8308 223.075 20.3045 225.235 26.1697 225.754C32.0547 226.272 33.4512 225.624 33.4512 225.624C33.4512 225.624 39.6754 206.16 42.7277 194.452C45.7799 182.744 47.6552 169.393 48.8322 170.409C50.0092 171.424 50.7074 184.018 49.6501 197.52C48.5928 210.999 46.7175 224.112 46.7175 224.112C46.7175 224.112 49.5304 225.257 55.7746 225.127C62.0187 224.998 62.5973 223.723 62.5973 223.723C62.5973 223.723 67.8839 208.839 69.7591 190.261C71.6343 171.683 70.2379 150.686 70.2379 150.686C70.2379 150.686 55.6748 144.702 45.7999 146.862C35.9249 149.023 24.055 154.25 24.055 154.25Z" fill="#445F8E"/>
<path d="M26.0499 91.8847C26.0499 91.8847 35.2067 86.9162 44.6228 86.9162C54.0389 86.9162 60.4826 87.4347 62.1384 88.1907C63.7742 88.9468 70.3575 104.738 72.2527 118.218C74.128 131.698 72.951 143.276 72.2527 148.763C71.5545 154.229 71.0757 155.892 71.0757 155.892C71.0757 155.892 63.1957 160.601 47.9344 159.975C32.6532 159.348 23.3767 155.395 23.3767 155.395C23.3767 155.395 26.1896 139.863 27.2469 130.704C28.3042 121.545 28.0648 115.302 27.7257 108.302C27.3865 101.303 26.0898 91.8847 26.0898 91.8847H26.0499Z" fill="#F6DEBE"/>
<path d="M23.4166 135.608C23.4166 135.608 28.3641 135.435 30.8777 139.95C33.3913 144.443 31.9151 148.612 29.182 150.859C26.4489 153.105 21.282 152.371 20.8431 150.578C20.4043 148.785 21.3618 147.532 20.8032 145.869C20.2447 144.205 18.0303 142.52 18.0303 142.52C18.0303 142.52 19.327 134.657 23.4166 135.608Z" fill="#E9A17A"/>
<path d="M28.7432 111.737C28.7432 111.737 16.973 119.19 15.7561 125.735C15.3372 128.004 17.6314 131.287 19.8856 132.864C21.9803 134.333 23.7359 135.219 23.7359 135.219C23.7359 135.219 24.474 138.286 22.5788 142.347C20.6637 146.409 19.6861 147.251 19.6861 147.251C19.6861 147.251 6.95843 143.773 2.33017 134.527C-2.29809 125.282 0.195585 112.817 7.79631 105.04C15.417 97.2636 24.8131 91.323 34.4886 88.8171C37.5608 88.0178 34.1295 95.2978 33.6108 100.634C33.0921 105.969 28.7631 111.715 28.7631 111.715L28.7432 111.737Z" fill="#F6DEBE"/>
<path d="M119.393 110.441C118.575 110.808 118.037 111.024 118.037 111.024C118.037 111.024 118.755 110.916 119.493 110.981C120.191 111.046 120.929 111.24 121.009 111.845C121.129 112.623 120.55 113.228 120.012 113.616C119.613 113.897 119.254 114.049 119.254 114.049C119.254 114.049 119.713 113.941 120.211 114.049C120.69 114.113 121.189 114.373 121.269 115.107C121.348 115.906 120.73 116.446 120.132 116.749C119.653 117.03 119.194 117.138 119.194 117.138C119.194 117.138 119.533 117.073 119.872 117.181C120.251 117.289 120.61 117.635 120.431 118.563C120.251 119.449 119.274 120.076 118.017 120.486C118.017 120.486 117.997 120.486 117.977 120.486C117.558 120.637 117.079 120.745 116.62 120.853C115.703 121.048 114.745 121.156 113.887 121.177C111.314 121.307 106.706 121.112 106.706 121.112C106.706 121.112 101.239 117.418 105.888 111.564C105.888 111.564 108.72 110.873 109.838 109.382C110.955 107.892 112.331 106.034 114.246 106.315C115.084 106.445 115.603 106.79 115.922 107.136C116.321 107.589 116.401 108.043 116.401 108.043C116.401 108.043 116.521 107.978 116.72 107.892C118.276 107.179 124.939 104.241 125.657 105.753C126.256 107.028 121.767 109.296 119.413 110.355L119.393 110.441Z" fill="#E9A17A"/>
<g style="mix-blend-mode:multiply">
<path d="M120.112 116.749C119.633 117.03 119.174 117.138 119.174 117.138C119.174 117.138 118.057 117.267 116.82 117.721C116.461 117.851 116.102 118.023 115.802 118.304C115.503 118.563 115.324 118.931 115.344 119.341C115.344 119.73 115.583 120.011 115.902 120.184C116.301 120.421 116.78 120.508 117.239 120.529C117.478 120.529 117.718 120.529 117.957 120.486C117.538 120.637 117.059 120.745 116.6 120.853C116.361 120.788 116.122 120.724 115.882 120.616C115.324 120.378 114.885 119.903 114.945 119.211C114.985 118.434 115.483 117.937 116.062 117.57C116.122 117.526 116.182 117.505 116.241 117.483C116.142 117.483 116.062 117.483 115.982 117.483C115.583 117.418 115.164 117.31 114.885 116.986C114.546 116.598 114.526 116.079 114.685 115.604C113.967 115.215 113.548 114.502 113.309 113.66C113.149 113.163 113.069 112.623 113.01 112.083C112.97 111.672 112.93 111.197 113.089 110.808C113.129 110.722 113.269 110.743 113.289 110.83C113.349 111.262 113.329 111.715 113.389 112.169C113.448 112.666 113.588 113.141 113.748 113.616C114.027 114.437 114.566 115.301 115.443 115.409C116.341 115.539 116.9 114.653 117.019 113.811C117.179 112.623 116.9 111.413 116.68 110.268C116.481 109.21 116.241 108.173 115.922 107.157C116.321 107.611 116.401 108.065 116.401 108.065C116.401 108.065 117.159 109.706 117.299 110.614C117.478 110.571 117.658 110.527 117.817 110.506C118.236 110.441 118.675 110.376 119.114 110.376C119.214 110.376 119.314 110.376 119.413 110.376C118.595 110.743 118.057 110.959 118.057 110.959C118.057 110.959 118.097 111.024 117.658 111.089C117.578 111.089 117.478 111.111 117.378 111.132C117.518 112.018 117.658 112.99 117.498 113.876C118.176 113.724 118.855 113.616 119.553 113.552C119.693 113.552 119.872 113.552 120.032 113.53C119.633 113.811 119.274 113.962 119.274 113.962C119.274 113.962 118.037 114.243 117.339 114.416C117.279 114.545 117.219 114.675 117.159 114.805C116.72 115.604 115.882 115.993 115.044 115.712C114.865 116.122 114.865 116.576 115.244 116.857C115.583 117.116 116.062 117.181 116.461 117.202C116.521 117.202 116.581 117.202 116.64 117.202C117.219 116.943 117.877 116.814 118.496 116.727C119.034 116.662 119.593 116.598 120.131 116.641L120.112 116.749Z" fill="#D1B6A7"/>
</g>
<path d="M106.207 122.949C106.207 122.949 101.499 127.917 88.2124 125.887C82.2275 124.979 77.2801 122.149 73.6692 119.341C73.1506 118.952 72.6718 118.542 72.2129 118.153C68.7218 115.172 66.8266 112.515 66.8266 112.515C66.8266 112.515 61.7794 104.76 60.4827 98.9054C59.186 93.0512 59.4254 87.7155 59.4254 87.7155C59.4254 87.7155 65.4102 87.5858 71.6544 92.1655C77.8786 96.7452 84.2225 104.76 91.3843 107.827C98.5461 110.873 105.129 109.231 105.129 109.231C105.129 109.231 105.828 111.521 106.067 115.582C106.306 119.665 106.187 122.97 106.187 122.97L106.207 122.949Z" fill="#F6DEBE"/>
<path d="M72.8115 115.431C72.3127 113.12 71.6544 110.873 70.9362 108.626C70.4774 107.201 69.9986 105.775 69.4799 104.371C69.2006 103.636 68.9413 102.88 68.6421 102.167C68.3628 101.519 68.1034 100.547 67.465 100.245C67.3653 100.202 67.2456 100.18 67.1658 100.245C67.106 100.31 67.106 100.396 67.106 100.482C67.1259 101.217 67.5448 101.735 67.8042 102.383C68.1234 103.096 68.3628 103.874 68.6421 104.608C69.1807 106.099 69.6994 107.59 70.1383 109.123C70.7567 111.24 71.2554 113.422 71.7143 115.582C71.8938 116.425 72.0734 117.289 72.233 118.153C72.6918 118.542 73.1706 118.931 73.6893 119.341C73.4499 118.023 73.0908 116.684 72.8314 115.453L72.8115 115.431Z" fill="#BA917A"/>
<path d="M37.3413 83.6974L37.9597 97.6956C37.9597 97.6956 41.8499 103.744 47.7549 102.427C53.6599 101.087 54.1587 97.566 54.1587 97.566L52.5428 80.5651C52.5428 80.5651 45.5804 86.0952 37.3613 83.6974H37.3413Z" fill="#E9A17A"/>
<g style="mix-blend-mode:multiply">
<path d="M39.0171 91.2582C42.4285 92.2951 46.0194 93.2888 49.5903 92.8351C50.9868 92.6623 52.3433 92.2303 53.5802 91.4958L52.5428 80.5651C52.5428 80.5651 45.5805 86.0952 37.3613 83.6974L37.6805 90.8045C38.1394 90.9557 38.5982 91.1069 39.057 91.2366L39.0171 91.2582Z" fill="#D1B6A7"/>
</g>
<path d="M75.5447 53.0006C75.5447 53.0006 81.2502 48.961 82.9658 51.9421C84.6815 54.9016 84.2227 58.466 80.2527 60.9502C76.2828 63.4345 73.3901 62.484 73.3901 62.484L75.5447 53.0006Z" fill="#E9A17A"/>
<path d="M14.9582 37.4686C12.0456 48.5722 9.47213 73.9332 30.9177 85.3392C52.3633 96.7667 68.3228 80.457 75.0258 63.2833C82.068 45.159 76.143 20.0572 71.7541 18.2642C48.952 8.99687 20.943 14.6783 14.9782 37.4686H14.9582Z" fill="#E9A17A"/>
<path d="M47.1567 53.6054C47.1567 53.6054 47.2166 53.519 47.1567 53.519C47.0969 53.519 47.0969 53.6054 47.1567 53.6054Z" fill="#423227"/>
<g style="mix-blend-mode:multiply">
<path d="M46.3187 50.4947C46.7376 51.5748 46.5581 52.8926 46.5382 54.0159C46.5382 55.2472 46.4584 56.5866 46.8773 57.7531C47.2763 58.8548 48.2139 59.33 49.2712 59.222C50.3684 59.1356 52.3235 58.2067 52.0641 60.2589C51.9245 61.4039 51.3859 62.3544 50.4482 62.9376C49.9894 63.24 49.4508 63.4129 48.9321 63.4561C48.4533 63.4993 47.9147 63.3481 47.4558 63.5425C47.2763 63.6289 47.1566 63.8881 47.2962 64.0609C47.8548 64.8602 49.0917 64.6442 49.8697 64.4282C50.7874 64.1473 51.6452 63.5425 52.2038 62.7216C52.9419 61.6631 53.7598 58.8548 52.1639 58.1203C51.5056 57.8179 50.7275 57.9259 50.0492 58.0987C49.5106 58.2283 48.7924 58.5092 48.3137 58.0339C47.5556 57.2562 47.6753 55.6145 47.6753 54.5776C47.6753 53.0654 47.795 51.402 47.1167 50.0195C46.8773 49.5226 46.0793 49.9547 46.2988 50.4731L46.3187 50.4947Z" fill="#D1B6A7"/>
</g>
<path d="M39.0969 67.8846C39.0969 67.8846 42.4883 69.764 49.1913 69.872C54.6375 69.9585 57.3905 68.0359 57.3905 68.0359C57.3905 68.0359 58.388 77.8217 49.2113 78.8586C40.0146 79.9171 39.0969 67.8846 39.0969 67.8846Z" fill="#423227"/>
<path d="M45.0616 71.0169C47.2361 72.3563 50.1487 72.5723 52.5427 71.9242C53.6598 71.6218 54.8169 71.0817 55.575 70.1312C55.9341 69.6992 56.1934 69.1807 56.3131 68.5975C55.0563 69.1591 52.6624 69.9368 49.1712 69.872C46.8571 69.8288 44.9419 69.5912 43.4258 69.2671C43.7849 70.0016 44.3834 70.5849 45.0616 70.9953V71.0169Z" fill="white"/>
<path d="M47.1166 78.1024C46.8772 76.9791 46.3186 75.9422 45.5605 75.1645C44.8224 74.4084 43.8848 73.8684 42.8474 73.7172C42.1492 73.6307 41.4709 73.7388 40.8325 74.0196C42.0095 76.3526 43.9845 78.5345 47.2363 78.8801C47.2163 78.6209 47.1764 78.3616 47.1166 78.1024Z" fill="#CE5456"/>
<path d="M34.9076 47.3625C34.1895 47.0385 33.4314 46.7792 32.6733 46.7792C31.8953 46.7792 31.1372 47.0601 30.439 47.4057C28.0251 48.6154 26.1099 50.9053 25.2322 53.6271C24.9728 54.4264 24.7933 55.2905 24.8332 56.1546C24.8531 57.1483 25.1524 58.0988 25.5713 58.9845C27.1673 62.268 30.8579 64.2554 34.2094 63.4994C37.3814 62.7865 40.274 59.2653 40.4935 55.7226C40.7129 52.2662 37.6407 48.6586 34.9276 47.3841L34.9076 47.3625Z" fill="white"/>
<path d="M64.4726 46.0663C63.7544 45.7423 62.9963 45.483 62.2382 45.483C61.4602 45.483 60.7021 45.7639 60.0039 46.1095C57.59 47.3192 55.6749 49.6091 54.7971 52.3309C54.5378 53.1302 54.3582 53.9943 54.3981 54.8584C54.4181 55.8521 54.7173 56.8026 55.1363 57.6883C56.7322 60.9718 60.4228 62.9592 63.7743 62.2032C66.9463 61.4903 69.839 57.9691 70.0584 54.4264C70.2779 50.97 67.2056 47.3624 64.4925 46.0879L64.4726 46.0663Z" fill="white"/>
<path d="M15.8359 60.6262C15.8359 60.6262 12.3248 55.8953 8.35485 58.3796C4.38492 60.8639 5.50209 67.1933 11.4071 68.403C17.3121 69.6128 18.0702 64.385 18.0702 64.385L15.8359 60.6046V60.6262Z" fill="#E9A17A"/>
<path d="M69.2803 28.3741C69.2803 28.3741 73.6891 34.3363 75.0456 41.2274C76.4022 48.1186 76.8211 54.2536 76.8211 54.2536C76.8211 54.2536 81.4295 48.8314 82.0678 41.5299C82.6663 34.8764 79.8136 27.078 74.7464 25.6738C69.6793 24.2697 69.2803 28.3741 69.2803 28.3741Z" fill="#B0683F"/>
<path d="M68.5223 41.7458C68.0435 39.2184 65.3304 37.879 63.136 38.0519C62.8168 38.0735 62.5175 38.1167 62.2183 38.2031C62.0587 38.2463 61.8792 38.3111 61.7196 38.4191C61.7196 38.4191 61.7196 38.4191 61.6996 38.4191C61.3804 38.6567 61.4203 38.6567 61.7794 38.4191C61.6597 38.4623 61.54 38.5271 61.4203 38.5703C60.9615 38.8295 60.7221 39.4344 60.9814 39.9529C61.1211 40.2121 61.3405 40.3849 61.5999 40.4713C61.6797 40.4929 61.8393 40.5145 61.939 40.5145C62.2383 40.5145 61.6597 40.3633 61.7196 40.4497C61.8792 40.6441 62.2183 40.6225 62.4377 40.6441C62.6971 40.6657 62.1585 40.6009 62.3978 40.6441C62.5375 40.6441 62.6572 40.6873 62.7968 40.7089C62.9165 40.7089 63.0362 40.7089 63.1559 40.7305C63.1958 40.7305 63.2557 40.7305 63.2956 40.7305C62.9564 40.7305 63.136 40.7089 63.2557 40.7305C63.3953 40.7521 63.5549 40.7737 63.7145 40.7953C63.8941 40.8385 63.3754 40.7305 63.6347 40.7953C63.7544 40.8169 63.8542 40.8385 63.9739 40.8601C64.2332 40.925 64.4925 40.9898 64.7519 41.0546C64.8716 41.0978 64.9913 41.1194 65.111 41.1626C65.1708 41.1626 65.2307 41.2058 65.2905 41.2274C65.3304 41.2274 65.3504 41.249 65.3903 41.2706C65.51 41.3138 65.49 41.3138 65.2905 41.2274C65.49 41.3786 65.7493 41.4866 65.9688 41.6162C66.0286 41.6594 66.2082 41.8539 66.288 41.8539C66.1683 41.8539 66.1284 41.7026 66.2481 41.8539C66.3079 41.8971 66.3478 41.9619 66.4077 42.0051C66.5074 42.1131 66.5872 42.1995 66.667 42.3075C66.7069 42.3507 66.7269 42.3939 66.7668 42.4155C66.5872 42.1995 66.7867 42.4587 66.8266 42.5235C67.4051 43.4956 68.7418 42.8692 68.5223 41.7458Z" fill="#B0683F"/>
<path d="M32.2342 40.7953C32.1145 40.7089 31.9948 40.6009 31.8552 40.5361C31.7554 40.4713 31.6357 40.4281 31.536 40.3849C31.3564 40.2985 31.6557 40.4713 31.4761 40.3417C31.117 40.0824 30.5186 40.0608 30.0797 40.1256C29.3016 40.2337 28.5436 40.5577 27.8852 41.0545C27.1671 41.6162 26.5686 42.2211 26.0698 43.0203C25.99 43.1716 25.9102 43.3228 25.8304 43.474C25.7307 43.7116 25.611 43.9924 25.611 44.2733C25.6509 44.0356 25.6709 43.9924 25.611 44.1437C25.611 44.1653 25.611 44.1869 25.5911 44.2301C25.5512 44.3597 25.5711 44.6837 25.5113 44.7485C25.5113 44.8349 25.5113 44.7917 25.5312 44.6189C25.5312 44.6621 25.5312 44.7053 25.5312 44.7269C25.5113 45.0294 25.4714 45.267 25.5512 45.5478C25.6709 45.9798 26.1097 46.2607 26.5287 46.1527C26.808 46.0663 27.0474 45.8934 27.3067 45.7422C27.3865 45.699 27.566 45.5262 27.6658 45.4398C27.2469 45.6774 27.1671 45.7422 27.4463 45.591C27.6059 45.5262 27.7456 45.4398 27.8653 45.2886C27.965 45.2022 28.0648 45.0942 28.1645 44.9861C28.6234 44.5325 29.0423 44.014 29.5011 43.5604C29.561 43.5172 29.6009 43.4524 29.6607 43.4092C29.7006 43.3876 29.7206 43.3444 29.7605 43.3228C29.8403 43.258 29.8004 43.2796 29.6408 43.4308C29.7006 43.4092 29.7605 43.3444 29.8004 43.3012C29.9001 43.2148 30.0198 43.1284 30.1196 43.0419C30.1994 42.9771 30.1994 42.9555 30.1196 43.0419C29.9201 43.1716 30.1196 43.0419 30.1794 42.9987C30.2393 42.9555 30.3191 42.8907 30.3789 42.8475C30.4986 42.7611 30.6183 42.6963 30.7579 42.6099C31.0173 42.4587 31.3165 42.3075 31.536 42.113C31.8751 41.8322 31.4562 42.113 31.4562 42.113C31.4562 42.113 31.6557 42.0482 31.6756 42.0482C31.8153 42.005 31.9549 41.9618 32.0946 41.9186C32.6332 41.789 32.5933 41.0761 32.2342 40.7737V40.7953Z" fill="#B0683F"/>
<path d="M12.9233 61.5983C12.9233 61.5983 17.1327 56.0249 20.5041 46.9736C23.8756 37.9222 23.8157 29.2165 23.8157 29.2165C23.8157 29.2165 30.4788 39.6504 38.4586 37.2958C46.4383 34.9411 39.8949 27.3155 39.8949 27.3155C39.8949 27.3155 45.6803 34.6171 51.0467 33.2994C56.433 31.9816 50.8073 25.5874 50.8073 25.5874C50.8073 25.5874 64.4127 36.7773 75.9834 31.3336C87.554 25.9114 86.2573 13.2741 70.7567 6.40458C55.256 -0.464934 46.5979 10.2714 46.5979 10.2714C46.5979 10.2714 46.977 -0.0976962 40.0346 1.06882C33.0722 2.23534 29.1023 12.9068 29.1023 12.9068C29.1023 12.9068 28.6834 5.32446 24.7932 8.17596C20.9031 11.0275 23.1574 21.0725 23.1574 21.0725C23.1574 21.0725 17.4519 10.6602 7.8163 19.6251C-1.81926 28.5901 2.19057 42.3075 4.7441 47.8809C7.29762 53.4542 12.9233 61.5983 12.9233 61.5983Z" fill="#B0683F"/>
<path d="M36.9824 48.7233C35.8653 48.5937 34.7282 48.7233 33.7107 49.2634C30.6186 50.9484 29.9004 55.9601 31.656 58.9628C32.5537 60.4966 33.99 61.5767 35.566 62.1815C35.8653 62.2896 36.1845 62.3976 36.5037 62.4624C38.6582 61.015 40.3339 58.3579 40.4935 55.7009C40.6531 53.1302 38.9774 50.4515 36.9824 48.7233Z" fill="#423227"/>
<path d="M65.2707 46.4984C64.4328 46.4984 63.6149 46.6496 62.8169 46.9952C61.1013 47.7513 59.9841 49.3714 59.4056 51.2076C58.7472 53.2815 58.827 55.3337 59.8444 57.2563C60.822 59.0925 62.398 60.5614 64.1535 61.5335C64.353 61.6415 64.5724 61.7495 64.7919 61.8575C67.5449 60.7126 69.8391 57.5803 70.0386 54.4048C70.2381 51.294 67.7444 48.0321 65.2707 46.4984Z" fill="#423227"/>
<path d="M36.5036 55.2689C38.2592 55.6361 38.7778 52.6982 37.0223 52.3309C35.2668 51.9637 34.7481 54.9016 36.5036 55.2689Z" fill="white"/>
<path d="M66.1284 53.3679C67.8839 53.7352 68.4026 50.7972 66.6471 50.43C64.8915 50.0628 64.3728 53.0007 66.1284 53.3679Z" fill="white"/>
<path d="M289.442 147.683C288.943 148.699 288.305 149.671 287.347 150.146C286.11 150.772 284.554 150.34 283.557 149.325C282.559 148.31 282.081 146.798 282.041 145.307C282.001 143.816 282.38 142.369 282.859 140.965C283.417 139.366 284.255 137.703 285.731 137.077C288.065 136.104 290.3 138.135 291.018 140.425C291.756 142.78 290.479 145.588 289.462 147.662L289.442 147.683Z" fill="#E9A17A"/>
<path d="M272.685 87.413C272.685 87.413 288.086 87.8019 299.836 101.411C311.067 114.437 306.878 129.408 301.711 137.033C296.544 144.659 290.2 147.208 290.2 147.208C290.2 147.208 287.607 144.162 285.731 140.598C283.856 137.033 285.253 135.003 285.253 135.003C285.253 135.003 288.305 134.744 290.898 130.164C293.492 125.584 292.893 117.181 289.841 114.394C286.789 111.586 283.956 110.074 283.956 110.074L272.685 87.413Z" fill="#CE5456"/>
<path d="M243.698 111.737C243.698 111.737 231.928 119.19 230.711 125.735C230.292 128.003 232.586 131.287 234.84 132.864C236.935 134.333 238.691 135.219 238.691 135.219C238.691 135.219 239.429 138.286 237.534 142.347C235.619 146.409 234.641 147.251 234.641 147.251C234.641 147.251 221.913 143.773 217.285 134.527C212.657 125.282 215.15 112.817 222.751 105.04C230.372 97.2635 239.768 91.3229 249.443 88.817C252.516 88.0178 249.084 95.2977 248.566 100.633C248.047 105.969 243.718 111.715 243.718 111.715L243.698 111.737Z" fill="#CE5456"/>
<path d="M264.785 216.508C264.785 216.508 262.45 224.393 262.45 228.346C262.45 232.299 262.111 232.688 267.198 233.898C272.286 235.107 277.692 236.058 281.442 235.302C285.193 234.546 285.472 232.472 283.657 231.025C281.841 229.556 277.472 228.065 276.255 226.704C275.039 225.343 275.936 220.051 276.255 219.143C276.575 218.236 268.675 213.678 264.765 216.508H264.785Z" fill="#CE5456"/>
<path d="M236.516 217.847C236.516 217.847 233.484 225.451 233.125 229.383C232.766 233.314 232.407 233.66 237.354 235.41C242.302 237.16 247.608 238.672 251.398 238.305C255.189 237.937 255.668 235.928 253.992 234.287C252.316 232.645 248.107 230.701 247.03 229.21C245.932 227.741 247.309 222.557 247.708 221.692C248.107 220.828 240.666 215.471 236.516 217.847Z" fill="#CE5456"/>
<path d="M284.894 188.555C284.834 189.116 284.794 189.699 284.734 190.261C284.255 194.97 283.557 199.464 282.779 203.503C280.505 215.428 277.552 223.723 277.552 223.723C277.552 223.723 276.974 224.997 270.73 225.127C264.505 225.257 261.672 224.112 261.672 224.112C261.672 224.112 263.548 210.999 264.605 197.519C265.662 184.04 264.964 171.424 263.787 170.409C262.69 169.458 260.954 181.167 258.221 192.27C258.042 193.005 257.862 193.739 257.663 194.452C257.024 196.958 256.206 199.809 255.368 202.747C252.236 213.592 248.386 225.624 248.386 225.624C248.386 225.624 246.97 226.25 241.105 225.754C235.22 225.257 232.746 223.075 232.746 223.075C232.746 223.075 235.22 208.191 236.736 197.757C238.272 187.323 238.611 173.455 238.491 165.44C238.372 157.426 238.95 154.25 238.95 154.25C238.95 154.25 250.82 149.044 260.695 146.862C270.57 144.702 285.133 150.686 285.133 150.686C285.133 150.686 286.47 170.43 284.834 188.576L284.894 188.555Z" fill="#423227"/>
<path d="M287.188 118.239C285.312 104.76 278.729 88.9683 277.073 88.2122C275.876 87.6506 272.066 87.2401 266.42 87.0457C266.42 87.0457 266.42 87.0457 266.4 87.0457C265.722 87.0241 265.024 87.0025 264.306 86.9809C264.266 86.9809 264.226 86.9809 264.186 86.9809C263.567 86.9809 262.909 86.9593 262.251 86.9593C262.091 86.9593 261.932 86.9593 261.752 86.9593C261.034 86.9593 260.316 86.9593 259.558 86.9593C258.919 86.9593 258.301 86.9809 257.662 87.0241C257.623 87.0241 257.563 87.0241 257.523 87.0241C256.944 87.0673 256.366 87.1321 255.787 87.1969C255.727 87.1969 255.668 87.1969 255.588 87.2185C255.029 87.2833 254.471 87.3913 253.912 87.4777C253.852 87.4777 253.792 87.4777 253.732 87.4993C253.174 87.6074 252.595 87.7154 252.057 87.845C252.037 87.845 251.997 87.845 251.977 87.845C250.82 88.1258 249.703 88.4282 248.645 88.7523C248.645 88.7523 248.605 88.7523 248.585 88.7523C248.087 88.9035 247.588 89.0763 247.109 89.2491C247.109 89.2491 247.069 89.2491 247.049 89.2491C243.399 90.5237 240.965 91.8414 240.965 91.8414C240.965 91.8414 242.262 101.26 242.601 108.259C242.96 115.258 243.179 121.501 242.122 130.661C241.065 139.82 238.252 155.352 238.252 155.352C238.252 155.352 247.528 159.305 262.809 159.932C278.091 160.558 285.951 155.849 285.951 155.849C285.951 155.849 286.43 154.185 287.128 148.72C287.826 143.255 289.003 131.676 287.128 118.175L287.188 118.239Z" fill="#F6DEBE"/>
<path d="M242.86 112.904C244.676 107.914 247.05 103.139 249.823 98.711C252.476 94.4553 255.528 90.4805 258.959 86.9377C258.541 86.9377 258.102 86.9377 257.683 86.9809C257.643 86.9809 257.583 86.9809 257.543 86.9809C256.964 87.0241 256.386 87.089 255.807 87.1538C255.748 87.1538 255.688 87.1538 255.608 87.1754C255.049 87.2402 254.491 87.3482 253.932 87.4346C253.872 87.4346 253.812 87.4346 253.753 87.4562C253.194 87.5642 252.616 87.6722 252.077 87.8018C252.057 87.8018 252.017 87.8018 251.997 87.8018C250.84 88.0827 249.723 88.3851 248.666 88.7091C248.666 88.7091 248.626 88.7091 248.606 88.7091C248.107 88.8603 247.608 89.0332 247.129 89.206C247.129 89.206 247.09 89.206 247.07 89.206C243.419 90.4805 240.985 91.7982 240.985 91.7982C240.985 91.7982 236.836 99.6831 237.314 104.241C237.594 106.855 242.78 111.283 242.84 112.817L242.86 112.904Z" fill="#CE5456"/>
<path d="M260.974 87.3265C263.807 88.6875 266.54 90.286 269.153 92.1006C274.041 95.4922 278.55 99.6182 282.26 104.479C283.397 105.969 284.435 107.525 285.372 109.145C287.527 98.7541 278.39 88.7955 277.093 88.2122C275.896 87.6506 272.086 87.2401 266.44 87.0457C266.44 87.0457 266.44 87.0457 266.42 87.0457C265.742 87.0241 265.044 87.0025 264.326 86.9809C264.286 86.9809 264.246 86.9809 264.206 86.9809C263.587 86.9809 262.929 86.9593 262.271 86.9593C262.111 86.9593 261.952 86.9593 261.772 86.9593C261.493 86.9593 261.174 86.9593 260.894 86.9593C260.914 87.0889 260.934 87.2185 260.954 87.3481L260.974 87.3265Z" fill="#CE5456"/>
<path d="M238.371 135.607C238.371 135.607 243.319 135.435 245.833 139.95C248.346 144.443 246.87 148.612 244.137 150.859C241.404 153.105 236.237 152.371 235.798 150.578C235.359 148.785 236.317 147.532 235.758 145.869C235.199 144.205 232.985 142.52 232.985 142.52C232.985 142.52 234.282 134.657 238.371 135.607Z" fill="#E9A17A"/>
<path d="M223.03 124.396C225.564 124.353 228.277 124.634 230.791 125.433C230.771 125.519 230.751 125.627 230.731 125.714C230.312 127.982 232.606 131.265 234.86 132.842C236.955 134.311 238.711 135.197 238.711 135.197C238.711 135.197 239.449 138.265 237.554 142.326C235.638 146.387 234.661 147.23 234.661 147.23C234.661 147.23 221.933 143.752 217.305 134.506C215.948 131.784 215.21 128.781 215.031 125.692C217.644 124.828 220.377 124.396 223.05 124.353L223.03 124.396Z" fill="#CE5456"/>
<path d="M253.533 82.0339L254.151 96.0537C254.151 96.0537 258.042 102.102 263.947 100.785C269.852 99.4669 270.35 95.9241 270.35 95.9241L268.734 78.9232C268.734 78.9232 261.772 84.4533 253.553 82.0555L253.533 82.0339Z" fill="#E9A17A"/>
<g style="mix-blend-mode:multiply">
<path d="M255.209 89.573C258.62 90.61 262.211 91.5821 265.782 91.15C267.178 90.9772 268.535 90.5452 269.772 89.8107L268.734 78.8799C268.734 78.8799 261.772 84.4101 253.553 82.0123L253.872 89.1194C254.331 89.2706 254.79 89.4218 255.249 89.5515L255.209 89.573Z" fill="#D1B6A7"/>
</g>
<path d="M288.165 44.8781C288.165 44.8781 292.993 39.672 295.227 42.1994C297.481 44.7269 297.681 48.3129 294.269 51.618C290.838 54.9232 287.846 54.6423 287.846 54.6423L288.185 44.8997L288.165 44.8781Z" fill="#E9A17A"/>
<path d="M225.923 43.0419C225.165 54.5559 227.419 79.9602 250.56 86.3976C273.702 92.8351 286.27 73.3499 289.581 55.0528C293.073 35.762 282.519 12.4964 277.891 11.7187C253.832 7.70069 227.479 19.4307 225.923 43.0635V43.0419Z" fill="#E9A17A"/>
<path d="M260.475 51.7261C260.475 51.7261 260.535 51.6396 260.475 51.6396C260.415 51.6396 260.415 51.7261 260.475 51.7261Z" fill="#423227"/>
<g style="mix-blend-mode:multiply">
<path d="M259.079 48.8962C259.697 49.8467 259.757 51.186 259.957 52.2877C260.176 53.4975 260.376 54.8152 260.994 55.8737C261.593 56.8674 262.59 57.105 263.607 56.8026C264.665 56.4786 266.4 55.1392 266.52 57.1914C266.6 58.3363 266.241 59.3949 265.443 60.1725C265.044 60.5614 264.565 60.8638 264.046 61.015C263.587 61.1662 263.029 61.1446 262.63 61.4255C262.47 61.5551 262.41 61.8143 262.57 61.9655C263.268 62.6136 264.445 62.1383 265.163 61.7495C266.001 61.2743 266.739 60.4966 267.138 59.5677C267.657 58.358 267.936 55.4417 266.241 55.0744C265.543 54.9232 264.784 55.204 264.166 55.5065C263.667 55.7441 263.009 56.1977 262.47 55.8305C261.573 55.2256 261.393 53.6055 261.194 52.5902C260.914 51.0996 260.715 49.4578 259.777 48.2481C259.438 47.8161 258.76 48.3993 259.059 48.8746L259.079 48.8962Z" fill="#D1B6A7"/>
</g>
<path d="M248.506 48.2049C247.748 48.0321 246.97 47.9673 246.212 48.1401C245.453 48.3129 244.755 48.745 244.137 49.2418C242.002 50.9484 240.546 53.6271 240.207 56.4786C240.107 57.3211 240.087 58.2068 240.287 59.0276C240.506 59.9781 240.965 60.8638 241.543 61.6199C243.718 64.493 247.708 65.6163 250.86 64.1258C253.832 62.7216 256.007 58.6388 255.548 55.1176C255.109 51.7045 251.418 48.8314 248.526 48.1833L248.506 48.2049Z" fill="white"/>
<path d="M247.528 64.7738C247.728 64.6226 247.947 64.4498 248.147 64.277C249.563 63.0456 250.86 61.4255 251.299 59.4813C251.777 57.3859 250.959 55.204 249.523 53.7783C248.266 52.547 246.291 52.1149 244.636 52.0717C243.558 52.0717 242.341 52.2229 241.344 52.763C240.765 53.9079 240.366 55.1608 240.207 56.457C240.107 57.2995 240.087 58.1851 240.287 59.006C240.506 59.9565 240.965 60.8422 241.543 61.5983C243 63.5209 245.254 64.6442 247.528 64.7306V64.7738Z" fill="#423227"/>
<path d="M276.036 40.536C275.278 40.3632 274.5 40.2984 273.742 40.4712C272.984 40.644 272.286 41.076 271.667 41.5729C269.532 43.2795 268.076 45.9581 267.737 48.8096C267.637 49.6521 267.617 50.5378 267.817 51.3587C268.036 52.3092 268.495 53.1949 269.074 53.951C271.248 56.8241 275.238 57.9474 278.39 56.4568C281.362 55.0527 283.537 50.9699 283.078 47.4487C282.639 44.0355 278.949 41.1624 276.056 40.5144L276.036 40.536Z" fill="white"/>
<path d="M276.714 56.9754C277.253 56.3489 277.712 55.6576 278.011 54.8799C279.188 51.9636 278.29 48.4641 276.176 46.3255C275.118 45.2454 273.762 44.5109 272.285 44.3813C271.108 44.2733 269.951 44.5541 268.874 45.0509C268.276 46.2175 267.877 47.492 267.717 48.8097C267.617 49.6522 267.597 50.5379 267.797 51.3588C268.016 52.3093 268.475 53.195 269.054 53.9511C270.869 56.3273 273.921 57.4938 276.714 56.9754Z" fill="#423227"/>
<path d="M243.139 58.358C244.915 58.3364 244.875 55.3337 243.099 55.3553C241.324 55.3769 241.364 58.3796 243.139 58.358Z" fill="white"/>
<path d="M270.729 50.7755C272.505 50.7539 272.465 47.7512 270.69 47.7728C268.914 47.7944 268.954 50.7971 270.729 50.7755Z" fill="white"/>
<path d="M231.15 65.5298C231.15 65.5298 226.821 61.663 223.409 64.9898C219.978 68.2949 222.292 74.2355 228.277 74.1491C234.282 74.0411 234.042 68.7486 234.042 68.7486L231.15 65.5515V65.5298Z" fill="#E9A17A"/>
<path d="M279.148 35.3731C278.589 33.9906 277.273 33.1697 275.956 32.8889C275.178 32.716 274.42 32.7376 273.662 32.8889C272.984 33.0185 271.966 33.2993 271.647 34.0338C271.767 33.9042 271.886 33.7745 272.006 33.6449C271.906 33.7313 271.807 33.7962 271.707 33.8826C271.388 34.1418 271.148 34.5522 271.288 35.0059C271.308 35.0923 271.348 35.1787 271.388 35.2435C271.627 35.6539 272.006 35.7836 272.425 35.6971C272.485 35.6971 272.804 35.6755 272.525 35.6971C272.345 35.6539 272.186 35.5891 272.006 35.5459C272.365 35.7404 272.704 35.7404 273.103 35.7188C273.243 35.7188 273.403 35.6755 273.542 35.6539C273.702 35.6323 273.263 35.6755 273.482 35.6539C273.622 35.6539 273.742 35.6323 273.881 35.6107C274.42 35.5675 274.959 35.5675 275.497 35.6107C275.597 35.6107 275.797 35.6755 275.896 35.6539C275.856 35.6539 275.617 35.6107 275.797 35.6539C275.876 35.6539 275.956 35.6755 276.036 35.6971C276.275 35.762 276.515 35.8484 276.734 35.9348C276.934 36.0212 276.774 35.8916 276.714 35.9348C276.734 35.9348 276.854 35.9996 276.894 36.0212C277.013 36.086 277.113 36.1508 277.233 36.2372C277.333 36.302 277.432 36.3884 277.532 36.4748C277.632 36.5396 277.412 36.3452 277.532 36.4748C277.592 36.5396 277.652 36.5828 277.692 36.6476C278.011 36.9933 278.55 37.0365 278.909 36.7341C279.308 36.3884 279.328 35.9132 279.148 35.4379V35.3731Z" fill="#82342A"/>
<path d="M243.598 42.5451C243.359 42.4155 243.119 42.3291 242.86 42.2859C242.361 42.1994 242.7 42.2643 242.7 42.2427C242.7 42.2427 242.581 42.1995 242.561 42.1778C242.361 42.113 242.202 42.1346 242.002 42.1562C241.563 42.2211 241.244 42.3075 240.825 42.5019C240.606 42.6099 240.386 42.7395 240.187 42.8907C239.668 43.258 239.249 43.7332 238.87 44.2517C238.431 44.8565 238.032 45.5262 237.813 46.2823C237.773 46.4119 237.733 46.5415 237.713 46.6711C237.673 46.8655 237.633 47.276 237.713 47.492C237.593 47.1896 237.733 46.7359 237.693 47.0816C237.653 47.4056 237.653 47.6216 237.693 47.924C237.733 48.1401 237.693 47.6216 237.693 47.8376C237.693 47.9672 237.693 48.1617 237.733 48.2913C237.892 48.9177 238.431 49.2634 238.99 48.9609C239.109 48.8961 239.229 48.8097 239.329 48.7017C239.349 48.6801 239.429 48.6153 239.429 48.5721C239.269 48.6801 239.249 48.7017 239.329 48.6369C239.429 48.5721 239.508 48.4857 239.608 48.4209C239.708 48.3129 239.788 48.1833 239.867 48.0753C240.067 47.7944 239.867 48.2265 239.608 48.3345C239.887 48.2265 240.067 47.8592 240.227 47.6216C240.386 47.4056 240.506 47.168 240.665 46.9303C240.805 46.7143 240.945 46.4983 241.064 46.2823C241.124 46.1743 241.204 46.0446 241.284 45.9366C241.324 45.8718 241.364 45.8286 241.404 45.7638C241.543 45.5478 241.164 46.0879 241.384 45.807C241.743 45.3318 242.122 44.9213 242.541 44.5109C242.62 44.4245 242.72 44.3597 242.8 44.2517C242.601 44.4893 242.68 44.3597 242.76 44.2949C242.86 44.2301 242.94 44.1653 243 44.0788C243.199 43.8196 243.219 43.7764 243.059 43.9924C243.199 43.8628 242.88 44.0788 243.059 43.9924C243.119 43.9492 243.199 43.906 243.259 43.8844C243.379 43.8196 243.478 43.7548 243.598 43.69C243.977 43.4956 243.977 42.8043 243.598 42.6099V42.5451Z" fill="#82342A"/>
<path d="M291.197 38.5703C291.157 35.1572 291.138 31.744 290.898 28.3525C290.699 25.4794 290.32 22.6927 289.701 19.8844C288.863 16.0392 286.809 13.3389 283.896 10.8114C280.804 8.13276 276.315 9.60171 275.078 10.0338C274.32 8.15436 274.021 3.25066 272.684 1.93292C269.792 -0.940176 264.804 0.0967308 261.014 0.615184C258.56 0.96082 256.186 1.7385 253.832 2.55939C251.338 3.42347 248.825 4.28756 246.371 5.25966C243.798 6.27497 241.184 7.24707 238.651 8.39199C236.596 9.32088 234.581 10.4226 232.925 12.0644C228.975 15.9096 228.875 21.3749 229.254 26.6675C226.501 26.4731 223.768 27.1859 221.674 29.3029C219.958 31.0311 218.681 33.429 218.402 35.9132C216.726 51.294 228.496 66.4804 229.653 67.8845C229.933 68.2302 230.312 68.1654 230.571 67.9493C230.571 67.9493 230.611 67.9277 230.631 67.9061C230.751 67.7765 230.83 67.6037 230.87 67.4309C232.167 64.2986 232.925 61.015 233.304 57.6019C233.683 54.2103 234.002 50.7108 234.002 47.2976C234.002 44.2517 233.663 41.2274 233.324 38.2247C233.125 36.4317 232.666 34.3795 232.786 32.5217C241.184 34.2715 250.022 33.3426 258.241 30.9879C261.054 30.1886 263.827 29.1733 266.5 27.8988C269.512 26.4731 272.605 24.5289 274.679 21.7206C275.098 21.1589 275.457 20.5324 275.757 19.906C275.956 20.014 276.136 20.1436 276.315 20.2732C277.333 21.0077 278.25 21.915 279.108 22.8871C280.983 25.0473 282.539 27.4884 283.876 30.0806C286.41 34.9843 288.444 40.4713 289.502 45.9799C289.641 46.736 290.519 46.5415 290.739 45.9799C291.078 45.1374 291.098 44.1005 291.138 43.1932C291.237 41.6594 291.237 40.1041 291.217 38.5703H291.197Z" fill="#82342A"/>
<path d="M259.917 69.5047C261.094 72.205 264.066 73.7819 266.74 73.6955C268.036 73.6523 269.313 73.1771 270.231 72.1834C271.108 71.2113 271.587 69.9151 271.787 68.5974C271.906 67.8413 271.966 67.0636 271.966 66.286C271.966 65.4867 271.926 64.7306 271.408 64.1257C271.208 63.8665 270.749 63.9313 270.61 64.2337C270.151 65.2491 270.47 66.4804 270.39 67.5821C270.33 68.6406 270.071 69.6991 269.532 70.5848C268.276 72.6802 265.602 72.3778 263.747 71.5569C262.57 71.0384 261.373 70.2176 260.795 68.9646C260.495 68.3166 259.618 68.8782 259.897 69.5263L259.917 69.5047Z" fill="#423227"/>
<path d="M284.893 188.555C284.834 189.116 284.794 189.7 284.734 190.261C284.255 194.971 283.557 199.464 282.779 203.503C282.34 203.698 281.881 203.849 281.382 203.979C280.086 204.303 278.709 203.59 277.851 202.51C276.973 201.43 276.574 200.004 276.335 198.578C276.136 197.304 276.076 195.986 276.156 194.69C276.255 193.242 276.515 191.838 276.954 190.456C277.313 189.332 277.791 188.231 278.569 187.388C279.347 186.546 280.445 186.006 281.542 186.178C282.061 186.265 282.579 186.502 283.018 186.805C283.716 187.28 284.355 187.885 284.893 188.555Z" fill="#B0683F"/>
<path d="M258.261 192.27C257.782 190.78 257.044 189.44 256.126 188.49C252.216 184.45 248.665 189.311 247.488 193.329C246.371 197.152 246.032 203.503 251.039 204.022C252.536 204.173 254.092 203.655 255.428 202.747L258.281 192.27H258.261Z" fill="#B0683F"/>
</svg>
