<svg width="221" height="239" viewBox="0 0 221 239" fill="none" xmlns="http://www.w3.org/2000/svg">
<path d="M49.9066 216.398C49.9066 216.398 47.5679 224.315 47.5679 228.284C47.5679 232.253 47.2281 232.644 52.3251 233.858C57.4221 235.073 62.8389 236.027 66.5967 235.268C70.3345 234.487 70.6343 232.427 68.8154 230.973C66.9965 229.499 62.6191 228.002 61.3998 226.636C60.1805 225.269 61.08 219.955 61.3998 219.044C61.7196 218.133 53.8043 213.557 49.8866 216.398H49.9066Z" fill="#423227"/>
<path d="M21.5832 217.765C21.5832 217.765 18.545 225.399 18.1852 229.347C17.8254 233.294 17.4657 233.641 22.4227 235.398C27.3998 237.155 32.6967 238.673 36.4944 238.304C40.2922 237.935 40.7719 235.918 39.0929 234.27C37.4139 232.622 33.1964 230.67 32.117 229.173C31.0177 227.698 32.3968 222.493 32.7966 221.625C33.1964 220.758 25.7408 215.379 21.5832 217.765Z" fill="#423227"/>
<path d="M24.1018 153.89C24.1018 153.89 23.5221 157.078 23.6221 165.125C23.742 173.172 23.3822 187.096 21.8631 197.572C20.324 208.048 17.8655 222.992 17.8655 222.992C17.8655 222.992 20.344 225.161 26.2205 225.681C32.1171 226.202 33.5162 225.551 33.5162 225.551C33.5162 225.551 39.7526 206.009 42.8108 194.254C45.869 182.498 47.7478 169.094 48.9271 170.114C50.1065 171.133 50.806 183.778 49.7467 197.334C48.6873 210.868 46.8084 224.033 46.8084 224.033C46.8084 224.033 49.6267 225.182 55.883 225.052C62.1194 224.922 62.719 223.643 62.719 223.643C62.719 223.643 68.0159 208.699 69.8948 190.046C71.7737 171.393 70.3745 150.311 70.3745 150.311C70.3745 150.311 55.7831 144.303 45.8889 146.472C35.9948 148.641 24.1018 153.89 24.1018 153.89Z" fill="#445F8E"/>
<path d="M26.1008 91.295C26.1008 91.295 35.2754 86.3065 44.7098 86.3065C54.1442 86.3065 60.6004 86.827 62.2594 87.5861C63.8985 88.3452 70.4946 104.2 72.3935 117.734C74.2724 131.268 73.093 142.894 72.3935 148.403C71.6939 153.89 71.2142 155.56 71.2142 155.56C71.2142 155.56 63.3188 160.288 48.0278 159.659C32.7169 159.03 23.4224 155.061 23.4224 155.061C23.4224 155.061 26.2407 139.467 27.3001 130.27C28.3595 121.074 28.1196 114.806 27.7798 107.779C27.44 100.751 26.1408 91.295 26.1408 91.295H26.1008Z" fill="#F6DEBE"/>
<path d="M23.4622 135.172C23.4622 135.172 28.4193 134.999 30.9378 139.532C33.4563 144.043 31.9772 148.229 29.2388 150.485C26.5005 152.74 21.3235 152.003 20.8838 150.203C20.444 148.403 21.4035 147.145 20.8438 145.475C20.2841 143.805 18.0654 142.113 18.0654 142.113C18.0654 142.113 19.3647 134.218 23.4622 135.172Z" fill="#E9A17A"/>
<path d="M28.7991 111.206C28.7991 111.206 17.006 118.688 15.7868 125.26C15.367 127.538 17.6657 130.834 19.9243 132.418C22.0231 133.893 23.782 134.782 23.782 134.782C23.782 134.782 24.5216 137.862 22.6227 141.939C20.7239 146.017 19.7244 146.863 19.7244 146.863C19.7244 146.863 6.97197 143.371 2.3347 134.088C-2.30256 124.805 0.195966 112.29 7.81147 104.482C15.447 96.6739 24.8614 90.7094 34.5557 88.1935C37.6339 87.391 34.1959 94.7002 33.6762 100.057C33.1565 105.415 28.8191 111.184 28.8191 111.184L28.7991 111.206Z" fill="#F6DEBE"/>
<path d="M119.626 109.904C118.806 110.273 118.266 110.49 118.266 110.49C118.266 110.49 118.986 110.381 119.726 110.446C120.425 110.511 121.165 110.707 121.245 111.314C121.365 112.095 120.785 112.702 120.245 113.092C119.846 113.374 119.486 113.526 119.486 113.526C119.486 113.526 119.945 113.418 120.445 113.526C120.925 113.591 121.425 113.852 121.505 114.589C121.585 115.392 120.965 115.934 120.365 116.237C119.886 116.519 119.426 116.628 119.426 116.628C119.426 116.628 119.786 116.563 120.105 116.671C120.485 116.78 120.845 117.127 120.665 118.059C120.485 118.949 119.506 119.578 118.246 119.99C118.246 119.99 118.227 119.99 118.207 119.99C117.787 120.141 117.307 120.25 116.847 120.358C115.928 120.554 114.968 120.662 114.109 120.684C111.53 120.814 106.913 120.619 106.913 120.619C106.913 120.619 101.436 116.91 106.094 111.032C106.094 111.032 108.932 110.338 110.051 108.841C111.171 107.345 112.55 105.48 114.469 105.762C115.308 105.892 115.828 106.239 116.148 106.586C116.548 107.041 116.627 107.497 116.627 107.497C116.627 107.497 116.747 107.432 116.947 107.345C118.506 106.629 125.182 103.679 125.902 105.198C126.502 106.477 122.004 108.755 119.646 109.817L119.626 109.904Z" fill="#E9A17A"/>
<g style="mix-blend-mode:multiply">
<path d="M120.345 116.259C119.865 116.541 119.406 116.65 119.406 116.65C119.406 116.65 118.286 116.78 117.047 117.235C116.687 117.365 116.328 117.539 116.028 117.821C115.728 118.081 115.548 118.45 115.568 118.862C115.568 119.252 115.808 119.534 116.128 119.708C116.527 119.946 117.007 120.033 117.467 120.055C117.707 120.055 117.947 120.055 118.186 120.012C117.767 120.163 117.287 120.272 116.827 120.38C116.587 120.315 116.348 120.25 116.108 120.142C115.548 119.903 115.108 119.426 115.168 118.732C115.208 117.951 115.708 117.452 116.288 117.083C116.348 117.04 116.407 117.018 116.467 116.997C116.368 116.997 116.288 116.997 116.208 116.997C115.808 116.932 115.388 116.823 115.108 116.498C114.768 116.107 114.748 115.587 114.908 115.11C114.189 114.719 113.769 114.004 113.529 113.158C113.369 112.659 113.289 112.117 113.229 111.574C113.189 111.162 113.149 110.685 113.309 110.295C113.349 110.208 113.489 110.23 113.509 110.316C113.569 110.75 113.549 111.206 113.609 111.661C113.669 112.16 113.809 112.637 113.969 113.114C114.249 113.939 114.788 114.806 115.668 114.915C116.567 115.045 117.127 114.155 117.247 113.31C117.407 112.117 117.127 110.902 116.907 109.753C116.707 108.69 116.467 107.649 116.148 106.629C116.547 107.085 116.627 107.54 116.627 107.54C116.627 107.54 117.387 109.189 117.527 110.1C117.707 110.056 117.887 110.013 118.047 109.991C118.466 109.926 118.906 109.861 119.346 109.861C119.446 109.861 119.546 109.861 119.646 109.861C118.826 110.23 118.286 110.447 118.286 110.447C118.286 110.447 118.326 110.512 117.887 110.577C117.807 110.577 117.707 110.598 117.607 110.62C117.747 111.509 117.887 112.485 117.727 113.375C118.406 113.223 119.086 113.114 119.785 113.049C119.925 113.049 120.105 113.049 120.265 113.028C119.865 113.31 119.506 113.461 119.506 113.461C119.506 113.461 118.266 113.743 117.567 113.917C117.507 114.047 117.447 114.177 117.387 114.307C116.947 115.11 116.108 115.5 115.268 115.218C115.088 115.63 115.088 116.086 115.468 116.368C115.808 116.628 116.288 116.693 116.687 116.715C116.747 116.715 116.807 116.715 116.867 116.715C117.447 116.454 118.106 116.324 118.726 116.238C119.266 116.173 119.825 116.107 120.365 116.151L120.345 116.259Z" fill="#D1B6A7"/>
</g>
<path d="M106.413 122.462C106.413 122.462 101.696 127.451 88.3839 125.412C82.3874 124.501 77.4303 121.66 73.8125 118.84C73.2928 118.45 72.813 118.038 72.3533 117.647C68.8554 114.654 66.9565 111.986 66.9565 111.986C66.9565 111.986 61.8995 104.2 60.6003 98.3222C59.301 92.4444 59.5409 87.0872 59.5409 87.0872C59.5409 87.0872 65.5373 86.957 71.7937 91.5551C78.03 96.1532 84.3862 104.2 91.562 107.28C98.7378 110.338 105.334 108.69 105.334 108.69C105.334 108.69 106.033 110.989 106.273 115.066C106.513 119.165 106.393 122.484 106.393 122.484L106.413 122.462Z" fill="#F6DEBE"/>
<path d="M72.9532 114.936C72.4535 112.616 71.7939 110.36 71.0743 108.104C70.6146 106.673 70.1349 105.241 69.6152 103.831C69.3353 103.094 69.0755 102.335 68.7757 101.619C68.4958 100.968 68.236 99.9924 67.5964 99.6888C67.4964 99.6454 67.3765 99.6237 67.2965 99.6888C67.2366 99.7538 67.2366 99.8406 67.2366 99.9274C67.2566 100.665 67.6763 101.185 67.9362 101.836C68.256 102.552 68.4958 103.333 68.7757 104.07C69.3153 105.567 69.835 107.063 70.2748 108.603C70.8944 110.729 71.3941 112.919 71.8538 115.088C72.0337 115.934 72.2136 116.802 72.3735 117.669C72.8333 118.06 73.313 118.45 73.8327 118.862C73.5928 117.539 73.233 116.194 72.9732 114.958L72.9532 114.936Z" fill="#BA917A"/>
<path d="M37.4141 83.0531L38.0337 97.1077C38.0337 97.1077 41.9314 103.181 47.8479 101.858C53.7644 100.513 54.2641 96.9776 54.2641 96.9776L52.6451 79.9082C52.6451 79.9082 45.6692 85.4606 37.4341 83.0531H37.4141Z" fill="#E9A17A"/>
<g style="mix-blend-mode:multiply">
<path d="M39.0931 90.6444C42.5111 91.6854 46.109 92.6831 49.6869 92.2277C51.086 92.0542 52.4452 91.6204 53.6845 90.8829L52.6451 79.9082C52.6451 79.9082 45.6692 85.4606 37.4341 83.0531L37.7539 90.1889C38.2136 90.3407 38.6734 90.4925 39.1331 90.6227L39.0931 90.6444Z" fill="#D1B6A7"/>
</g>
<path d="M75.6914 52.2328C75.6914 52.2328 81.4081 48.1769 83.1271 51.17C84.846 54.1414 84.3863 57.7201 80.4087 60.2144C76.431 62.7086 73.5327 61.7543 73.5327 61.7543L75.6914 52.2328Z" fill="#E9A17A"/>
<path d="M14.9873 36.6382C12.0691 47.7865 9.49058 73.2496 30.9779 84.7015C52.4652 96.1751 68.4558 79.7997 75.1718 62.5568C82.2277 44.3596 76.2912 19.1567 71.8938 17.3565C49.0472 8.05186 20.9838 13.7561 15.0073 36.6382H14.9873Z" fill="#E9A17A"/>
<path d="M47.2485 52.8407C47.2485 52.8407 47.3089 52.7532 47.2485 52.7532C47.188 52.7532 47.188 52.8407 47.2485 52.8407Z" fill="#423227"/>
<g style="mix-blend-mode:multiply">
<path d="M46.4087 49.7385C46.8284 50.823 46.6485 52.146 46.6285 53.2738C46.6285 54.5101 46.5486 55.8549 46.9683 57.0261C47.3681 58.1322 48.3075 58.6094 49.3669 58.5009C50.4663 58.4142 52.4251 57.4815 52.1653 59.542C52.0254 60.6915 51.4857 61.6459 50.5462 62.2315C50.0865 62.5351 49.5468 62.7086 49.0271 62.752C48.5474 62.7954 48.0077 62.6436 47.548 62.8388C47.3681 62.9255 47.2482 63.1858 47.3881 63.3593C47.9478 64.1618 49.187 63.9449 49.9666 63.728C50.886 63.4461 51.7455 62.8388 52.3052 62.0146C53.0448 60.9518 53.8643 58.1322 52.2652 57.3948C51.6056 57.0911 50.8261 57.1996 50.1465 57.3731C49.6068 57.5032 48.8872 57.7852 48.4075 57.308C47.6479 56.5272 47.7679 54.8788 47.7679 53.8378C47.7679 52.3195 47.8878 50.6494 47.2082 49.2613C46.9683 48.7625 46.1688 49.1963 46.3887 49.7168L46.4087 49.7385Z" fill="#D1B6A7"/>
</g>
<path d="M39.1729 67.1982C39.1729 67.1982 42.5708 69.0852 49.2869 69.1936C54.7437 69.2804 57.502 67.3501 57.502 67.3501C57.502 67.3501 58.5014 77.1753 49.3069 78.2164C40.0923 79.2791 39.1729 67.1982 39.1729 67.1982Z" fill="#423227"/>
<path d="M45.1493 70.3213C47.328 71.6661 50.2463 71.883 52.6449 71.2323C53.7642 70.9286 54.9235 70.3864 55.6831 69.4321C56.0429 68.9983 56.3027 68.4778 56.4226 67.8922C55.1634 68.4561 52.7648 69.2369 49.2669 69.1718C46.9482 69.1284 45.0294 68.8899 43.5103 68.5645C43.87 69.302 44.4697 69.8876 45.1493 70.2997V70.3213Z" fill="white"/>
<path d="M47.2081 77.4572C46.9683 76.3293 46.4086 75.2882 45.6491 74.5074C44.9095 73.7483 43.9701 73.2061 42.9307 73.0542C42.2311 72.9675 41.5515 73.0759 40.9119 73.3579C42.0912 75.7003 44.07 77.8909 47.3281 78.238C47.3081 77.9777 47.2681 77.7174 47.2081 77.4572Z" fill="#CE5456"/>
<path d="M34.9753 46.5719C34.2558 46.2466 33.4962 45.9863 32.7367 45.9863C31.9571 45.9863 31.1976 46.2683 30.498 46.6153C28.0794 47.8299 26.1605 50.129 25.2811 52.8618C25.0212 53.6643 24.8413 54.5319 24.8813 55.3994C24.9213 56.3971 25.2011 57.3515 25.6209 58.2407C27.2199 61.5375 30.9177 63.5329 34.2757 62.7738C37.4539 62.058 40.3522 58.5227 40.572 54.9657C40.7919 51.4954 37.7137 47.8733 34.9953 46.5936L34.9753 46.5719Z" fill="white"/>
<path d="M64.5979 45.2705C63.8783 44.9451 63.1188 44.6849 62.3592 44.6849C61.5797 44.6849 60.8201 44.9668 60.1205 45.3139C57.702 46.5285 55.7831 48.8275 54.9036 51.5604C54.6438 52.3629 54.4639 53.2304 54.5039 54.098C54.5238 55.0957 54.8237 56.05 55.2434 56.9393C56.8425 60.236 60.5403 62.2314 63.8983 61.4723C67.0764 60.7566 69.9747 57.2212 70.1946 53.6642C70.4145 50.1939 67.3363 46.5718 64.6179 45.2922L64.5979 45.2705Z" fill="white"/>
<path d="M15.8667 59.889C15.8667 59.889 12.3488 55.139 8.37112 57.6333C4.39347 60.1275 5.51281 66.4825 11.4293 67.6971C17.3458 68.9117 18.1054 63.6629 18.1054 63.6629L15.8667 59.8673V59.889Z" fill="#E9A17A"/>
<path d="M69.415 27.5287C69.415 27.5287 73.8324 33.5149 75.1916 40.4337C76.5508 47.3526 76.9706 53.5123 76.9706 53.5123C76.9706 53.5123 81.5879 48.0683 82.2275 40.7374C82.8271 34.0571 79.9688 26.2273 74.8918 24.8175C69.8148 23.4077 69.415 27.5287 69.415 27.5287Z" fill="#B0683F"/>
<path d="M68.6556 40.9543C68.1759 38.4166 65.4575 37.0719 63.2588 37.2454C62.939 37.2671 62.6391 37.3105 62.3393 37.3972C62.1794 37.4406 61.9995 37.5057 61.8396 37.6141C61.8396 37.6141 61.8396 37.6141 61.8196 37.6141C61.4998 37.8527 61.5398 37.8527 61.8996 37.6141C61.7797 37.6575 61.6597 37.7226 61.5398 37.7659C61.0801 38.0262 60.8402 38.6335 61.1001 39.1541C61.24 39.4143 61.4598 39.5878 61.7197 39.6746C61.7996 39.6963 61.9595 39.718 62.0595 39.718C62.3593 39.718 61.7797 39.5661 61.8396 39.6529C61.9995 39.8481 62.3393 39.8264 62.5592 39.8481C62.819 39.8698 62.2794 39.8047 62.5192 39.8481C62.6591 39.8481 62.7791 39.8915 62.919 39.9132C63.0389 39.9132 63.1588 39.9132 63.2788 39.9349C63.3187 39.9349 63.3787 39.9349 63.4187 39.9349C63.0789 39.9349 63.2588 39.9132 63.3787 39.9349C63.5186 39.9566 63.6785 39.9782 63.8384 39.9999C64.0183 40.0433 63.4986 39.9349 63.7585 39.9999C63.8784 40.0216 63.9784 40.0433 64.0983 40.065C64.3581 40.1301 64.618 40.1951 64.8778 40.2602C64.9978 40.3036 65.1177 40.3253 65.2376 40.3686C65.2976 40.3686 65.3575 40.412 65.4175 40.4337C65.4575 40.4337 65.4775 40.4554 65.5174 40.4771C65.6374 40.5205 65.6174 40.5205 65.4175 40.4337C65.6174 40.5855 65.8772 40.694 66.0971 40.8241C66.1571 40.8675 66.337 41.0627 66.4169 41.0627C66.297 41.0627 66.257 40.9109 66.3769 41.0627C66.4369 41.1061 66.4769 41.1711 66.5368 41.2145C66.6368 41.323 66.7167 41.4097 66.7967 41.5182C66.8367 41.5616 66.8567 41.6049 66.8966 41.6266C66.7167 41.4097 66.9166 41.67 66.9566 41.7351C67.5363 42.7111 68.8755 42.0821 68.6556 40.9543Z" fill="#B0683F"/>
<path d="M32.2971 39.9783C32.1772 39.8915 32.0572 39.7831 31.9173 39.718C31.8174 39.653 31.6975 39.6096 31.5975 39.5662C31.4176 39.4795 31.7174 39.653 31.5375 39.5228C31.1778 39.2626 30.5781 39.2409 30.1384 39.3059C29.3588 39.4144 28.5993 39.7397 27.9397 40.2386C27.2201 40.8025 26.6205 41.4098 26.1207 42.2123C26.0408 42.3641 25.9608 42.5159 25.8809 42.6678C25.7809 42.9063 25.661 43.1883 25.661 43.4703C25.701 43.2317 25.721 43.1883 25.661 43.3401C25.661 43.3618 25.661 43.3835 25.641 43.4269C25.6011 43.557 25.621 43.8824 25.5611 43.9474C25.5611 44.0342 25.5611 43.9908 25.5811 43.8173C25.5811 43.8607 25.5811 43.9041 25.5811 43.9257C25.5611 44.2294 25.5211 44.468 25.6011 44.7499C25.721 45.1837 26.1607 45.4657 26.5805 45.3572C26.8603 45.2705 27.1002 45.097 27.36 44.9451C27.44 44.9018 27.6199 44.7282 27.7198 44.6415C27.3001 44.8801 27.2201 44.9451 27.4999 44.7933C27.6598 44.7282 27.7998 44.6415 27.9197 44.4897C28.0196 44.4029 28.1196 44.2945 28.2195 44.186C28.6792 43.7305 29.099 43.21 29.5587 42.7545C29.6187 42.7111 29.6587 42.6461 29.7186 42.6027C29.7586 42.581 29.7786 42.5376 29.8186 42.5159C29.8985 42.4509 29.8585 42.4726 29.6986 42.6244C29.7586 42.6027 29.8186 42.5376 29.8585 42.4943C29.9585 42.4075 30.0784 42.3207 30.1784 42.234C30.2583 42.1689 30.2583 42.1472 30.1784 42.234C29.9785 42.3641 30.1784 42.234 30.2383 42.1906C30.2983 42.1472 30.3782 42.0822 30.4382 42.0388C30.5581 41.952 30.6781 41.887 30.818 41.8002C31.0778 41.6484 31.3776 41.4966 31.5975 41.3013C31.9373 41.0194 31.5176 41.3013 31.5176 41.3013C31.5176 41.3013 31.7174 41.2363 31.7374 41.2363C31.8773 41.1929 32.0173 41.1495 32.1572 41.1061C32.6969 40.976 32.6569 40.2603 32.2971 39.9566V39.9783Z" fill="#B0683F"/>
<path d="M12.9483 60.865C12.9483 60.865 17.1659 55.2692 20.5439 46.1814C23.9219 37.0937 23.8619 28.3529 23.8619 28.3529C23.8619 28.3529 30.538 38.8288 38.5333 36.4647C46.5285 34.1006 39.9724 26.4443 39.9724 26.4443C39.9724 26.4443 45.769 33.7752 51.1458 32.4522C56.5226 31.1291 50.9059 24.7091 50.9059 24.7091C50.9059 24.7091 64.5379 35.9441 76.1311 30.4785C87.7242 25.0345 86.425 12.3463 70.8941 5.44913C55.3633 -1.44804 46.6884 9.3315 46.6884 9.3315C46.6884 9.3315 47.0682 -1.07932 40.1123 0.0918979C33.1364 1.26311 29.1588 11.9776 29.1588 11.9776C29.1588 11.9776 28.739 4.36467 24.8413 7.22764C20.9436 10.0906 23.2023 20.1761 23.2023 20.1761C23.2023 20.1761 17.4857 9.7219 7.83137 18.7229C-1.82293 27.7239 2.1947 41.4966 4.75319 47.0924C7.31168 52.6882 12.9483 60.865 12.9483 60.865Z" fill="#B0683F"/>
<path d="M37.0542 47.96C35.9349 47.8299 34.7955 47.96 33.7761 48.5022C30.678 50.194 29.9584 55.2259 31.7173 58.2407C32.6168 59.7806 34.056 60.8651 35.635 61.4724C35.9349 61.5808 36.2547 61.6892 36.5745 61.7543C38.7332 60.3011 40.4122 57.6334 40.5721 54.9656C40.732 52.3846 39.053 49.6951 37.0542 47.96Z" fill="#423227"/>
<path d="M65.3974 45.726C64.5579 45.726 63.7384 45.8778 62.9389 46.2248C61.2199 46.9839 60.1005 48.6106 59.5209 50.4542C58.8613 52.5364 58.9412 54.5968 59.9606 56.5272C60.94 58.3708 62.5191 59.8456 64.2781 60.8216C64.4779 60.9301 64.6978 61.0385 64.9177 61.147C67.6761 59.9974 69.9747 56.8525 70.1746 53.6642C70.3745 50.541 67.8759 47.2659 65.3974 45.726Z" fill="#423227"/>
<path d="M36.5746 54.51C38.3335 54.8787 38.8532 51.929 37.0943 51.5603C35.3353 51.1915 34.8156 54.1413 36.5746 54.51Z" fill="white"/>
<path d="M66.2569 52.6015C68.0159 52.9702 68.5356 50.0205 66.7766 49.6518C65.0177 49.283 64.498 52.2328 66.2569 52.6015Z" fill="white"/>
<path d="M146.35 147.318C146.849 148.337 147.489 149.314 148.448 149.791C149.688 150.42 151.247 149.986 152.246 148.966C153.246 147.947 153.725 146.429 153.765 144.932C153.805 143.436 153.425 141.983 152.946 140.573C152.386 138.968 151.546 137.298 150.067 136.669C147.729 135.693 145.49 137.731 144.771 140.031C144.031 142.395 145.31 145.214 146.33 147.296L146.35 147.318Z" fill="#B0683F"/>
<path d="M163.16 86.7835C163.16 86.7835 147.729 87.1739 135.956 100.838C124.702 113.917 128.9 128.947 134.077 136.604C139.254 144.26 145.61 146.819 145.61 146.819C145.61 146.819 148.208 143.761 150.087 140.182C151.966 136.604 150.567 134.565 150.567 134.565C150.567 134.565 147.509 134.305 144.91 129.706C142.312 125.108 142.911 116.671 145.97 113.873C149.028 111.054 151.866 109.535 151.866 109.535L163.16 86.7835Z" fill="#7198B5"/>
<path d="M192.183 111.206C192.183 111.206 203.976 118.688 205.195 125.26C205.615 127.538 203.316 130.834 201.057 132.418C198.959 133.893 197.2 134.782 197.2 134.782C197.2 134.782 196.46 137.862 198.359 141.939C200.278 146.017 201.257 146.863 201.257 146.863C201.257 146.863 214.01 143.371 218.647 134.088C223.284 124.805 220.786 112.29 213.17 104.482C205.535 96.6739 196.12 90.7093 186.426 88.1934C183.348 87.3909 186.786 94.7002 187.305 100.057C187.825 105.415 192.163 111.184 192.163 111.184L192.183 111.206Z" fill="#7198B5"/>
<path d="M171.055 216.398C171.055 216.398 173.394 224.315 173.394 228.284C173.394 232.253 173.734 232.643 168.637 233.858C163.54 235.073 158.123 236.027 154.365 235.268C150.607 234.509 150.327 232.426 152.146 230.973C153.965 229.498 158.343 228.002 159.562 226.635C160.781 225.269 159.882 219.955 159.562 219.044C159.242 218.133 167.157 213.557 171.075 216.398H171.055Z" fill="#7198B5"/>
<path d="M199.398 217.765C199.398 217.765 202.437 225.399 202.796 229.347C203.156 233.294 203.516 233.641 198.559 235.398C193.582 237.155 188.285 238.673 184.487 238.304C180.689 237.936 180.21 235.918 181.889 234.27C183.568 232.622 187.785 230.67 188.865 229.173C189.964 227.698 188.585 222.493 188.185 221.625C187.785 220.758 195.241 215.379 199.398 217.765Z" fill="#7198B5"/>
<path d="M196.88 153.89C196.88 153.89 197.459 157.078 197.359 165.125C197.24 173.172 197.599 187.096 199.118 197.572C200.638 208.048 203.116 222.992 203.116 222.992C203.116 222.992 200.638 225.161 194.761 225.681C188.864 226.202 187.465 225.551 187.465 225.551C187.465 225.551 181.229 206.009 178.171 194.254C175.113 182.498 173.234 169.094 172.054 170.114C170.875 171.133 170.175 183.778 171.235 197.333C172.294 210.868 174.173 224.033 174.173 224.033C174.173 224.033 171.355 225.182 165.098 225.052C158.862 224.922 158.263 223.642 158.263 223.642C158.263 223.642 152.966 208.699 151.087 190.046C149.208 171.393 150.607 150.311 150.607 150.311C150.607 150.311 165.198 144.303 175.093 146.472C184.987 148.641 196.88 153.89 196.88 153.89Z" fill="#82342A"/>
<path d="M160.881 99.3633C160.361 102.617 160.561 105.978 161.361 109.167C162.12 112.182 163.459 115.066 165.638 117.148C167.797 119.231 170.675 120.185 173.553 119.773C176.452 119.361 178.95 117.561 180.969 115.327C182.948 113.136 184.647 110.533 186.026 107.865C187.525 104.937 188.764 101.814 189.544 98.5608C190.264 95.5243 190.563 92.3143 190.144 89.1911C186.586 87.8246 181.469 86.3064 176.272 86.3064C172.934 86.3064 169.956 86.3715 167.437 86.4799C164.119 89.9502 161.68 94.3314 160.881 99.3633Z" fill="white"/>
<path d="M193.701 130.249C192.642 121.053 192.882 114.784 193.222 107.757C193.582 100.73 194.861 91.2733 194.861 91.2733C194.861 91.2733 185.686 86.2847 176.252 86.2847C166.817 86.2847 160.361 86.8053 158.702 87.5644C157.043 88.3235 150.467 104.178 148.568 117.712C146.689 131.246 147.869 142.872 148.568 148.381C149.268 153.868 149.747 155.538 149.747 155.538C149.747 155.538 157.643 160.267 172.934 159.638C188.225 159.009 197.539 155.039 197.539 155.039C197.539 155.039 194.721 139.445 193.661 130.249H193.701ZM186.286 96.9775C185.087 99.7103 183.228 102.053 181.469 104.352C179.77 106.564 178.271 108.993 176.432 111.075C174.733 113.006 172.094 115.37 169.556 113.722C168.316 112.919 167.537 111.488 166.917 110.121C166.398 108.993 165.958 107.822 165.578 106.629C164.819 104.222 164.319 101.662 164.299 99.103C164.299 96.9124 164.699 94.5917 166.038 92.8782C167.477 91.078 169.656 90.5141 171.754 90.6226C174.073 90.0803 176.372 89.408 178.71 89.0826C181.009 88.7573 183.787 88.6489 185.646 90.4057C186.446 91.1648 187.005 92.2276 187.085 93.3771C187.165 94.6134 186.746 95.8497 186.266 96.9558L186.286 96.9775Z" fill="#7198B5"/>
<path d="M183.967 83.8775L183.348 97.9537C183.348 97.9537 179.45 104.027 173.534 102.704C167.617 101.359 167.117 97.8236 167.117 97.8236L168.736 80.7542C168.736 80.7542 175.712 86.3066 183.947 83.8991L183.967 83.8775Z" fill="#B0683F"/>
<g style="mix-blend-mode:multiply">
<path d="M182.268 91.4685C178.85 92.5096 175.253 93.5073 171.675 93.0518C170.275 92.8783 168.916 92.4445 167.677 91.7071L168.716 80.7324C168.716 80.7324 175.692 86.2848 183.927 83.8773L183.608 91.013C183.148 91.1649 182.688 91.3167 182.228 91.4468L182.268 91.4685Z" fill="#AEA7A2"/>
</g>
<path d="M147.269 51.6253C147.269 51.6253 141.732 47.2875 139.893 50.1722C138.034 53.0568 138.354 56.6572 142.232 59.3467C146.11 62.0362 149.028 61.2337 149.028 61.2337L147.269 51.6253Z" fill="#B0683F"/>
<path d="M208.573 39.0673C211.011 50.3457 212.511 75.9173 190.563 86.2847C168.616 96.6521 153.325 79.5177 147.369 61.9494C141.093 43.4269 150.667 20.5231 155.144 18.9398C178.351 10.7846 203.576 15.9033 208.573 39.0673Z" fill="#B0683F"/>
<path d="M175.673 53.6431C175.673 53.6431 175.733 53.5557 175.673 53.5557C175.612 53.5557 175.612 53.6431 175.673 53.6431Z" fill="#423227"/>
<g style="mix-blend-mode:multiply">
<path d="M176.632 50.5843C176.172 51.6471 176.292 52.9701 176.252 54.098C176.212 55.3342 176.212 56.679 175.752 57.8285C175.312 58.913 174.353 59.325 173.294 59.1949C172.214 59.0431 170.275 58.0237 170.455 60.0842C170.555 61.2337 171.055 62.2097 171.954 62.8604C172.414 63.1857 172.934 63.3809 173.454 63.446C173.933 63.5111 174.473 63.3809 174.913 63.6195C175.093 63.7063 175.192 63.9665 175.053 64.1617C174.453 64.9425 173.234 64.6606 172.454 64.4003C171.555 64.075 170.715 63.4243 170.175 62.5784C169.496 61.4723 168.796 58.6093 170.415 57.9586C171.095 57.6984 171.874 57.8502 172.534 58.0454C173.074 58.1972 173.793 58.5225 174.273 58.0671C175.073 57.308 175.013 55.6596 175.053 54.6402C175.113 53.1219 175.053 51.4519 175.812 50.0854C176.072 49.5866 176.852 50.0638 176.612 50.5843H176.632Z" fill="#AEA7A2"/>
</g>
<path d="M183.308 69.237C183.308 69.237 179.83 70.9504 173.114 70.7119C167.657 70.5166 164.979 68.4562 164.979 68.4562C164.979 68.4562 164.179 75.939 173.434 76.2426C182.708 76.5246 183.308 69.237 183.308 69.237Z" fill="#423227"/>
<path d="M177.171 72.0782C174.933 73.3145 172.014 73.3796 169.636 72.6205C168.517 72.2517 167.397 71.6661 166.678 70.6684C166.338 70.213 166.098 69.6707 165.998 69.1068C167.237 69.7358 169.576 70.6251 173.094 70.7552C175.412 70.8419 177.331 70.6901 178.87 70.4515C178.491 71.1673 177.851 71.7312 177.171 72.0999V72.0782Z" fill="white"/>
<path d="M188.185 48.0032C188.904 47.6995 189.684 47.4827 190.444 47.526C191.223 47.5694 191.963 47.8731 192.662 48.2635C195.021 49.5865 196.86 51.994 197.619 54.7485C197.839 55.5727 197.979 56.4403 197.919 57.2862C197.839 58.2839 197.519 59.2165 197.06 60.0841C195.321 63.2941 191.563 65.116 188.225 64.1833C185.087 63.3158 182.328 59.6286 182.268 56.0499C182.208 52.5796 185.427 49.1093 188.205 47.9598L188.185 48.0032Z" fill="white"/>
<path d="M158.642 45.2271C159.362 44.9234 160.142 44.7065 160.901 44.7499C161.681 44.7933 162.42 45.0969 163.12 45.4873C165.478 46.8104 167.317 49.2179 168.077 51.9724C168.297 52.7966 168.437 53.6642 168.377 54.51C168.297 55.5078 167.977 56.4404 167.517 57.308C165.778 60.518 162.02 62.3398 158.682 61.4072C155.544 60.5396 152.786 56.8525 152.726 53.2738C152.666 49.8035 155.884 46.3332 158.662 45.1837L158.642 45.2271Z" fill="white"/>
<path d="M206.714 62.2531C206.714 62.2531 210.412 57.6767 214.289 60.3662C218.167 63.0556 216.768 69.3455 210.811 70.2781C204.855 71.2108 204.315 65.9186 204.315 65.9186L206.714 62.2531Z" fill="#B0683F"/>
<path d="M156.464 41.5182C156.604 41.3013 156.364 41.6049 156.464 41.5182C156.504 41.4748 156.544 41.4097 156.584 41.3663C156.663 41.2796 156.743 41.1928 156.803 41.1061C156.803 41.1061 157.023 40.8675 157.043 40.8675C157.043 40.8675 156.843 41.0193 156.983 40.9109C157.063 40.8675 157.123 40.8024 157.203 40.759C157.303 40.694 157.383 40.6289 157.483 40.5855C157.563 40.5421 157.763 40.4771 157.823 40.412C157.823 40.412 157.543 40.5205 157.743 40.4554C157.783 40.4554 157.843 40.412 157.883 40.3903C158.023 40.3469 158.143 40.3036 158.283 40.2602C158.522 40.1951 158.762 40.1517 159.002 40.1084C159.122 40.0867 159.222 40.065 159.342 40.0433C159.402 40.0433 159.482 40.0433 159.542 39.9999C159.402 40.0433 159.282 40.0433 159.502 39.9999C159.982 39.9565 160.461 39.9348 160.921 39.8915C161.141 39.8915 161.341 39.8481 161.561 39.7613C162 39.5661 161.121 39.7613 161.421 39.783C161.461 39.783 161.521 39.783 161.561 39.783C162.16 39.7396 162.68 39.1974 162.5 38.525C162.42 38.2214 162.22 38.0045 161.98 37.8527C161.94 37.8527 161.9 37.7876 161.86 37.7876C161.94 37.8744 162.02 37.9828 162.1 38.0696C162.04 37.9828 161.98 37.9177 161.92 37.831C161.681 37.549 161.241 37.3972 160.901 37.3105C160.321 37.1803 159.742 37.1586 159.162 37.202C158.462 37.2671 157.883 37.4406 157.243 37.7442C156.064 38.3082 155.084 39.3275 154.765 40.694C154.645 41.1711 154.865 41.6917 155.304 41.8869C155.764 42.0821 156.184 41.8869 156.464 41.4748V41.5182Z" fill="#423227"/>
<path d="M191.243 42.7111C191.383 42.7545 191.503 42.7979 191.643 42.8629C191.683 42.8629 191.803 42.928 191.843 42.9497C191.623 42.7762 191.563 42.7545 191.643 42.8195C191.663 42.8195 191.683 42.8629 191.703 42.8846C191.963 43.1232 192.282 43.3184 192.562 43.4919C192.682 43.5787 192.822 43.6654 192.942 43.7522C193.042 43.8389 193.142 44.0124 192.922 43.7305C192.962 43.7739 193.022 43.8172 193.062 43.8606C193.302 44.0775 193.542 44.2944 193.762 44.5113C194.201 44.9668 194.581 45.509 195.021 45.9645C195.121 46.0729 195.241 46.2031 195.341 46.3115C195.421 46.3766 195.521 46.4633 195.601 46.5284C195.72 46.5935 195.68 46.5501 195.521 46.4416C195.521 46.485 195.641 46.5718 195.68 46.5935C195.68 46.5935 196 46.8754 196.02 46.8537C196.02 46.8537 195.82 46.6802 196 46.832C196.2 47.0056 196.38 47.1357 196.62 47.2008C196.92 47.2875 197.359 47.1574 197.499 46.8104C197.679 46.3549 197.679 45.856 197.599 45.3789C197.579 45.2704 197.519 44.9234 197.559 45.3789C197.559 45.2054 197.539 45.0318 197.479 44.8583C197.419 44.6197 197.3 44.3595 197.18 44.1426C196.82 43.3835 196.24 42.7328 195.621 42.2122C194.921 41.6266 194.141 41.1278 193.262 40.9976C192.802 40.9326 192.262 40.9109 191.843 41.1712C191.663 41.3013 191.983 41.1278 191.803 41.1929C191.743 41.1929 191.663 41.2362 191.603 41.2579C191.403 41.3447 191.243 41.4314 191.063 41.5616C190.663 41.8652 190.703 42.5593 191.203 42.7111H191.243Z" fill="#423227"/>
<path d="M186.066 49.2613C187.185 49.1962 188.325 49.3481 189.304 49.9554C192.322 51.7989 192.842 56.8742 190.943 59.7806C189.984 61.2771 188.485 62.2965 186.886 62.817C186.586 62.9255 186.266 62.9906 185.946 63.0556C183.847 61.494 182.288 58.7612 182.248 56.0717C182.188 53.469 183.987 50.888 186.046 49.2613H186.066Z" fill="#423227"/>
<path d="M157.843 45.6175C158.682 45.6608 159.502 45.856 160.281 46.2247C161.96 47.0489 163.02 48.7407 163.52 50.6277C164.079 52.7532 163.919 54.792 162.82 56.6789C161.761 58.4791 160.122 59.8673 158.343 60.7348C158.123 60.8433 157.903 60.93 157.683 61.0168C154.985 59.7154 152.806 56.462 152.746 53.2737C152.686 50.1505 155.304 47.0056 157.863 45.5958L157.843 45.6175Z" fill="#423227"/>
<path d="M186.246 55.8548C184.487 56.1367 184.087 53.1653 185.846 52.8833C187.605 52.6014 188.005 55.5728 186.246 55.8548Z" fill="white"/>
<path d="M156.683 52.4496C154.924 52.7315 154.525 49.7601 156.284 49.4781C158.043 49.1962 158.442 52.1676 156.683 52.4496Z" fill="white"/>
<path d="M220.925 35.5971C220.746 33.9921 220.066 32.5389 219.007 31.4111C218.307 30.6737 217.427 30.1314 216.688 29.4374C217.068 27.442 217.827 25.5116 217.547 23.4512C217.348 21.8895 216.588 20.5014 215.429 19.5471C213.49 17.9421 210.631 17.4866 208.193 18.0289C208.193 16.3588 208.233 14.6887 207.773 13.0837C207.214 11.1317 205.834 9.78696 204.035 9.20135C200.997 8.20365 197.139 9.07121 194.701 11.392C194.201 7.66142 192.562 3.97425 188.904 2.99824C185.107 2.00054 182.228 4.53817 180.03 7.53128C178.77 3.43202 173.853 0.438915 170.135 0.894388C166.178 1.37155 163.579 4.55986 162.2 8.33378C159.642 6.55527 156.583 5.42743 153.545 6.07811C150.967 6.64202 149.488 8.87601 148.508 11.392C147.789 13.2572 147.369 15.2526 147.009 17.2264C146.929 17.7035 146.849 18.1807 146.789 18.6795C146.749 18.9832 146.789 19.6339 146.629 19.8941C146.369 20.3713 145.37 20.458 144.93 20.5665C143.611 20.9135 142.312 21.3473 141.412 22.5185C140.513 23.6897 140.013 25.1646 139.833 26.6828C139.394 30.5218 140.813 34.1439 142.772 37.2238C140.693 39.1324 139.394 41.8002 139.933 44.7933C140.933 50.259 145.73 52.3412 145.87 52.2544C147.449 51.3435 148.428 47.396 148.908 45.5958C149.508 43.4052 149.348 41.1062 148.388 39.1108C152.266 37.7226 152.846 32.1485 152.026 27.9842C155.344 29.9796 159.742 29.2422 162 25.8587C162.84 27.4853 164.839 28.483 166.438 28.7216C168.836 29.0903 171.195 28.2445 172.794 26.3575C173.413 28.9168 175.452 30.3917 178.051 30.5869C179.67 30.6953 181.429 30.6303 182.988 30.1314C183.647 29.9145 184.287 29.6326 184.867 29.2639C185.446 28.9168 185.866 28.3963 186.346 27.9408C187.065 30.5001 189.544 32.3437 191.823 32.9727C194.241 33.6234 196.94 33.5583 199.178 32.3654C198.978 34.3608 199.478 36.3996 200.937 37.766C202.296 39.0457 203.975 39.1975 205.554 38.7203C204.855 40.3253 204.375 42.0605 204.395 43.8607C204.395 46.1814 205.515 48.1118 206.654 49.977C206.814 49.9554 206.994 50.1289 206.894 50.3241C206.174 51.582 204.355 54.7704 204.695 56.2669C204.995 57.5899 205.754 58.7612 206.594 59.7372C207.373 60.6698 208.253 61.4723 209.192 62.2097C212.151 61.3639 216.188 56.8959 217.887 54.2498C219.986 51.0181 219.346 47.4828 217.348 44.5547C218.347 43.5787 219.166 42.3208 219.806 41.1062C220.706 39.371 221.165 37.5491 220.945 35.5537L220.925 35.5971Z" fill="#423227"/>
<path d="M182.308 112.464C185.766 112.637 189.224 112.637 192.662 112.29C192.782 112.29 192.902 112.247 193.042 112.247C193.102 110.772 193.162 109.297 193.242 107.779C193.242 107.735 193.242 107.692 193.242 107.627C191.703 107.844 190.144 107.996 188.585 108.104C185.267 108.364 181.909 108.451 178.59 108.321C177.911 109.275 177.191 110.208 176.432 111.076C176.212 111.336 175.972 111.596 175.712 111.856C177.911 112.095 180.09 112.355 182.308 112.464Z" fill="#A2CB9C"/>
<path d="M155.224 125.976C158.762 127.147 162.32 128.145 166.018 128.492C169.976 128.861 173.973 128.904 177.951 128.666C183.128 128.362 188.245 127.559 193.342 126.583C193.142 124.111 193.022 121.833 192.962 119.665C192.182 119.773 191.403 119.881 190.643 119.968C183.068 120.923 175.392 121.161 167.797 120.445C164.059 120.098 160.341 119.469 156.683 118.58C154.045 117.929 151.406 117.149 148.868 116.151C148.788 116.671 148.688 117.192 148.628 117.713C148.348 119.73 148.148 121.703 147.989 123.634C150.427 124.306 152.826 125.152 155.244 125.954L155.224 125.976Z" fill="#A2CB9C"/>
<path d="M154.685 108.625C156.643 109.427 158.702 109.796 160.761 110.143C162.94 110.512 165.138 110.772 167.337 111.01C167.177 110.707 167.037 110.425 166.897 110.121C166.418 109.058 165.998 107.952 165.638 106.824C163.2 106.326 160.781 105.718 158.402 104.959C156.304 104.287 154.185 103.506 152.146 102.573C151.686 104.026 151.247 105.523 150.827 107.063C152.126 107.518 153.385 108.104 154.665 108.625H154.685Z" fill="#A2CB9C"/>
<path d="M197.519 135.172C197.519 135.172 192.562 134.999 190.044 139.532C187.525 144.043 189.004 148.229 191.743 150.485C194.481 152.741 199.658 152.003 200.098 150.203C200.538 148.403 199.578 147.145 200.138 145.475C200.697 143.805 202.916 142.113 202.916 142.113C202.916 142.113 201.617 134.218 197.519 135.172Z" fill="#B0683F"/>
<path d="M212.91 123.915C210.372 123.872 207.653 124.154 205.135 124.957C205.155 125.043 205.175 125.152 205.195 125.238C205.614 127.516 203.316 130.813 201.057 132.396C198.958 133.871 197.199 134.76 197.199 134.76C197.199 134.76 196.46 137.84 198.359 141.917C200.278 145.995 201.257 146.841 201.257 146.841C201.257 146.841 214.009 143.349 218.647 134.066C220.006 131.333 220.746 128.318 220.925 125.217C218.307 124.349 215.569 123.915 212.89 123.872L212.91 123.915Z" fill="#7198B5"/>
</svg>
