<svg width="402" height="239" viewBox="0 0 402 239" fill="none" xmlns="http://www.w3.org/2000/svg">
<path d="M116.061 89.1911C116.061 89.1911 108.801 89.9936 102.149 100.47C95.4961 110.945 91.4376 126.54 93.2786 138.924C95.1195 151.309 102.274 160.765 104.492 162.934C106.709 165.103 109.178 167.793 109.178 167.793L118.424 159.226C118.424 159.226 110.538 145.8 108.927 137.753C107.316 129.707 111.395 121.53 113.613 119.491C115.83 117.452 119.659 114.893 119.659 114.893C119.659 114.893 119.512 87.8681 116.081 89.1694L116.061 89.1911Z" fill="#7198B5"/>
<path d="M159.7 159.16C161.394 157.078 163.026 154.823 163.947 152.242C164.972 149.379 164.867 146.277 164.344 143.327C163.821 140.334 162.901 137.363 162.817 134.305C162.817 134.283 162.817 134.261 162.817 134.24C161.645 128.232 162.106 121.725 162.106 115.24C162.106 108.343 160.557 103.289 156.625 96.522C152.838 90.0152 144.805 87.7162 144.805 87.7162C144.805 87.7162 148.989 121.183 148.989 132.309C148.989 142.33 152.901 161.091 155.286 164.106C156.792 162.501 158.298 160.917 159.7 159.204V159.16Z" fill="#7198B5"/>
<path d="M136.039 216.398C136.039 216.398 133.591 224.315 133.591 228.284C133.591 232.253 133.236 232.643 138.57 233.858C143.905 235.073 149.574 236.027 153.507 235.268C157.419 234.487 157.733 232.427 155.829 230.973C153.926 229.499 149.344 228.002 148.068 226.636C146.792 225.269 147.733 219.955 148.068 219.044C148.403 218.133 140.118 213.557 136.018 216.398H136.039Z" fill="#7198B5"/>
<path d="M106.395 217.765C106.395 217.765 103.216 225.399 102.839 229.347C102.462 233.294 102.086 233.641 107.274 235.398C112.483 237.155 118.027 238.673 122.002 238.304C125.977 237.936 126.479 235.919 124.721 234.27C122.964 232.622 118.55 230.67 117.42 229.173C116.27 227.698 117.713 222.493 118.132 221.625C118.55 220.758 110.747 215.379 106.395 217.765Z" fill="#7198B5"/>
<path d="M109.031 153.89C109.031 153.89 108.425 157.078 108.529 165.125C108.655 173.172 108.278 187.096 106.688 197.572C105.098 208.048 102.504 222.992 102.504 222.992C102.504 222.992 105.098 225.161 111.249 225.681C117.42 226.202 118.885 225.551 118.885 225.551C118.885 225.551 125.412 206.009 128.612 194.254C131.813 182.498 133.78 169.094 135.014 170.114C136.248 171.133 136.98 183.778 135.872 197.333C134.763 210.868 132.796 224.033 132.796 224.033C132.796 224.033 135.746 225.182 142.294 225.052C148.821 224.922 149.449 223.642 149.449 223.642C149.449 223.642 154.993 208.699 156.959 190.046C158.926 171.393 156.562 151.049 156.562 151.049C156.562 151.049 142.19 144.303 131.834 146.472C121.479 148.641 109.031 153.89 109.031 153.89Z" fill="#82342A"/>
<path d="M146.708 99.3634C146.018 95.2641 144.156 91.577 141.625 88.4754C140.432 87.8247 139.219 87.2825 137.838 86.9788C136.792 86.7403 135.725 86.6101 134.658 86.6101C133.717 86.6101 132.838 86.7836 131.939 86.9138C131.667 86.9572 131.478 86.5884 131.729 86.4149C131.813 86.3715 131.897 86.3282 131.98 86.2848C131.52 86.2848 131.081 86.2848 130.621 86.2848C125.181 86.2848 119.805 87.803 116.102 89.1695C115.663 92.2927 115.977 95.5027 116.73 98.5392C117.546 101.793 118.822 104.916 120.412 107.844C121.855 110.512 123.633 113.136 125.704 115.305C127.817 117.539 130.432 119.339 133.466 119.751C136.478 120.163 139.47 119.209 141.75 117.127C144.03 115.023 145.432 112.16 146.227 109.145C147.064 105.957 147.273 102.595 146.729 99.3417L146.708 99.3634Z" fill="white"/>
<path d="M157.649 155.126C157.712 153.478 157.817 151.83 157.921 150.203C158.11 147.231 158.361 144.26 158.57 141.289C159.177 131.702 158.905 121.963 157.252 112.485C156.436 107.735 155.244 103.007 153.633 98.4741C152.273 94.6351 151.959 93.7892 149.972 90.2539C140.725 85.2654 139.805 86.3065 130.6 86.3065C120.746 86.3065 111.123 91.295 111.123 91.295C111.123 91.295 112.483 100.751 112.839 107.779C113.215 114.806 113.445 121.074 112.337 130.27C111.228 139.467 108.278 155.061 108.278 155.061C108.278 155.061 118.006 159.03 134.031 159.659C147.378 160.202 155.306 157.013 157.587 155.929C157.587 155.669 157.608 155.408 157.629 155.148L157.649 155.126ZM141.792 106.629C141.395 107.822 140.934 108.993 140.39 110.121C139.742 111.488 138.926 112.919 137.629 113.722C134.972 115.37 132.211 113.006 130.432 111.076C128.508 108.972 126.939 106.564 125.161 104.352C123.32 102.053 121.374 99.6887 120.119 96.9559C119.617 95.8497 119.177 94.6134 119.261 93.3771C119.345 92.2276 119.931 91.1432 120.767 90.4057C122.734 88.6489 125.621 88.7573 128.027 89.0827C130.495 89.4297 132.88 90.0804 135.307 90.6226C137.524 90.5359 139.805 91.0781 141.29 92.8783C142.692 94.5917 143.131 96.9125 143.11 99.1031C143.11 101.662 142.566 104.222 141.771 106.629H141.792Z" fill="#7198B5"/>
<path d="M124.282 112.464C120.663 112.637 117.044 112.637 113.445 112.29C113.32 112.29 113.194 112.247 113.048 112.247C112.985 110.772 112.922 109.297 112.839 107.779C112.839 107.735 112.839 107.692 112.839 107.627C114.449 107.844 116.081 107.996 117.713 108.104C121.186 108.364 124.7 108.451 128.173 108.321C128.884 109.275 129.637 110.208 130.432 111.076C130.663 111.336 130.914 111.596 131.186 111.856C128.884 112.095 126.604 112.355 124.282 112.464Z" fill="#A2CB9C"/>
<path d="M157.859 116.671C155.641 117.43 153.361 118.059 151.102 118.602C147.273 119.491 143.382 120.098 139.47 120.467C131.52 121.183 123.487 120.944 115.558 119.99C114.742 119.903 113.927 119.795 113.132 119.686C113.09 121.833 112.964 124.132 112.734 126.605C118.069 127.559 123.424 128.383 128.843 128.687C133.006 128.926 137.169 128.882 141.332 128.514C145.202 128.167 148.926 127.169 152.629 125.998C154.616 125.369 156.583 124.718 158.591 124.132C158.424 121.638 158.193 119.166 157.88 116.693L157.859 116.671Z" fill="#A2CB9C"/>
<path d="M155.034 102.899C153.152 103.68 151.227 104.352 149.281 104.959C146.792 105.718 144.261 106.326 141.708 106.824C141.332 107.952 140.893 109.058 140.39 110.121C140.244 110.425 140.098 110.707 139.93 111.011C142.231 110.772 144.533 110.512 146.813 110.143C148.968 109.796 151.122 109.427 153.173 108.625C154.177 108.234 155.181 107.822 156.206 107.432C155.85 105.914 155.474 104.395 155.034 102.899Z" fill="#A2CB9C"/>
<path d="M122.42 83.4652L123.069 97.5415C123.069 97.5415 127.148 103.614 133.34 102.291C139.533 100.968 140.056 97.4113 140.056 97.4113L138.361 80.3419C138.361 80.3419 131.06 85.8944 122.441 83.4869L122.42 83.4652Z" fill="#B0683F"/>
<g style="mix-blend-mode:multiply">
<path d="M124.198 91.0347C127.776 92.0758 131.541 93.0518 135.286 92.618C136.75 92.4445 138.173 92.0108 139.47 91.2733L138.382 80.2986C138.382 80.2986 131.081 85.851 122.462 83.4435L122.797 90.5793C123.278 90.7311 123.759 90.8829 124.24 91.013L124.198 91.0347Z" fill="#AEA7A2"/>
</g>
<path d="M160.829 51.2134C160.829 51.2134 166.624 46.8755 168.549 49.7602C170.473 52.6448 170.16 56.2452 166.101 58.9347C162.043 61.6242 158.988 60.8217 158.988 60.8217L160.829 51.2134Z" fill="#B0683F"/>
<path d="M96.6674 38.6553C94.1152 49.9337 92.5462 75.5052 115.516 85.8727C138.487 96.2401 154.49 79.1056 160.725 61.5374C167.294 43.0148 157.273 20.111 152.587 18.5277C128.299 10.3726 101.897 15.4912 96.6674 38.6553Z" fill="#B0683F"/>
<path d="M131.102 53.2304C131.102 53.2304 131.165 53.1437 131.102 53.1437C131.039 53.1437 131.039 53.2304 131.102 53.2304Z" fill="#423227"/>
<g style="mix-blend-mode:multiply">
<path d="M130.098 50.1723C130.579 51.2351 130.453 52.5581 130.495 53.6859C130.537 54.9222 130.537 56.267 131.018 57.4165C131.478 58.5009 132.483 58.913 133.591 58.7829C134.721 58.6311 136.75 57.6117 136.562 59.6722C136.457 60.8217 135.934 61.7977 134.993 62.4484C134.512 62.7737 133.968 62.9689 133.424 63.0557C132.922 63.1207 132.357 62.9906 131.897 63.2292C131.709 63.3159 131.604 63.5762 131.75 63.7714C132.378 64.5522 133.654 64.2703 134.47 64.01C135.411 63.6847 136.29 63.034 136.855 62.1881C137.566 61.082 138.298 58.219 136.604 57.5683C135.893 57.308 135.077 57.4599 134.386 57.6551C133.821 57.8069 133.068 58.1322 132.566 57.6768C131.729 56.9176 131.792 55.2693 131.75 54.2499C131.688 52.7316 131.75 51.0615 130.955 49.6951C130.683 49.1963 129.868 49.6734 130.119 50.194L130.098 50.1723Z" fill="#AEA7A2"/>
</g>
<path d="M118.006 47.5912C117.253 47.2875 116.437 47.0706 115.642 47.114C114.826 47.1574 114.052 47.461 113.32 47.8514C110.851 49.1745 108.927 51.582 108.132 54.3365C107.901 55.1607 107.755 56.0282 107.818 56.8741C107.901 57.8718 108.236 58.8045 108.717 59.672C110.537 62.882 114.47 64.7039 117.964 63.7713C121.248 62.9037 124.135 59.2166 124.198 55.6378C124.261 52.1676 120.893 48.6973 117.985 47.5478L118.006 47.5912Z" fill="white"/>
<path d="M148.926 44.815C148.173 44.5114 147.357 44.2945 146.562 44.3379C145.746 44.3812 144.972 44.6849 144.24 45.0753C141.771 46.3983 139.846 48.8058 139.052 51.5604C138.821 52.3846 138.675 53.2521 138.738 54.098C138.821 55.0957 139.156 56.0283 139.637 56.8959C141.457 60.1059 145.411 61.9278 148.884 60.9952C152.168 60.1276 155.055 56.4404 155.118 52.8617C155.181 49.3914 151.813 45.9212 148.905 44.7716L148.926 44.815Z" fill="white"/>
<path d="M98.613 61.841C98.613 61.841 94.7428 57.2645 90.6843 59.954C86.6258 62.6435 88.0902 68.9333 94.3244 69.866C100.559 70.7986 101.123 65.5064 101.123 65.5064L98.613 61.841Z" fill="#B0683F"/>
<path d="M151.206 41.1061C151.311 41.1929 151.06 40.8892 151.206 41.1061C151.164 41.0627 151.122 40.9977 151.081 40.9543C150.997 40.8675 150.913 40.7808 150.85 40.694C150.85 40.694 150.62 40.4554 150.599 40.4554C150.599 40.4554 150.809 40.6073 150.662 40.4988C150.578 40.4554 150.516 40.3904 150.432 40.347C150.327 40.2819 150.244 40.2169 150.139 40.1735C150.055 40.1301 149.846 40.065 149.783 40C149.783 40 150.076 40.1084 149.867 40.0433C149.825 40.0433 149.763 40 149.721 39.9783C149.574 39.9349 149.449 39.8915 149.302 39.8481C149.051 39.7831 148.8 39.7397 148.549 39.6963C148.424 39.6746 148.319 39.6529 148.194 39.6312C148.131 39.6312 148.047 39.6312 147.984 39.5879C148.131 39.6312 148.256 39.6312 148.026 39.5879C147.524 39.5445 147.022 39.5228 146.541 39.4794C146.311 39.4794 146.081 39.436 145.871 39.3493C145.411 39.1541 146.332 39.3493 146.018 39.371C145.976 39.371 145.913 39.371 145.871 39.371C145.244 39.3276 144.7 38.7854 144.888 38.113C144.972 37.8093 145.181 37.5925 145.432 37.4406C145.474 37.4406 145.516 37.3756 145.558 37.3756C145.474 37.4623 145.39 37.5708 145.307 37.6575C145.369 37.5708 145.432 37.5057 145.495 37.4189C145.746 37.137 146.206 36.9852 146.562 36.8984C147.168 36.7683 147.775 36.7466 148.382 36.79C149.114 36.855 149.721 37.0285 150.39 37.3322C151.624 37.8961 152.65 38.9155 152.984 40.2819C153.11 40.7591 152.88 41.2796 152.419 41.4748C151.938 41.67 151.499 41.4748 151.206 41.0627V41.1061Z" fill="#423227"/>
<path d="M114.805 42.299C114.659 42.3424 114.533 42.3858 114.387 42.4509C114.345 42.4509 114.219 42.5159 114.178 42.5376C114.408 42.3641 114.471 42.3424 114.387 42.4075C114.366 42.4075 114.345 42.4509 114.324 42.4726C114.052 42.7111 113.717 42.9063 113.404 43.0799C113.278 43.1666 113.132 43.2534 113.006 43.3401C112.902 43.4269 112.797 43.5787 113.048 43.3184C113.006 43.3618 112.943 43.4052 112.902 43.4486C112.65 43.6655 112.399 43.8824 112.169 44.0992C111.709 44.5547 111.312 45.097 110.851 45.5524C110.747 45.6609 110.621 45.791 110.517 45.8995C110.433 45.9645 110.328 46.0513 110.245 46.1163C110.119 46.1814 110.161 46.138 110.328 46.0296C110.328 46.073 110.203 46.1597 110.161 46.1814C110.161 46.1814 109.826 46.4634 109.805 46.4417C109.805 46.4417 110.015 46.2682 109.826 46.42C109.617 46.5935 109.429 46.7236 109.178 46.7887C108.864 46.8755 108.404 46.7453 108.257 46.3983C108.069 45.9428 108.069 45.444 108.153 44.9668C108.153 44.8584 108.236 44.5113 108.195 44.9668C108.195 44.7933 108.215 44.6198 108.278 44.4463C108.341 44.2077 108.466 43.9474 108.592 43.7305C108.969 42.9714 109.575 42.3207 110.224 41.8002C110.956 41.2146 111.772 40.7157 112.692 40.5856C113.173 40.5205 113.738 40.4988 114.178 40.7591C114.366 40.8893 114.031 40.7157 114.219 40.7808C114.282 40.7808 114.366 40.8242 114.429 40.8459C114.638 40.9326 114.805 41.0194 114.994 41.1495C115.412 41.4532 115.37 42.1472 114.847 42.299H114.805Z" fill="#423227"/>
<path d="M120.224 48.8492C119.052 48.7841 117.86 48.9359 116.835 49.5432C113.676 51.3868 113.132 56.4621 115.119 59.3684C116.123 60.865 117.692 61.8844 119.366 62.4049C119.68 62.5134 120.014 62.5784 120.349 62.6435C122.546 61.0819 124.178 58.3491 124.219 55.6596C124.282 53.0569 122.399 50.4759 120.245 48.8492H120.224Z" fill="#423227"/>
<path d="M149.763 45.2054C148.884 45.2488 148.026 45.444 147.21 45.8127C145.453 46.6369 144.344 48.3286 143.821 50.2156C143.236 52.3411 143.403 54.3799 144.554 56.2669C145.662 58.0671 147.378 59.4552 149.24 60.3228C149.47 60.4312 149.7 60.518 149.93 60.6047C152.754 59.3034 155.035 56.05 155.097 52.8617C155.16 49.7384 152.42 46.5935 149.742 45.1837L149.763 45.2054Z" fill="#423227"/>
<path d="M120.035 55.421C121.876 55.703 122.295 52.7316 120.454 52.4496C118.613 52.1677 118.194 55.1391 120.035 55.421Z" fill="white"/>
<path d="M150.976 52.0376C152.817 52.3195 153.235 49.3481 151.394 49.0661C149.553 48.7842 149.135 51.7556 150.976 52.0376Z" fill="white"/>
<path d="M83.7389 35.185C83.9272 33.58 84.6385 32.1268 85.7473 30.999C86.4795 30.2615 87.3999 29.7193 88.174 29.0253C87.7765 27.0299 86.9815 25.0995 87.2744 23.039C87.4836 21.4774 88.2786 20.0893 89.4919 19.135C91.5212 17.53 94.5128 17.0745 97.065 17.6167C97.065 15.9467 97.0232 14.2766 97.5043 12.6716C98.0901 10.7196 99.5336 9.37485 101.416 8.78924C104.596 7.79154 108.634 8.65911 111.186 10.9798C111.709 7.24931 113.425 3.56214 117.253 2.58613C121.228 1.58843 124.24 4.12606 126.541 7.11917C127.859 3.01991 133.006 0.0268053 136.897 0.482278C141.039 0.959441 143.759 4.14775 145.202 7.92167C147.88 6.14316 151.081 5.01532 154.26 5.666C156.959 6.22991 158.507 8.4639 159.532 10.9798C160.285 12.8451 160.725 14.8405 161.101 16.8142C161.185 17.2914 161.269 17.7686 161.331 18.2674C161.373 18.5711 161.331 19.2217 161.499 19.482C161.771 19.9592 162.817 20.0459 163.277 20.1544C164.658 20.5014 166.018 20.9352 166.959 22.1064C167.9 23.2776 168.423 24.7525 168.612 26.2707C169.072 30.1097 167.587 33.7318 165.536 36.8117C167.712 38.7203 169.072 41.3881 168.507 44.3812C167.461 49.8469 162.44 51.9291 162.294 51.8423C160.641 50.9313 159.616 46.9839 159.114 45.1837C158.486 42.9931 158.654 40.694 159.658 38.6986C155.599 37.3105 154.993 31.7364 155.85 27.5721C152.378 29.5675 147.775 28.8301 145.411 25.4465C144.533 27.0732 142.441 28.0709 140.767 28.3095C138.257 28.6782 135.788 27.8324 134.114 25.9454C133.466 28.5047 131.332 29.9796 128.592 30.1748C126.897 30.2832 125.056 30.2182 123.424 29.7193C122.734 29.5024 122.064 29.2205 121.458 28.8517C120.851 28.5047 120.412 27.9842 119.91 27.5287C119.157 30.088 116.563 31.9316 114.178 32.5606C111.646 33.2113 108.822 33.1462 106.479 31.9533C106.688 33.9487 106.165 35.9875 104.638 37.3539C103.216 38.6336 101.458 38.7854 99.8055 38.3082C100.538 39.9132 101.04 41.6484 101.019 43.4486C101.019 45.7693 99.8474 47.6997 98.6549 49.5649C98.4876 49.5432 98.2993 49.7168 98.4039 49.912C99.157 51.1699 101.061 54.3582 100.705 55.8548C100.391 57.1778 99.5963 58.3491 98.7177 59.3251C97.9018 60.2577 96.9813 61.0602 95.9981 61.7976C92.9019 60.9518 88.6761 56.4838 86.8979 53.8377C84.7012 50.606 85.3707 47.0707 87.4627 44.1426C86.4167 43.1666 85.559 41.9086 84.8895 40.694C83.9481 38.9589 83.467 37.137 83.6971 35.1416L83.7389 35.185Z" fill="#423227"/>
<path d="M124.972 68.7599C126.123 70.4083 127.274 72.1434 128.863 73.358C130.558 74.6594 132.566 75.1148 134.616 74.6811C136.478 74.2907 138.026 73.1628 139.135 71.5795C139.679 70.8204 140.077 69.9311 140.369 69.0419C140.641 68.1526 141.06 66.7862 140.621 65.9186C140.37 65.4415 139.637 65.3113 139.282 65.7451C138.738 66.4175 138.8 67.4152 138.591 68.2394C138.403 68.9768 138.194 69.7142 137.859 70.3866C137.127 71.8181 135.851 72.7724 134.324 73.1411C130.642 74.0521 127.985 70.9071 125.976 68.1743C125.537 67.567 124.533 68.1526 124.972 68.7816V68.7599Z" fill="#423227"/>
<path d="M153.11 96.1968C155.662 103.528 157.127 111.097 157.88 118.84C158.654 126.909 159.26 135.085 158.905 143.176C158.8 145.54 158.591 147.904 158.235 150.225C157.901 152.328 157.273 154.367 157.001 156.471C157.001 156.623 157.168 156.666 157.21 156.536C157.88 154.844 158.235 152.892 158.549 151.114C158.884 149.249 159.093 147.34 159.239 145.453C159.553 141.158 159.511 136.842 159.365 132.526C159.051 124.566 158.486 116.476 157.022 108.625C156.206 104.33 155.076 100.101 153.424 96.0666C153.361 95.9148 153.089 96.0232 153.152 96.1968H153.11Z" fill="#A2CB9C"/>
<path d="M108.571 133.697C107.567 133.979 106.584 134.326 105.621 134.782C102.776 136.126 100.266 138.078 98.0691 140.356C96.7511 141.722 95.6214 143.219 94.5754 144.78C97.3369 154.237 102.63 161.134 104.492 162.956C106.709 165.125 109.178 167.814 109.178 167.814L118.424 159.247C118.424 159.247 110.537 145.843 108.927 137.775C108.655 136.408 108.55 135.042 108.571 133.697Z" fill="#7198B5"/>
<path d="M110.433 142.373C110.705 145.453 111.981 148.381 113.383 151.114C114.157 152.61 114.994 154.063 115.872 155.495C116.667 156.775 117.441 158.228 118.445 159.356C118.592 159.529 118.843 159.312 118.738 159.117C118.069 157.816 117.107 156.623 116.332 155.387C115.475 153.998 114.659 152.589 113.906 151.135C112.483 148.359 111.291 145.431 110.621 142.373C110.6 142.265 110.412 142.286 110.433 142.395V142.373Z" fill="#A2CB9C"/>
<path d="M109.408 168.01C110.998 166.253 112.839 164.778 114.617 163.238C115.37 162.587 116.081 161.893 116.813 161.221C117.169 160.896 117.525 160.57 117.901 160.267C118.194 160.028 118.696 159.768 118.843 159.421C118.905 159.291 118.843 159.074 118.675 159.095C118.32 159.139 118.006 159.486 117.734 159.703C117.378 160.006 117.044 160.332 116.688 160.657C115.935 161.373 115.182 162.11 114.429 162.848C112.713 164.518 110.83 166.014 109.24 167.836C109.136 167.945 109.303 168.118 109.408 168.01Z" fill="#B0683F"/>
<path d="M111.228 169.983C112.588 168.292 114.136 166.817 115.768 165.407C116.563 164.713 117.378 164.019 118.152 163.303C118.55 162.956 118.927 162.587 119.303 162.219C119.659 161.872 120.098 161.503 120.349 161.069C120.454 160.874 120.224 160.614 120.035 160.744C119.638 161.047 119.303 161.481 118.947 161.85C118.571 162.219 118.194 162.587 117.797 162.934C117.002 163.672 116.165 164.366 115.349 165.103C113.759 166.513 112.128 167.966 110.935 169.767C110.81 169.962 111.102 170.179 111.249 170.005L111.228 169.983Z" fill="#B0683F"/>
<path d="M52.2333 216.398C52.2333 216.398 49.7857 224.315 49.7857 228.284C49.7857 232.253 49.43 232.643 54.7647 233.858C60.0993 235.073 65.7686 236.027 69.7016 235.268C73.6136 234.487 73.9274 232.427 72.0237 230.973C70.12 229.499 65.5385 228.002 64.2624 226.636C62.9862 225.269 63.9276 219.955 64.2624 219.044C64.5971 218.133 56.3127 213.557 52.2124 216.398H52.2333Z" fill="#423227"/>
<path d="M22.5895 217.765C22.5895 217.765 19.4096 225.399 19.0331 229.347C18.6565 233.294 18.2799 233.641 23.4681 235.398C28.6772 237.155 34.221 238.673 38.1959 238.304C42.1707 237.936 42.6727 235.919 40.9155 234.27C39.1582 232.622 34.744 230.67 33.6144 229.173C32.4638 227.698 33.9072 222.493 34.3256 221.625C34.744 220.758 26.9409 215.379 22.5895 217.765Z" fill="#423227"/>
<path d="M25.2255 153.89C25.2255 153.89 24.6189 157.078 24.7235 165.125C24.849 173.172 24.4724 187.096 22.8825 197.572C21.2926 208.048 18.6985 222.992 18.6985 222.992C18.6985 222.992 21.2926 225.161 27.4431 225.681C33.6145 226.202 35.0789 225.551 35.0789 225.551C35.0789 225.551 41.606 206.009 44.8067 194.254C48.0075 182.498 49.974 169.094 51.2083 170.114C52.4426 171.133 53.1748 183.778 52.066 197.334C50.9572 210.868 48.9907 224.033 48.9907 224.033C48.9907 224.033 51.9405 225.182 58.4885 225.052C65.0155 224.922 65.6431 223.643 65.6431 223.643C65.6431 223.643 71.1869 208.699 73.1534 190.046C75.1199 171.393 73.6555 150.311 73.6555 150.311C73.6555 150.311 58.3839 144.303 48.0284 146.472C37.673 148.641 25.2255 153.89 25.2255 153.89Z" fill="#445F8E"/>
<path d="M27.3174 91.295C27.3174 91.295 36.9198 86.3065 46.794 86.3065C56.6683 86.3065 63.4255 86.827 65.1619 87.5861C66.8773 88.3452 73.7809 104.2 75.7683 117.734C77.7348 131.268 76.5005 142.894 75.7683 148.403C75.0361 153.89 74.534 155.56 74.534 155.56C74.534 155.56 66.2706 160.288 50.2668 159.638C34.242 159.009 24.5142 155.04 24.5142 155.04C24.5142 155.04 27.4639 139.445 28.5727 130.249C29.6814 121.053 29.4304 114.784 29.0747 107.757C28.6982 100.73 27.3593 91.2733 27.3593 91.2733L27.3174 91.295Z" fill="#F6DEBE"/>
<path d="M24.5561 135.172C24.5561 135.172 29.7443 134.999 32.3802 139.532C35.0162 144.043 33.4681 148.229 30.602 150.485C27.736 152.741 22.3177 152.003 21.8574 150.203C21.3972 148.403 22.4014 147.145 21.8156 145.475C21.2298 143.805 18.9077 142.113 18.9077 142.113C18.9077 142.113 20.2675 134.218 24.5561 135.172Z" fill="#E9A17A"/>
<path d="M30.1417 111.206C30.1417 111.206 17.7989 118.688 16.5228 125.26C16.0834 127.538 18.4892 130.834 20.8532 132.418C23.0498 133.893 24.8908 134.782 24.8908 134.782C24.8908 134.782 25.6648 137.862 23.6774 141.939C21.6691 146.017 20.644 146.863 20.644 146.863C20.644 146.863 7.297 143.371 2.44355 134.088C-2.40991 124.805 0.205102 112.29 8.17565 104.482C16.1671 96.6739 26.0205 90.7093 36.1667 88.1934C39.3884 87.3909 35.7901 94.7002 35.2462 100.057C34.7023 105.415 30.1626 111.184 30.1626 111.184L30.1417 111.206Z" fill="#F6DEBE"/>
<path d="M125.202 109.904C124.345 110.273 123.78 110.49 123.78 110.49C123.78 110.49 124.533 110.381 125.307 110.447C126.039 110.512 126.813 110.707 126.897 111.314C127.023 112.095 126.416 112.702 125.851 113.093C125.433 113.375 125.056 113.526 125.056 113.526C125.056 113.526 125.537 113.418 126.06 113.526C126.562 113.591 127.085 113.852 127.169 114.589C127.253 115.392 126.604 115.934 125.977 116.238C125.474 116.52 124.993 116.628 124.993 116.628C124.993 116.628 125.37 116.563 125.705 116.671C126.102 116.78 126.479 117.127 126.29 118.059C126.102 118.949 125.077 119.578 123.759 119.99C123.759 119.99 123.738 119.99 123.717 119.99C123.278 120.142 122.776 120.25 122.295 120.359C121.332 120.554 120.328 120.662 119.429 120.684C116.73 120.814 111.897 120.619 111.897 120.619C111.897 120.619 106.165 116.91 111.04 111.032C111.04 111.032 114.01 110.338 115.182 108.842C116.353 107.345 117.797 105.48 119.805 105.762C120.684 105.892 121.228 106.239 121.562 106.586C121.981 107.041 122.064 107.497 122.064 107.497C122.064 107.497 122.19 107.432 122.399 107.345C124.031 106.629 131.018 103.68 131.771 105.198C132.399 106.477 127.692 108.755 125.223 109.818L125.202 109.904Z" fill="#E9A17A"/>
<g style="mix-blend-mode:multiply">
<path d="M125.956 116.259C125.454 116.541 124.972 116.65 124.972 116.65C124.972 116.65 123.801 116.78 122.504 117.235C122.127 117.365 121.751 117.539 121.437 117.821C121.123 118.081 120.935 118.45 120.956 118.862C120.956 119.252 121.207 119.534 121.542 119.708C121.96 119.946 122.462 120.033 122.943 120.055C123.194 120.055 123.445 120.055 123.696 120.012C123.257 120.163 122.755 120.272 122.274 120.38C122.023 120.315 121.772 120.25 121.521 120.142C120.935 119.903 120.475 119.426 120.537 118.732C120.579 117.951 121.102 117.452 121.709 117.083C121.772 117.04 121.834 117.018 121.897 116.997C121.793 116.997 121.709 116.997 121.625 116.997C121.207 116.932 120.767 116.823 120.475 116.498C120.119 116.107 120.119 115.587 120.265 115.11C119.512 114.719 119.073 114.004 118.822 113.158C118.655 112.659 118.571 112.117 118.508 111.574C118.466 111.162 118.424 110.685 118.592 110.295C118.634 110.208 118.78 110.23 118.801 110.316C118.864 110.75 118.843 111.206 118.906 111.661C118.968 112.16 119.115 112.637 119.282 113.114C119.575 113.939 120.14 114.806 121.06 114.915C122.002 115.045 122.588 114.155 122.713 113.31C122.88 112.117 122.588 110.902 122.357 109.753C122.148 108.69 121.897 107.649 121.562 106.629C121.981 107.085 122.065 107.54 122.065 107.54C122.065 107.54 122.86 109.189 123.006 110.1C123.194 110.056 123.383 110.013 123.55 109.991C123.989 109.926 124.449 109.861 124.91 109.861C125.014 109.861 125.119 109.861 125.223 109.861C124.366 110.23 123.801 110.447 123.801 110.447C123.801 110.447 123.843 110.512 123.383 110.577C123.299 110.577 123.194 110.598 123.09 110.62C123.236 111.509 123.383 112.485 123.215 113.375C123.926 113.223 124.638 113.114 125.37 113.049C125.516 113.049 125.705 113.049 125.872 113.028C125.454 113.31 125.077 113.461 125.077 113.461C125.077 113.461 123.78 113.743 123.048 113.917C122.985 114.047 122.922 114.177 122.86 114.307C122.399 115.11 121.521 115.5 120.642 115.218C120.454 115.63 120.454 116.086 120.851 116.368C121.207 116.628 121.709 116.693 122.127 116.715C122.19 116.715 122.253 116.715 122.316 116.715C122.922 116.454 123.613 116.324 124.261 116.238C124.826 116.173 125.412 116.107 125.977 116.151L125.956 116.259Z" fill="#D1B6A7"/>
</g>
<path d="M111.374 122.462C111.374 122.462 106.437 127.451 92.5045 125.412C86.2285 124.501 81.0403 121.66 77.2538 118.84C76.7098 118.45 76.2078 118.038 75.7266 117.647C72.0656 114.654 70.0782 111.986 70.0782 111.986C70.0782 111.986 64.7854 104.2 63.4256 98.3223C62.0658 92.4445 62.3168 87.0873 62.3168 87.0873C62.3168 87.0873 68.5929 86.9571 75.1408 91.5553C81.6679 96.1534 88.3205 104.2 95.8308 107.28C103.341 110.338 110.245 108.69 110.245 108.69C110.245 108.69 110.977 110.989 111.228 115.066C111.479 119.166 111.353 122.484 111.353 122.484L111.374 122.462Z" fill="#F6DEBE"/>
<path d="M76.3542 114.936C75.8312 112.615 75.1409 110.36 74.3877 108.104C73.9066 106.673 73.4045 105.241 72.8606 103.831C72.5677 103.094 72.2957 102.335 71.9819 101.619C71.6891 100.968 71.4171 99.9924 70.7477 99.6887C70.6431 99.6453 70.5175 99.6236 70.4339 99.6887C70.3711 99.7538 70.3711 99.8405 70.3711 99.9273C70.392 100.665 70.8313 101.185 71.1033 101.836C71.438 102.552 71.6891 103.332 71.9819 104.07C72.5468 105.566 73.0907 107.063 73.5509 108.603C74.1995 110.729 74.7225 112.919 75.2036 115.088C75.3919 115.934 75.5802 116.801 75.7476 117.669C76.2287 118.059 76.7308 118.45 77.2747 118.862C77.0237 117.539 76.6471 116.194 76.3752 114.958L76.3542 114.936Z" fill="#BA917A"/>
<path d="M39.1582 83.0531L39.8067 97.1077C39.8067 97.1077 43.8861 103.181 50.0785 101.858C56.2708 100.513 56.7938 96.9775 56.7938 96.9775L55.0993 79.9081C55.0993 79.9081 47.7982 85.4606 39.1791 83.0531H39.1582Z" fill="#E9A17A"/>
<g style="mix-blend-mode:multiply">
<path d="M40.9156 90.6443C44.4929 91.6854 48.2585 92.6614 52.0032 92.2276C53.4676 92.0541 54.8902 91.6203 56.1872 90.8829L55.0994 79.9081C55.0994 79.9081 47.7983 85.4606 39.1792 83.0531L39.5139 90.1888C39.9951 90.3406 40.4762 90.4925 40.9574 90.6226L40.9156 90.6443Z" fill="#D1B6A7"/>
</g>
<path d="M79.2201 52.2327C79.2201 52.2327 85.2032 48.1768 87.0023 51.1482C88.8014 54.1197 88.3203 57.6984 84.1572 60.1926C79.9941 62.6869 76.9607 61.7326 76.9607 61.7326L79.2201 52.211V52.2327Z" fill="#E9A17A"/>
<path d="M15.6858 36.6382C12.6315 47.7864 9.93278 73.2495 32.4219 84.7014C54.9109 96.175 71.647 79.7997 78.6761 62.5567C86.0609 44.3595 79.8476 19.1567 75.2452 17.3565C51.3336 8.0518 21.9618 13.7561 15.7067 36.6382H15.6858Z" fill="#E9A17A"/>
<path d="M49.4509 52.84C49.4509 52.84 49.5136 52.7532 49.4509 52.7532C49.3881 52.7532 49.3881 52.84 49.4509 52.84Z" fill="#423227"/>
<g style="mix-blend-mode:multiply">
<path d="M48.5723 49.7385C49.0116 50.8229 48.8233 52.146 48.8024 53.2738C48.8024 54.5101 48.7187 55.8548 49.158 57.026C49.5764 58.1322 50.5597 58.6094 51.6684 58.5009C52.819 58.4142 54.8692 57.4815 54.5972 59.542C54.4508 60.6915 53.8859 61.6458 52.9027 62.2315C52.4215 62.5351 51.8567 62.7086 51.3128 62.752C50.8107 62.7954 50.2459 62.6435 49.7647 62.8604C49.5764 62.9472 49.4509 63.2075 49.5973 63.381C50.1831 64.1835 51.4801 63.9666 52.296 63.7497C53.2583 63.4677 54.1579 62.8604 54.7437 62.0362C55.5177 60.9735 56.3754 58.1539 54.7018 57.4164C54.0115 57.1128 53.1956 57.2212 52.4843 57.3948C51.9195 57.5249 51.1663 57.8069 50.6643 57.3297C49.8693 56.5489 49.9948 54.9005 49.9948 53.8594C49.9948 52.3412 50.1203 50.6711 49.4091 49.283C49.158 48.7841 48.3212 49.2179 48.5513 49.7385H48.5723Z" fill="#D1B6A7"/>
</g>
<path d="M40.9993 67.1983C40.9993 67.1983 44.5557 69.0853 51.5848 69.1937C57.296 69.2805 60.183 67.3501 60.183 67.3501C60.183 67.3501 61.229 77.1753 51.6057 78.2164C41.9616 79.2792 40.9993 67.1983 40.9993 67.1983Z" fill="#423227"/>
<path d="M47.2543 70.3215C49.5346 71.6662 52.5889 71.8831 55.0993 71.2324C56.2708 70.9288 57.4842 70.3865 58.2791 69.4322C58.6557 68.9984 58.9277 68.4779 59.0532 67.8923C57.7352 68.4562 55.2248 69.237 51.5638 69.1719C49.1371 69.1286 47.1287 68.89 45.5388 68.5646C45.9154 69.3021 46.543 69.8877 47.2543 70.2998V70.3215Z" fill="white"/>
<path d="M49.4092 77.4573C49.1581 76.3295 48.5724 75.2884 47.7774 74.5076C47.0034 73.7485 46.0201 73.2063 44.9323 73.0544C44.2001 72.9677 43.4888 73.0761 42.8193 73.3581C44.0536 75.7005 46.1247 77.8911 49.5347 78.2381C49.5138 77.9779 49.4719 77.7176 49.4092 77.4573Z" fill="#CE5456"/>
<path d="M36.6061 46.5719C35.853 46.2465 35.058 45.9863 34.263 45.9863C33.4472 45.9863 32.6522 46.2682 31.92 46.6153C29.3887 47.8298 27.3803 50.1289 26.4599 52.8617C26.1879 53.6642 25.9996 54.5318 26.0415 55.3994C26.0624 56.3971 26.3762 57.3514 26.8155 58.2407C28.4891 61.5374 32.3593 63.5328 35.8739 62.7737C39.2002 62.058 42.2336 58.5226 42.4637 54.9656C42.6938 51.4953 39.4721 47.8732 36.627 46.5936L36.6061 46.5719Z" fill="white"/>
<path d="M67.6095 45.2704C66.8564 44.9451 66.0614 44.6848 65.2665 44.6848C64.4506 44.6848 63.6556 44.9668 62.9234 45.3138C60.3921 46.5284 58.3838 48.8275 57.4633 51.5603C57.1913 52.3628 57.003 53.2304 57.0449 54.0979C57.0658 55.0956 57.3796 56.05 57.8189 56.9392C59.4925 60.236 63.3627 62.2314 66.8773 61.4722C70.2036 60.7565 73.237 57.2212 73.4671 53.6641C73.6973 50.1939 70.4756 46.5718 67.6304 45.2921L67.6095 45.2704Z" fill="white"/>
<path d="M16.6063 59.889C16.6063 59.889 12.9244 55.1391 8.76127 57.6334C4.59818 60.1276 5.7697 66.4825 11.962 67.6971C18.1335 68.9334 18.9493 63.663 18.9493 63.663L16.6063 59.8673V59.889Z" fill="#E9A17A"/>
<path d="M72.6514 27.5287C72.6514 27.5287 77.2747 33.5149 78.6973 40.4338C80.1198 47.3526 80.5591 53.5123 80.5591 53.5123C80.5591 53.5123 85.3917 48.0684 86.0611 40.7374C86.6887 34.0571 83.6972 26.2273 78.3835 24.8175C73.0698 23.4077 72.6514 27.5287 72.6514 27.5287Z" fill="#B0683F"/>
<path d="M71.8563 40.9544C71.3542 38.4167 68.5091 37.072 66.2079 37.2238C65.8732 37.2455 65.5594 37.2889 65.2456 37.3756C65.0782 37.419 64.8899 37.4841 64.7226 37.5925C64.7226 37.5925 64.7226 37.5925 64.7017 37.5925C64.3669 37.8311 64.3879 37.8311 64.7853 37.5925C64.6598 37.6359 64.5343 37.701 64.4088 37.7444C63.9276 38.0046 63.6766 38.6119 63.9485 39.1325C64.095 39.3927 64.3251 39.5662 64.5971 39.653C64.6807 39.6747 64.8481 39.6964 64.9527 39.6964C65.2665 39.6964 64.6598 39.5446 64.7226 39.6313C64.8899 39.8265 65.2456 39.8048 65.4757 39.8265C65.7477 39.8482 65.1828 39.7831 65.4339 39.8265C65.5803 39.8265 65.7058 39.8699 65.8523 39.8916C65.9778 39.8916 66.1033 39.8916 66.2288 39.9133C66.2707 39.9133 66.3334 39.9133 66.3753 39.9133C66.0196 39.9133 66.2079 39.8916 66.3334 39.9133C66.4799 39.935 66.6472 39.9567 66.8146 39.9783C67.0029 40.0217 66.459 39.9133 66.7309 39.9783C66.8564 40 66.961 40.0217 67.0866 40.0434C67.3585 40.1085 67.6305 40.1735 67.9024 40.2386C68.028 40.282 68.1535 40.3037 68.279 40.3471C68.3418 40.3471 68.4045 40.3904 68.4673 40.4121C68.5091 40.4121 68.53 40.4338 68.5719 40.4555C68.6974 40.4989 68.6765 40.4989 68.4673 40.4121C68.6765 40.5639 68.9484 40.6724 69.1786 40.8025C69.2413 40.8459 69.4296 41.0411 69.5133 41.0411C69.3878 41.0411 69.3459 40.8893 69.4714 41.0411C69.5342 41.0845 69.576 41.1496 69.6388 41.1929C69.7434 41.3014 69.8271 41.3881 69.9108 41.4966C69.9526 41.54 69.9735 41.5833 70.0154 41.605C69.8271 41.3881 70.0363 41.6484 70.0781 41.7135C70.6848 42.6895 72.0865 42.0605 71.8563 40.9327V40.9544Z" fill="#B0683F"/>
<path d="M33.8027 39.9783C33.6771 39.8915 33.5516 39.7831 33.4052 39.718C33.3006 39.653 33.1751 39.6096 33.0705 39.5662C32.8822 39.4795 33.196 39.653 33.0077 39.5228C32.6311 39.2626 32.0035 39.2409 31.5433 39.3059C30.7274 39.4144 29.9325 39.7397 29.2421 40.2386C28.489 40.8025 27.8614 41.4098 27.3384 42.2123C27.2547 42.3641 27.171 42.5159 27.0873 42.6678C26.9827 42.9063 26.8572 43.1883 26.8572 43.4703C26.899 43.2317 26.92 43.1883 26.8572 43.3401V43.4269C26.7944 43.557 26.7944 43.8824 26.7526 43.9474C26.7526 44.0342 26.7526 43.9908 26.7735 43.8173C26.7735 43.8607 26.7735 43.9041 26.7735 43.9257C26.7526 44.2294 26.7108 44.468 26.7944 44.7499C26.92 45.1837 27.3802 45.4657 27.8195 45.3572C28.1124 45.2705 28.3634 45.097 28.6354 44.9451C28.7191 44.9018 28.9074 44.7282 29.012 44.6415C28.5727 44.8801 28.489 44.9451 28.7819 44.7933C28.9492 44.7282 29.0957 44.6415 29.2212 44.4897C29.3258 44.4029 29.4304 44.2945 29.535 44.186C30.0161 43.7305 30.4555 43.21 30.9366 42.7545C30.9994 42.7111 31.0412 42.6461 31.104 42.6027C31.1458 42.581 31.1667 42.5376 31.2086 42.5159C31.2923 42.4509 31.2504 42.4726 31.0831 42.6244C31.1458 42.6027 31.2086 42.5376 31.2504 42.4943C31.355 42.4075 31.4805 42.3207 31.5851 42.234C31.6688 42.1689 31.6688 42.1689 31.5851 42.234C31.3759 42.3641 31.5851 42.234 31.6479 42.1906C31.7107 42.1472 31.7943 42.0822 31.8571 42.0388C31.9826 41.952 32.1081 41.887 32.2546 41.8002C32.5265 41.6484 32.8403 41.4966 33.0705 41.3013C33.4261 41.0194 32.9868 41.3013 32.9868 41.3013C32.9868 41.3013 33.196 41.2363 33.2169 41.2363C33.3633 41.1929 33.5098 41.1495 33.6562 41.1061C34.2211 40.976 34.1792 40.2603 33.8027 39.9566V39.9783Z" fill="#B0683F"/>
<path d="M13.5521 60.865C13.5521 60.865 17.9662 55.2692 21.5017 46.1814C25.0372 37.0937 24.9744 28.3529 24.9744 28.3529C24.9744 28.3529 31.9617 38.8288 40.3298 36.4647C48.6978 34.1006 41.836 26.4443 41.836 26.4443C41.836 26.4443 47.9028 33.7752 53.5303 32.4522C59.1787 31.1291 53.2793 24.7091 53.2793 24.7091C53.2793 24.7091 67.5468 35.9441 79.6804 30.4785C91.814 25.0345 90.4542 12.3463 74.1993 5.44913C57.9445 -1.44804 48.8652 9.3315 48.8652 9.3315C48.8652 9.3315 49.2626 -1.07932 41.9824 0.0918979C34.6813 1.26311 30.5182 11.9776 30.5182 11.9776C30.5182 11.9776 30.0789 4.36467 25.9995 7.22764C21.9201 10.0906 24.2841 20.1761 24.2841 20.1761C24.2841 20.1761 18.3009 9.7219 8.19654 18.7229C-1.90785 27.7239 2.29708 41.4966 4.97485 47.0924C7.65262 52.6882 13.5521 60.865 13.5521 60.865Z" fill="#B0683F"/>
<path d="M38.7817 47.96C37.6102 47.8299 36.4177 47.96 35.3508 48.5022C32.1082 50.194 31.3551 55.2259 33.196 58.2407C34.1374 59.7806 35.6437 60.8651 37.2964 61.4724C37.6102 61.5808 37.9449 61.6892 38.2796 61.7543C40.539 60.3011 42.2962 57.6334 42.4636 54.9656C42.631 52.3846 40.8737 49.6951 38.7817 47.96Z" fill="#423227"/>
<path d="M68.4463 45.726C67.5677 45.726 66.7099 45.8778 65.8731 46.2248C64.074 46.9839 62.9025 48.6106 62.2958 50.4542C61.6055 52.5364 61.6891 54.5968 62.7561 56.5272C63.7811 58.3708 65.4338 59.8456 67.2748 60.8216C67.484 60.9301 67.7141 61.0385 67.9442 61.147C70.8312 59.9974 73.237 56.8525 73.4462 53.6642C73.6554 50.541 71.0404 47.2659 68.4463 45.726Z" fill="#423227"/>
<path d="M38.2796 54.5101C40.1205 54.8788 40.6645 51.9291 38.8235 51.5604C36.9825 51.1917 36.4386 54.1414 38.2796 54.5101Z" fill="white"/>
<path d="M69.346 52.6014C71.187 52.9701 71.7309 50.0204 69.8899 49.6517C68.0489 49.283 67.505 52.2327 69.346 52.6014Z" fill="white"/>
<path d="M243.757 186.185C243.757 186.185 242.481 216.051 242.439 217.591C242.418 219.131 253.129 219.782 253.129 219.782C253.129 219.782 259.217 190.501 258.882 188.571C258.547 186.641 243.757 186.164 243.757 186.164V186.185Z" fill="#A9765A"/>
<path d="M271.999 189.894L271.81 216.528C271.81 216.528 275.137 218.068 278.086 217.873C281.036 217.678 282.898 216.724 282.898 216.724C282.898 216.724 286.036 194.687 286.036 189.894C286.036 185.101 272.919 188.354 271.978 189.894H271.999Z" fill="#A9765A"/>
<path d="M270.702 213.08C270.702 213.08 273.484 214.034 277.542 214.229C281.601 214.425 284.195 213.665 284.195 213.665C284.195 213.665 283.275 220.172 283.463 223.447C283.651 226.701 283.651 227.85 284.572 228.241C285.492 228.631 292.521 229.39 293.065 231.884C293.63 234.379 292.877 235.919 284.195 236.092C275.513 236.287 269.781 234.943 269.405 233.034C269.028 231.125 270.702 213.861 270.702 213.102V213.08Z" fill="#423227"/>
<path d="M284.865 227.221C284.3 227.026 283.651 226.939 283.065 227.004C282.48 227.069 281.936 227.286 281.434 227.59C280.932 227.894 280.492 228.284 280.116 228.739C279.739 229.173 279.342 229.694 279.174 230.258C279.112 230.475 279.342 230.626 279.53 230.54C279.99 230.301 280.346 229.889 280.722 229.542C281.099 229.217 281.455 228.891 281.873 228.609C282.71 228.045 283.672 227.785 284.655 228.045C285.178 228.197 285.409 227.373 284.886 227.2L284.865 227.221Z" fill="#B0683F"/>
<path d="M286.685 228.978C285.973 229.217 285.304 229.65 284.781 230.193C284.53 230.453 284.279 230.713 284.07 231.017C283.839 231.32 283.609 231.602 283.463 231.949C283.4 232.101 283.505 232.34 283.693 232.275C284.028 232.166 284.3 231.928 284.572 231.689C284.823 231.451 285.053 231.19 285.304 230.93C285.785 230.431 286.245 229.997 286.894 229.759C287.103 229.694 287.228 229.477 287.166 229.26C287.103 229.043 286.894 228.913 286.685 228.978Z" fill="#B0683F"/>
<path d="M241.748 213.6C241.748 213.6 244.384 214.902 248.401 215.574C252.418 216.268 255.074 215.813 255.074 215.813C255.074 215.813 253.422 222.168 253.233 225.421C253.045 228.674 252.92 229.824 253.798 230.323C254.677 230.822 261.56 232.448 261.832 234.986C262.104 237.524 261.183 238.955 252.543 238.087C243.903 237.22 238.359 235.181 238.213 233.229C238.066 231.277 241.686 214.359 241.769 213.6H241.748Z" fill="#423227"/>
<path d="M254.196 229.39C253.652 229.13 253.024 228.956 252.418 228.956C251.832 228.956 251.267 229.086 250.723 229.347C250.2 229.585 249.719 229.932 249.28 230.323C248.861 230.713 248.401 231.169 248.171 231.711C248.087 231.928 248.296 232.101 248.485 232.036C248.966 231.841 249.363 231.494 249.782 231.212C250.2 230.93 250.598 230.648 251.037 230.431C251.936 229.976 252.92 229.845 253.861 230.214C254.363 230.431 254.677 229.629 254.175 229.39H254.196Z" fill="#B0683F"/>
<path d="M255.807 231.364C255.074 231.494 254.363 231.863 253.777 232.34C253.505 232.557 253.234 232.795 252.982 233.056C252.731 233.316 252.459 233.576 252.271 233.902C252.188 234.053 252.271 234.292 252.459 234.249C252.815 234.183 253.108 233.988 253.401 233.771C253.694 233.576 253.945 233.338 254.217 233.121C254.761 232.687 255.263 232.318 255.911 232.166C256.12 232.123 256.267 231.928 256.246 231.711C256.225 231.494 256.016 231.32 255.807 231.364Z" fill="#B0683F"/>
<path d="M241.853 153.738C241.853 153.738 238.15 161.394 236.435 171.632C234.719 181.869 234.719 188.506 234.719 188.506C234.719 188.506 251.476 196.162 268.986 195.403C286.475 194.644 293.149 189.265 293.149 189.265L289.216 153.998C289.216 153.998 278.379 154.519 264.321 155.018C250.263 155.538 241.895 153.738 241.895 153.738H241.853Z" fill="#B0683F"/>
<path d="M299.76 103.332C296.057 88.1284 295.952 72.4471 294.53 56.9176C293.86 49.7385 292.124 42.3642 290.387 35.4236C288.672 28.5698 285.032 21.7811 279.488 17.4866C268.296 8.81097 252.857 11.6523 241.79 18.2458C238.485 18.2458 228.757 20.046 224.092 26.6829C219.866 32.6908 218.108 39.1542 218.108 46.2899C218.108 61.9712 220.577 77.3271 220.577 92.9217C220.577 100.86 220.18 107.844 218.004 115.37C221.351 116.585 225.619 116.52 229.196 116.867C233.882 117.322 238.61 117.973 243.296 118.602C252.145 119.773 261.748 120.966 270.681 119.708C277.48 118.754 283.902 117.691 290.325 115.045C293.253 113.83 295.868 112.073 298.462 110.251C301.119 108.386 300.554 106.608 299.78 103.354L299.76 103.332Z" fill="#423227"/>
<path d="M293.714 148.294C293.191 149.314 292.521 150.29 291.517 150.767C290.22 151.396 288.588 150.962 287.542 149.943C286.496 148.923 285.994 147.405 285.952 145.908C285.91 144.412 286.308 142.959 286.81 141.549C287.396 139.944 288.274 138.274 289.822 137.645C292.27 136.669 294.613 138.708 295.366 141.007C296.14 143.371 294.801 146.19 293.735 148.273L293.714 148.294Z" fill="#A9765A"/>
<path d="M276.141 87.7597C276.141 87.7597 292.291 88.1501 304.613 101.814C316.391 114.893 311.998 129.923 306.58 137.58C301.161 145.236 294.509 147.795 294.509 147.795C294.509 147.795 291.789 144.737 289.823 141.159C287.856 137.58 289.321 135.541 289.321 135.541C289.321 135.541 292.521 135.281 295.241 130.683C297.961 126.085 297.333 117.647 294.132 114.85C290.931 112.03 287.961 110.512 287.961 110.512L276.141 87.7597Z" fill="#E69430"/>
<path d="M245.744 112.182C245.744 112.182 233.401 119.664 232.125 126.236C231.686 128.514 234.092 131.81 236.456 133.394C238.652 134.869 240.493 135.758 240.493 135.758C240.493 135.758 241.267 138.838 239.28 142.915C237.292 146.993 236.246 147.839 236.246 147.839C236.246 147.839 222.899 144.347 218.046 135.064C213.192 125.781 215.807 113.266 223.778 105.458C231.769 97.6499 241.623 91.6854 251.769 89.1695C254.991 88.367 251.392 95.6762 250.849 101.033C250.305 106.391 245.765 112.16 245.765 112.16L245.744 112.182Z" fill="#E69430"/>
<path d="M291.35 118.71C289.383 105.176 282.48 89.3213 280.743 88.5622C279.488 87.9983 275.492 87.5862 269.572 87.391C269.572 87.391 269.572 87.391 269.551 87.391C268.84 87.3693 268.107 87.3476 267.354 87.3259C267.312 87.3259 267.271 87.3259 267.229 87.3259C266.58 87.3259 265.89 87.3042 265.2 87.3042C265.032 87.3042 264.865 87.3042 264.677 87.3042C263.923 87.3042 263.17 87.3042 262.375 87.3042C261.706 87.3042 261.057 87.3259 260.388 87.3693C260.346 87.3693 260.283 87.3693 260.242 87.3693C259.635 87.4126 259.028 87.4777 258.421 87.5428C258.359 87.5428 258.296 87.5428 258.212 87.5645C257.626 87.6295 257.041 87.738 256.455 87.8247C256.392 87.8247 256.329 87.8247 256.267 87.8464C255.681 87.9549 255.074 88.0633 254.509 88.1935C254.488 88.1935 254.447 88.1935 254.426 88.1935C253.212 88.4754 252.041 88.7791 250.932 89.1044C250.932 89.1044 250.89 89.1044 250.869 89.1044C250.346 89.2562 249.823 89.4297 249.321 89.6033C249.321 89.6033 249.279 89.6033 249.258 89.6033C245.43 90.8829 242.878 92.206 242.878 92.206C242.878 92.206 244.238 101.662 244.593 108.69C244.949 115.717 245.2 121.985 244.091 131.181C242.982 140.378 240.033 155.972 240.033 155.972C240.033 155.972 249.761 159.941 265.785 160.57C281.81 161.199 290.053 156.493 290.053 156.493C290.053 156.493 290.555 154.823 291.287 149.335C292.019 143.848 293.253 132.223 291.287 118.667L291.35 118.71Z" fill="#E69430"/>
<path d="M240.158 136.148C240.158 136.148 245.347 135.975 247.983 140.508C250.618 145.019 249.07 149.205 246.204 151.461C243.338 153.717 237.92 152.979 237.46 151.179C236.999 149.379 238.004 148.121 237.418 146.451C236.832 144.781 234.51 143.089 234.51 143.089C234.51 143.089 235.87 135.194 240.158 136.148Z" fill="#A9765A"/>
<path d="M224.071 124.892C226.728 124.848 229.573 125.13 232.209 125.933C232.188 126.019 232.167 126.128 232.146 126.215C231.707 128.492 234.112 131.789 236.476 133.372C238.673 134.847 240.514 135.736 240.514 135.736C240.514 135.736 241.288 138.816 239.301 142.894C237.313 146.971 236.267 147.817 236.267 147.817C236.267 147.817 222.92 144.325 218.067 135.042C216.644 132.309 215.87 129.294 215.682 126.193C218.422 125.325 221.288 124.892 224.092 124.848L224.071 124.892Z" fill="#E69430"/>
<path d="M254.217 82.9663L254.865 97.0209C254.865 97.0209 258.944 103.094 265.137 101.771C271.329 100.426 271.852 96.8908 271.852 96.8908L270.158 79.8214C270.158 79.8214 262.857 85.3738 254.237 82.9663H254.217Z" fill="#A9765A"/>
<path d="M256.099 93.4855C256.099 93.4855 252.396 92.5312 250.932 98.4741C249.447 104.417 257.585 110.924 265.158 109.774C272.731 108.625 275.869 104.026 276.245 98.6693C276.622 93.312 272.731 92.5312 267.375 92.336C262.02 92.1408 256.099 93.4855 256.099 93.4855Z" fill="#A9765A"/>
<g style="mix-blend-mode:multiply">
<path d="M255.974 90.5359C259.551 91.577 263.317 92.553 267.062 92.1192C268.526 91.9457 269.949 91.5119 271.246 90.7745L270.158 79.7997C270.158 79.7997 262.857 85.3522 254.238 82.9447L254.572 90.0804C255.053 90.2322 255.535 90.3841 256.016 90.5142L255.974 90.5359Z" fill="#D1B6A7"/>
</g>
<path d="M293.442 50.6928C293.442 50.6928 299.174 46.2682 301.14 49.1312C303.128 51.9941 302.835 55.5945 298.818 58.3491C294.802 61.1036 291.726 60.3445 291.726 60.3445L293.442 50.7145V50.6928Z" fill="#A9765A"/>
<path d="M229.112 39.1108C226.728 50.4325 225.493 76.0041 248.61 86.0462C271.727 96.0883 287.479 78.6936 293.483 61.0386C299.801 42.4292 292.124 17.6385 287.417 16.1419C263.003 8.3555 234.029 15.8817 229.112 39.1108Z" fill="#A9765A"/>
<path d="M263.756 53.1654C263.756 53.1654 263.819 53.0786 263.756 53.0786C263.693 53.0786 263.693 53.1654 263.756 53.1654Z" fill="#423227"/>
<g style="mix-blend-mode:multiply">
<path d="M262.71 50.1072C263.212 51.1482 263.087 52.493 263.149 53.6208C263.212 54.8571 263.233 56.2018 263.735 57.3513C264.216 58.4358 265.221 58.8262 266.329 58.6744C267.459 58.5009 269.467 57.4598 269.3 59.5203C269.216 60.6698 268.714 61.6675 267.773 62.3182C267.313 62.6435 266.769 62.8604 266.204 62.9472C265.702 63.0122 265.137 62.9038 264.677 63.1424C264.488 63.2291 264.384 63.4894 264.551 63.6846C265.179 64.4437 266.476 64.1618 267.271 63.8798C268.212 63.5545 269.07 62.8821 269.614 62.0145C270.325 60.9084 271.015 58.0237 269.3 57.3947C268.589 57.1344 267.773 57.308 267.082 57.5032C266.518 57.6767 265.785 58.002 265.262 57.5465C264.405 56.8091 264.447 55.1607 264.405 54.1413C264.321 52.6231 264.342 50.953 263.547 49.6083C263.254 49.1311 262.459 49.6083 262.71 50.1072Z" fill="#D1B6A7"/>
</g>
<path d="M231.393 62.2531C231.393 62.2531 227.46 57.7418 223.422 60.4963C219.406 63.2508 220.954 69.519 227.188 70.3432C233.422 71.1674 233.924 65.8752 233.924 65.8752L231.372 62.2531H231.393Z" fill="#A9765A"/>
<path d="M284.864 40.6073C284.488 39.1325 283.212 38.1348 281.894 37.6359C281.12 37.354 280.325 37.2455 279.509 37.2672C278.777 37.2889 277.689 37.419 277.25 38.0914C277.396 37.983 277.542 37.8745 277.689 37.7661C277.584 37.8311 277.459 37.8745 277.354 37.9396C276.978 38.1565 276.685 38.5252 276.748 39.0023C276.748 39.0891 276.768 39.1759 276.81 39.2626C276.999 39.7181 277.375 39.8916 277.835 39.8916C277.898 39.8916 278.233 39.9133 277.94 39.8916C277.773 39.8048 277.605 39.7398 277.438 39.653C277.794 39.8916 278.128 39.9567 278.547 39.9784C278.693 39.9784 278.86 39.9784 279.007 39.9784C279.174 39.9784 278.714 39.9784 278.944 39.9784C279.091 39.9784 279.216 39.9784 279.363 40.0001C279.927 40.0434 280.492 40.1302 281.057 40.2386C281.162 40.2603 281.371 40.3471 281.475 40.3471C281.434 40.3471 281.203 40.2603 281.371 40.3254C281.455 40.3471 281.538 40.3905 281.601 40.4121C281.852 40.4989 282.061 40.629 282.291 40.7592C282.501 40.8676 282.333 40.7375 282.27 40.7375C282.291 40.7375 282.417 40.8242 282.438 40.8459C282.542 40.9327 282.647 41.0194 282.752 41.1062C282.856 41.193 282.94 41.3014 283.044 41.3882C283.128 41.4749 282.94 41.2363 283.044 41.3882C283.086 41.4532 283.149 41.5183 283.191 41.5834C283.484 41.9738 284.028 42.1039 284.446 41.8436C284.906 41.5617 285.011 41.0845 284.885 40.5857L284.864 40.6073Z" fill="#423227"/>
<path d="M247.501 41.3881C247.271 41.2363 247.041 41.0845 246.769 40.9977C246.246 40.8459 246.623 40.9543 246.602 40.9326C246.602 40.9326 246.476 40.8676 246.455 40.8459C246.267 40.7591 246.079 40.7374 245.89 40.7374C245.43 40.7374 245.074 40.7374 244.635 40.8893C244.384 40.9543 244.133 41.0628 243.903 41.1712C243.317 41.4532 242.815 41.8436 242.334 42.299C241.79 42.8413 241.288 43.4486 240.953 44.1643C240.89 44.2945 240.849 44.4029 240.807 44.533C240.744 44.7282 240.639 45.1186 240.702 45.3355C240.619 45.0319 240.849 44.5764 240.744 44.9234C240.66 45.2271 240.619 45.444 240.639 45.7693C240.639 45.9862 240.66 45.4657 240.639 45.6826C240.639 45.8127 240.598 46.0079 240.639 46.138C240.723 46.7887 241.225 47.2008 241.853 47.0056C241.999 46.9622 242.125 46.8972 242.229 46.7887C242.25 46.767 242.334 46.7236 242.355 46.6803C242.188 46.767 242.146 46.7887 242.25 46.7453C242.355 46.6803 242.459 46.6369 242.564 46.5718C242.69 46.4851 242.773 46.3766 242.878 46.2682C243.129 46.0079 242.836 46.42 242.585 46.4851C242.899 46.42 243.129 46.0947 243.338 45.8778C243.526 45.6826 243.694 45.4657 243.882 45.2488C244.049 45.0536 244.217 44.8801 244.384 44.6632C244.468 44.5547 244.572 44.4463 244.656 44.3595C244.698 44.3161 244.761 44.2511 244.803 44.2077C244.97 44.0125 244.489 44.4897 244.782 44.2511C245.221 43.839 245.681 43.4703 246.183 43.1449C246.288 43.0799 246.392 43.0148 246.476 42.928C246.246 43.1232 246.33 43.0148 246.434 42.9497C246.539 42.9063 246.643 42.8413 246.727 42.7762C246.957 42.5376 246.999 42.5159 246.811 42.6895C246.978 42.581 246.602 42.7545 246.811 42.6895C246.895 42.6678 246.957 42.6244 247.041 42.6027C247.167 42.5593 247.292 42.4942 247.418 42.4726C247.836 42.3424 247.941 41.6484 247.564 41.3881H247.501Z" fill="#423227"/>
<path d="M298.358 30.999C296.454 16.8577 284.049 4.5165 269.927 5.34069C264.195 5.66603 258.568 6.924 253.191 9.00616C247.878 11.0666 241.497 14.667 238.945 20.3062C237.355 18.5711 234.635 19.3302 232.773 20.3496C225.263 24.4706 223.108 34.838 223.506 42.9497C223.673 46.3766 224.656 49.8686 225.493 53.1654C226.435 56.8959 227.397 60.7566 228.924 64.2919C229.28 65.1161 230.409 64.6173 230.305 63.8364C231.686 61.9712 232.501 59.6938 233.276 57.5032C234.468 54.1631 235.409 50.7145 236.246 47.2442C237.836 40.8025 239.196 34.2524 239.928 27.6372C240.012 26.813 240.137 25.9237 240.179 25.0128C242.648 27.789 245.66 30.0664 248.756 31.9967C252.606 34.3825 256.936 36.4213 261.434 36.9635C261.831 37.0069 262.25 36.5514 262.124 36.1393C261.057 32.7775 259.76 29.5025 258.401 26.2491C264.823 27.2902 271.266 28.7867 277.291 31.3677C282.249 33.4933 286.58 36.6599 289.446 41.4749C291.371 44.7283 292.668 48.4154 293.609 52.0809C293.755 52.6448 294.446 52.7966 294.781 52.3195C298.985 46.3983 299.299 37.9829 298.358 30.9773V30.999Z" fill="#423227"/>
<path d="M250.932 47.9817C250.179 47.678 249.384 47.4395 248.568 47.4828C247.752 47.5045 246.957 47.8082 246.225 48.1769C243.736 49.4782 241.79 51.8424 240.953 54.5969C240.702 55.4211 240.556 56.2886 240.598 57.1345C240.66 58.1322 240.995 59.0865 241.476 59.9324C243.255 63.1858 247.167 65.0294 250.66 64.1618C253.966 63.3376 256.873 59.7155 256.999 56.1368C257.125 52.6665 253.798 49.1529 250.911 47.96L250.932 47.9817Z" fill="white"/>
<path d="M281.873 45.6609C281.12 45.3573 280.325 45.1187 279.509 45.1621C278.693 45.1838 277.898 45.4874 277.166 45.8561C274.676 47.1575 272.731 49.5216 271.894 52.2761C271.643 53.1003 271.497 53.9679 271.538 54.8138C271.601 55.8115 271.936 56.7658 272.417 57.6117C274.195 60.8651 278.107 62.7087 281.601 61.8411C284.906 61.0169 287.814 57.3948 287.94 53.8161C288.065 50.3458 284.739 46.8105 281.852 45.6393L281.873 45.6609Z" fill="white"/>
<path d="M253.15 49.283C251.978 49.1963 250.786 49.3481 249.74 49.9337C246.56 51.7339 245.953 56.7875 247.899 59.7372C248.882 61.2338 250.43 62.2966 252.104 62.8171C252.417 62.9255 252.752 63.0123 253.087 63.0774C255.304 61.5374 256.957 58.8263 257.062 56.1585C257.145 53.5558 255.304 50.9314 253.171 49.283H253.15Z" fill="#423227"/>
<path d="M282.731 46.073C281.852 46.1164 280.994 46.2899 280.178 46.6586C278.4 47.4611 277.291 49.1312 276.727 51.0181C276.099 53.122 276.246 55.1825 277.375 57.0694C278.463 58.8913 280.158 60.3011 282.019 61.1904C282.25 61.2988 282.459 61.4073 282.689 61.494C285.534 60.236 287.856 57.026 287.961 53.8377C288.065 50.7145 285.367 47.5262 282.71 46.073H282.731Z" fill="#423227"/>
<path d="M252.857 55.8549C254.698 56.1585 255.158 53.1871 253.317 52.8834C251.476 52.5798 251.016 55.5512 252.857 55.8549Z" fill="white"/>
<path d="M283.839 52.9051C285.68 53.2087 286.141 50.2373 284.3 49.9337C282.459 49.63 281.998 52.6014 283.839 52.9051Z" fill="white"/>
<path d="M274.321 69.4539C273.505 71.2975 272.731 73.2496 271.434 74.7678C270.032 76.3945 268.149 77.2837 266.057 77.2837C264.154 77.2837 262.417 76.5246 261.037 75.2016C260.367 74.5726 259.781 73.7918 259.321 72.9676C258.882 72.1651 258.192 70.9071 258.463 69.9745C258.61 69.4756 259.3 69.172 259.74 69.519C260.388 70.0612 260.556 71.0373 260.911 71.7964C261.246 72.4904 261.581 73.1628 262.062 73.7484C263.066 75.0064 264.488 75.6571 266.057 75.7004C269.844 75.8089 271.831 72.1651 273.254 69.0635C273.568 68.3912 274.656 68.7382 274.342 69.4323L274.321 69.4539Z" fill="#423227"/>
<path d="M335.115 159.247C333.42 157.165 331.788 154.909 330.868 152.328C329.843 149.465 329.947 146.364 330.47 143.414C330.993 140.421 331.914 137.45 331.998 134.391C331.998 134.37 331.998 134.348 331.998 134.326C333.169 128.318 332.709 121.812 332.709 115.327C332.709 108.429 334.257 103.376 338.19 96.6088C341.976 90.102 350.01 87.803 350.01 87.803C350.01 87.803 345.826 121.269 345.826 132.396C345.826 142.416 341.914 161.178 339.529 164.192C338.022 162.587 336.516 161.004 335.115 159.291V159.247Z" fill="#CE5456"/>
<path d="M358.901 216.398C358.901 216.398 361.348 224.315 361.348 228.284C361.348 232.253 361.704 232.643 356.369 233.858C351.035 235.073 345.365 236.027 341.432 235.268C337.52 234.487 337.207 232.426 339.11 230.973C341.014 229.498 345.596 228.002 346.872 226.635C348.148 225.269 347.206 219.955 346.872 219.044C346.537 218.133 354.821 213.557 358.922 216.398H358.901Z" fill="#CE5456"/>
<path d="M388.544 217.765C388.544 217.765 391.724 225.399 392.101 229.347C392.477 233.294 392.854 233.641 387.666 235.398C382.457 237.155 376.913 238.673 372.938 238.304C368.963 237.936 368.461 235.918 370.218 234.27C371.976 232.622 376.39 230.67 377.519 229.173C378.67 227.698 377.227 222.493 376.808 221.625C376.39 220.758 384.193 215.379 388.544 217.765Z" fill="#CE5456"/>
<path d="M337.813 188.354C337.876 188.918 337.918 189.504 337.981 190.067C338.483 194.796 339.215 199.307 340.031 203.363C342.416 215.335 345.512 223.664 345.512 223.664C345.512 223.664 346.118 224.944 352.666 225.074C359.214 225.204 362.164 224.054 362.164 224.054C362.164 224.054 360.198 210.889 359.089 197.355C357.98 183.821 358.712 171.155 359.947 170.135C361.097 169.181 362.917 180.936 365.783 192.085C365.972 192.822 366.16 193.559 366.369 194.275C367.039 196.791 367.896 199.654 368.775 202.604C372.059 213.492 376.097 225.573 376.097 225.573C376.097 225.573 377.582 226.202 383.733 225.703C389.904 225.204 392.498 223.013 392.498 223.013C392.498 223.013 389.904 208.07 388.314 197.594C386.703 187.118 386.348 173.193 386.473 165.147C386.599 157.1 385.992 153.912 385.992 153.912C385.992 153.912 373.545 148.685 363.189 146.494C352.834 144.325 337.562 150.333 337.562 150.333C337.562 150.333 336.161 170.157 337.876 188.376L337.813 188.354Z" fill="#423227"/>
<path d="M337.813 188.354C337.876 188.918 337.918 189.504 337.981 190.067C338.483 194.796 339.215 199.307 340.031 203.363C340.491 203.558 340.972 203.71 341.495 203.84C342.855 204.165 344.298 203.45 345.198 202.365C346.118 201.281 346.537 199.849 346.788 198.418C346.997 197.138 347.06 195.815 346.976 194.514C346.872 193.061 346.6 191.651 346.139 190.263C345.763 189.135 345.261 188.029 344.445 187.183C343.629 186.337 342.478 185.795 341.328 185.968C340.784 186.055 340.24 186.294 339.78 186.597C339.047 187.074 338.378 187.682 337.813 188.354Z" fill="#B0683F"/>
<path d="M368.733 202.582C370.135 203.493 371.767 204.014 373.336 203.862C378.607 203.363 378.231 196.965 377.059 193.126C375.804 189.091 372.08 184.233 368.001 188.267C367.039 189.222 366.265 190.566 365.762 192.041L368.754 202.56L368.733 202.582Z" fill="#B0683F"/>
<path d="M378.754 89.2562C378.754 89.2562 386.013 90.0587 392.666 100.535C399.318 111.01 403.377 126.605 401.536 138.99C399.695 151.374 392.54 160.831 390.323 162.999C388.105 165.168 385.636 167.858 385.636 167.858L376.39 159.291C376.39 159.291 384.277 145.865 385.888 137.818C387.498 129.772 383.419 121.595 381.201 119.556C378.984 117.517 375.156 114.958 375.156 114.958C375.156 114.958 375.302 87.9331 378.733 89.2345L378.754 89.2562Z" fill="#CE5456"/>
<path d="M386.515 155.105C386.515 155.105 376.787 159.074 360.762 159.703C347.415 160.223 339.487 157.057 337.206 155.972C337.206 155.712 337.185 155.452 337.165 155.191C337.102 153.543 336.997 151.895 336.893 150.246C336.704 147.275 336.453 144.303 336.244 141.332C335.637 131.745 335.909 122.007 337.562 112.529C338.378 107.757 339.57 103.05 341.181 98.5175C342.541 94.6785 342.855 93.8109 344.842 90.2973C354.089 85.3304 355.009 86.3498 364.193 86.3498H364.235C364.905 86.3498 365.553 86.3715 366.202 86.4149C366.264 86.4149 366.306 86.4149 366.348 86.4149C366.955 86.4583 367.582 86.5016 368.168 86.5884C368.231 86.5884 368.294 86.5884 368.377 86.6101C368.963 86.6752 369.549 86.7836 370.135 86.8704C370.197 86.8704 370.26 86.8921 370.323 86.9137C370.93 87.0222 371.515 87.1306 372.08 87.2608C372.122 87.2608 372.143 87.2608 372.185 87.2825C373.419 87.5427 374.57 87.8681 375.678 88.1934C375.678 88.1934 375.72 88.1934 375.741 88.1934C376.264 88.3452 376.787 88.5187 377.268 88.6923C377.268 88.6923 377.31 88.6923 377.331 88.6923C381.159 89.9719 383.712 91.295 383.712 91.295C383.712 91.295 382.352 100.751 381.996 107.779C381.787 111.748 381.62 115.457 381.703 119.599C381.766 122.788 381.996 126.258 382.477 130.249C383.586 139.445 386.536 155.04 386.536 155.04L386.515 155.105Z" fill="#F6DEBE"/>
<path d="M388.042 109.557C387.833 113.526 384.151 116.064 381.682 119.664C380.072 115.674 372.331 103.05 368.084 96.1316C364.444 90.2104 366.411 88.844 366.411 88.844L364.172 86.3497H364.214C364.884 86.3497 365.532 86.3714 366.181 86.4148C366.243 86.4148 366.285 86.4148 366.327 86.4148C366.934 86.4582 367.561 86.5015 368.147 86.5883C368.21 86.5883 368.273 86.5883 368.356 86.61C368.942 86.6751 369.528 86.7835 370.114 86.8703C370.176 86.8703 370.239 86.892 370.302 86.9136C370.909 87.0221 371.494 87.1305 372.059 87.2607C372.101 87.2607 372.122 87.2607 372.164 87.2824C373.398 87.5426 374.549 87.868 375.657 88.1933C375.657 88.1933 375.699 88.1933 375.72 88.1933C376.243 88.3451 376.766 88.5186 377.247 88.6922C377.247 88.6922 377.289 88.6922 377.31 88.6922C381.139 89.9718 383.691 91.2949 383.691 91.2949C383.691 91.2949 388.419 102.465 388.042 109.492V109.557Z" fill="#CE5456"/>
<path d="M351.809 96.1533C353.88 93.4205 354.214 90.2105 359.026 89.4513C362.018 88.9742 356.139 88.1717 358.566 86.3064C354.026 86.2413 351.767 86.61 344.863 90.3189C342.876 93.8542 341.37 95.9581 339.989 99.7971C338.378 104.33 338.399 107.8 337.583 112.55C337.562 112.68 337.541 112.811 337.52 112.941C339.278 108.256 348.817 100.101 351.83 96.1533H351.809Z" fill="#CE5456"/>
<path d="M386.243 133.762C387.247 134.044 388.23 134.391 389.193 134.847C392.038 136.192 394.548 138.144 396.745 140.421C398.063 141.787 399.193 143.284 400.239 144.846C397.477 154.302 392.184 161.199 390.322 163.021C388.105 165.19 385.636 167.88 385.636 167.88L376.39 159.312C376.39 159.312 384.277 145.908 385.887 137.84C386.159 136.474 386.264 135.107 386.243 133.762Z" fill="#CE5456"/>
<path d="M369.193 81.1444L368.545 95.2207C368.545 95.2207 364.465 101.294 358.273 99.9706C352.081 98.6259 351.558 95.0906 351.558 95.0906L353.252 78.0212C353.252 78.0212 360.553 83.5736 369.172 81.1661L369.193 81.1444Z" fill="#E9A17A"/>
<g style="mix-blend-mode:multiply">
<path d="M367.415 88.7139C363.838 89.755 360.072 90.731 356.327 90.2972C354.863 90.1237 353.44 89.6899 352.143 88.9525L353.231 77.9778C353.231 77.9778 360.532 83.5302 369.151 81.1227L368.817 88.2585C368.335 88.4103 367.854 88.5621 367.373 88.6922L367.415 88.7139Z" fill="#D1B6A7"/>
</g>
<path d="M327.5 49.0227C327.5 49.0227 321.684 44.7065 319.759 47.6129C317.834 50.5192 318.19 54.0979 322.249 56.7657C326.307 59.4335 329.382 58.6093 329.382 58.6093L327.5 49.001V49.0227Z" fill="#E9A17A"/>
<path d="M391.599 36.1393C394.214 47.4177 395.908 72.9676 372.98 83.4652C350.051 93.9627 333.985 76.8933 327.646 59.3685C320.972 40.8893 328.19 15.9467 332.876 14.3634C357.122 6.0998 386.264 13.0403 391.599 36.161V36.1393Z" fill="#E9A17A"/>
<path d="M357.227 50.888C357.227 50.888 357.29 50.8012 357.227 50.8012C357.164 50.8012 357.164 50.888 357.227 50.888Z" fill="#423227"/>
<g style="mix-blend-mode:multiply">
<path d="M358.21 47.808C357.729 48.8708 357.876 50.1938 357.834 51.3434C357.792 52.5797 357.813 53.9244 357.332 55.0739C356.871 56.1584 355.867 56.5922 354.758 56.462C353.629 56.3102 351.599 55.3125 351.809 57.373C351.913 58.5225 352.436 59.4985 353.378 60.1492C353.859 60.4745 354.403 60.6697 354.947 60.7348C355.449 60.7999 356.014 60.6697 356.474 60.9083C356.662 60.9951 356.767 61.2553 356.62 61.4505C355.993 62.2313 354.717 61.9711 353.901 61.6891C352.959 61.3855 352.081 60.7348 351.516 59.8672C350.784 58.7611 350.051 55.9198 351.746 55.2474C352.457 54.9655 353.273 55.1173 353.963 55.3125C354.528 55.4643 355.281 55.7897 355.784 55.3125C356.62 54.5534 356.558 52.905 356.578 51.8856C356.62 50.3674 356.578 48.6973 357.353 47.3309C357.624 46.832 358.44 47.3092 358.189 47.8297L358.21 47.808Z" fill="#D1B6A7"/>
</g>
<path d="M345.449 42.4942C344.78 42.0388 344.027 41.6484 343.232 41.4965C342.437 41.3664 341.6 41.4965 340.805 41.6917C338.106 42.4292 335.742 44.3378 334.382 46.8538C333.985 47.6129 333.65 48.4154 333.546 49.2613C333.42 50.2373 333.546 51.2567 333.838 52.1893C334.947 55.7463 338.42 58.3924 342.018 58.284C345.407 58.1755 348.985 55.2258 349.8 51.7555C350.595 48.3937 348.022 44.2294 345.428 42.4726L345.449 42.4942Z" fill="white"/>
<path d="M338.566 57.5683C338.817 57.5032 339.089 57.4381 339.34 57.3514C341.161 56.7875 343.001 55.7898 344.131 54.1414C345.345 52.3846 345.324 50.0204 344.424 48.1118C343.65 46.4417 341.872 45.2488 340.282 44.5765C339.236 44.121 338.002 43.7956 336.83 43.9041C335.847 44.75 335.01 45.7477 334.403 46.8972C334.006 47.6563 333.671 48.4588 333.567 49.3047C333.441 50.2807 333.567 51.3001 333.859 52.2327C334.592 54.5969 336.391 56.5489 338.566 57.5683Z" fill="#423227"/>
<path d="M375.009 46.3983C374.34 45.9428 373.587 45.5524 372.792 45.4006C371.997 45.2705 371.16 45.4006 370.365 45.5958C367.666 46.3332 365.302 48.2419 363.942 50.7795C363.545 51.5386 363.21 52.3411 363.106 53.187C362.98 54.163 363.106 55.1824 363.398 56.1151C364.507 59.6721 367.98 62.3182 371.578 62.2097C374.967 62.1013 378.545 59.1515 379.36 55.6813C380.155 52.3194 377.582 48.1551 374.988 46.3983H375.009Z" fill="white"/>
<path d="M369.779 62.0146C370.532 61.6459 371.223 61.1904 371.808 60.5831C374.005 58.3274 374.361 54.7053 373.084 51.8641C372.436 50.4326 371.369 49.1963 369.988 48.4805C368.88 47.8949 367.645 47.6997 366.411 47.7431C365.428 48.589 364.57 49.6084 363.942 50.7796C363.545 51.5387 363.21 52.3412 363.106 53.1871C362.98 54.1631 363.106 55.1825 363.398 56.1151C364.319 59.0649 366.871 61.3639 369.779 61.9929V62.0146Z" fill="#423227"/>
<path d="M336.579 49.8252C338.315 50.5192 339.361 47.6996 337.604 47.0056C335.868 46.3115 334.822 49.1311 336.579 49.8252Z" fill="white"/>
<path d="M366.181 53.816C367.917 54.5101 368.963 51.6905 367.206 50.9964C365.469 50.3024 364.423 53.122 366.181 53.816Z" fill="white"/>
<path d="M389.758 59.3251C389.758 59.3251 393.607 54.727 397.686 57.3948C401.745 60.0625 400.322 66.3524 394.088 67.3284C387.875 68.2827 387.268 63.0123 387.268 63.0123L389.758 59.3251Z" fill="#E9A17A"/>
<path d="M335.303 38.0046C335.658 36.5297 336.893 35.4887 338.211 34.9681C338.985 34.6645 339.759 34.5343 340.595 34.556C341.328 34.556 342.415 34.6645 342.876 35.3368C342.729 35.2284 342.583 35.1199 342.436 35.0115C342.541 35.0766 342.667 35.1199 342.771 35.185C343.148 35.3802 343.461 35.7489 343.399 36.2261C343.399 36.3129 343.378 36.3996 343.336 36.4864C343.148 36.9418 342.771 37.1154 342.332 37.137C342.269 37.137 341.934 37.1804 342.227 37.137C342.395 37.0503 342.562 36.9852 342.729 36.8985C342.374 37.1587 342.039 37.2238 341.62 37.2455C341.474 37.2455 341.307 37.2455 341.16 37.2455C340.993 37.2455 341.453 37.2455 341.223 37.2455C341.077 37.2455 340.951 37.2672 340.805 37.2889C340.24 37.3539 339.675 37.4407 339.131 37.5708C339.026 37.5925 338.838 37.701 338.734 37.6793C338.775 37.6793 339.005 37.5708 338.838 37.6576C338.754 37.6793 338.671 37.7226 338.608 37.7443C338.357 37.8528 338.148 37.9612 337.918 38.0914C337.729 38.1998 337.876 38.0697 337.939 38.0697C337.918 38.0697 337.792 38.1564 337.771 38.1781C337.667 38.2649 337.562 38.3516 337.457 38.4384C337.353 38.5251 337.269 38.6336 337.185 38.7204C337.29 38.5685 337.102 38.8071 337.185 38.7204C337.144 38.7854 337.081 38.8505 337.039 38.9156C336.767 39.3277 336.202 39.4578 335.784 39.2192C335.324 38.9589 335.219 38.4818 335.324 37.9829L335.303 38.0046Z" fill="#82342A"/>
<path d="M373.252 38.7854C373.482 38.6119 373.712 38.4818 373.984 38.395C374.486 38.2215 374.13 38.3516 374.13 38.3299C374.13 38.3299 374.256 38.2649 374.277 38.2432C374.465 38.1564 374.653 38.1347 374.842 38.113C375.302 38.0914 375.657 38.113 376.118 38.2432C376.369 38.3082 376.62 38.395 376.85 38.5034C377.436 38.7637 377.959 39.1541 378.44 39.6096C379.005 40.1301 379.507 40.7374 379.841 41.4315C379.904 41.5616 379.946 41.6701 380.009 41.8002C380.093 41.9954 380.197 42.3858 380.134 42.6027C380.218 42.2991 379.988 41.8436 380.093 42.1906C380.197 42.4943 380.218 42.7112 380.218 43.0365C380.218 43.2534 380.176 42.7328 380.218 42.9497C380.218 43.0799 380.26 43.2751 380.239 43.4052C380.176 44.0559 379.674 44.4897 379.047 44.2945C378.9 44.2511 378.775 44.186 378.649 44.0993C378.628 44.0776 378.544 44.0342 378.524 43.9908C378.691 44.0776 378.733 44.0993 378.649 44.0559C378.544 44.0125 378.44 43.9474 378.335 43.8824C378.21 43.7956 378.105 43.6872 378.001 43.5787C377.749 43.3401 378.042 43.7305 378.293 43.7739C377.98 43.7089 377.749 43.3835 377.54 43.1666C377.352 42.9714 377.164 42.7545 376.975 42.5593C376.808 42.3641 376.62 42.1906 376.452 41.9954C376.369 41.887 376.264 41.7785 376.18 41.6918C376.139 41.6484 376.076 41.5833 376.034 41.5399C375.846 41.3664 376.348 41.8219 376.055 41.5616C375.616 41.1495 375.155 40.8025 374.632 40.4772C374.528 40.4121 374.423 40.347 374.319 40.282C374.549 40.4772 374.465 40.3687 374.36 40.3036C374.256 40.2603 374.151 40.1952 374.068 40.1301C373.837 39.8916 373.796 39.8699 373.984 40.0434C374.193 40.1084 373.817 39.9349 373.984 40.0434C373.9 40.0217 373.837 40 373.754 39.9566C373.628 39.9132 373.503 39.8699 373.377 39.8265C372.959 39.718 372.854 39.0023 373.21 38.7637L373.252 38.7854Z" fill="#82342A"/>
<path d="M325.052 48.3503C325.24 49.2396 325.387 50.259 325.847 51.0615C326.161 51.582 327.081 51.6471 327.144 50.8663C327.5 45.2271 329.173 38.3082 331.119 33.0594C332.144 30.2832 333.42 27.6154 335.073 25.1863C335.826 24.1018 336.642 23.0607 337.604 22.1498C337.771 21.9979 337.96 21.8461 338.148 21.6943C338.545 22.2799 339.006 22.8438 339.508 23.3427C342.06 25.8152 345.533 27.2684 348.838 28.2227C351.767 29.0686 354.8 29.6542 357.834 30.0229C366.683 31.1074 375.992 30.6736 384.465 27.6588C384.841 29.4807 384.653 31.6063 384.674 33.4065C384.716 36.4429 384.779 39.5011 385.197 42.5159C385.657 45.8994 386.452 49.348 387.331 52.6448C388.21 55.9849 389.423 59.1298 391.201 62.0579C391.264 62.2314 391.369 62.3832 391.515 62.4917C391.515 62.4917 391.557 62.5134 391.578 62.535C391.871 62.7086 392.268 62.7086 392.519 62.3398C393.523 60.7782 403.69 43.8606 399.862 28.8517C399.234 26.4225 397.582 24.2319 395.574 22.7788C393.126 21.0002 390.197 20.7183 387.352 21.3256C387.017 15.99 386.18 10.5894 381.557 7.35774C379.611 5.99132 377.373 5.18882 375.114 4.60321C372.331 3.86578 369.486 3.30186 366.683 2.67287C363.984 2.08726 361.286 1.6101 358.566 1.13294C356.014 0.677464 353.44 0.265369 350.846 0.308747C346.83 0.373815 341.537 0.113545 338.922 3.4103C337.73 4.92855 338.064 9.85199 337.541 11.8257C336.202 11.5871 331.328 10.8063 328.483 13.9512C325.805 16.901 324.027 19.8941 323.671 23.8632C323.42 26.7479 322.834 34.9681 324.069 42.8846C324.299 44.4246 324.759 46.8971 325.052 48.4154V48.3503Z" fill="#82342A"/>
<path d="M364.34 68.4779C364.34 68.4779 363.21 75.7221 353.566 74.7244C343.922 73.7267 345.282 66.3307 345.282 66.3307C345.282 66.3307 345.595 66.6126 346.265 67.0031C347.499 67.7188 349.905 68.8033 353.608 69.1937C356.955 69.5407 359.549 69.4106 361.369 69.1503C363.336 68.8683 364.361 68.4779 364.361 68.4779H364.34Z" fill="#423227"/>
<path d="M361.369 69.1286C360.888 69.6925 360.26 70.1263 359.591 70.4516C356.83 71.7529 353.294 71.6879 350.449 70.7336C349.11 70.2781 347.792 69.5623 346.934 68.4128C346.621 67.979 346.39 67.5019 346.265 66.9813C347.499 67.6971 349.905 68.7815 353.608 69.1719C356.955 69.519 359.549 69.3888 361.369 69.1286Z" fill="white"/>
</svg>
